SplineFontDB: 1.0
FontName: Kinnari
FullName: Kinnari
FamilyName: Kinnari
Weight: Medium
Copyright: Kinnari by Db Type : Fontographer 3.5
Version: 001.000
ItalicAngle: 0
UnderlinePosition: -70
UnderlineWidth: 25
Ascent: 800
Descent: 200
NeedsXUIDChange: 1
FSType: 0
PfmFamily: 17
TTFWeight: 500
TTFWidth: 5
Panose: 0 0 0 0 0 0 0 0 0 0
LineGap: 138
VLineGap: 0
OS2WinAscent: 0
OS2WinAOffset: 1
OS2WinDescent: 0
OS2WinDOffset: 1
HheadAscent: 0
HheadAOffset: 1
HheadDescent: 0
HheadDOffset: 1
ScriptLang: 5
 1 DFLT 1 dflt 
 1 thai 4 KUY  PAL  THA  dflt 
 1 latn 1 dflt 
 1 thai 1 dflt 
 1 thai 1 PAL  
ContextSub: glyph 0 4 ' RQD' 0 0 0 1
 String: 15 uni0E0D uni0E10
 BString: 0 
 FString: 0 
 1
  SeqLookup: 0 'nds0'
EndFPST
ChainSub: coverage 0 1 'ccmp' 0 0 0 1
 2 0 0
  Coverage: 19 uni0E4B uni0E4B.low
  Coverage: 7 uni0E4D
 2
  SeqLookup: 0 'amni'
  SeqLookup: 1 'G006'
EndFPST
ChainSub: coverage 0 1 'ccmp' 0 0 0 1
 2 0 0
  Coverage: 19 uni0E4A uni0E4A.low
  Coverage: 7 uni0E4D
 2
  SeqLookup: 0 'amni'
  SeqLookup: 1 'G005'
EndFPST
ChainSub: coverage 0 1 'ccmp' 0 0 0 1
 2 0 0
  Coverage: 19 uni0E49 uni0E49.low
  Coverage: 7 uni0E4D
 2
  SeqLookup: 0 'amni'
  SeqLookup: 1 'G004'
EndFPST
ChainSub: coverage 0 1 'ccmp' 0 0 0 1
 2 0 0
  Coverage: 19 uni0E48 uni0E48.low
  Coverage: 7 uni0E4D
 2
  SeqLookup: 0 'amni'
  SeqLookup: 1 'G003'
EndFPST
ChainSub: coverage 0 1 'ccmp' 0 0 0 1
 1 0 1
  Coverage: 15 uni0E0D uni0E10
  FCoverage: 23 uni0E38 uni0E39 uni0E3A
 1
  SeqLookup: 0 'ndsc'
EndFPST
ChainSub: coverage 0 1 'ccmp' 0 0 0 1
 1 2 0
  Coverage: 39 uni0E48 uni0E49 uni0E4A uni0E4B uni0E4C
  BCoverage: 23 uni0E38 uni0E39 uni0E3A

StartChar: Encoding:
Encoding: 0 -1 220
Width: 384
Flags: W
HStem: 0 23<23 384> 568 23<0 361>
VStem: 0 23<0 568> 361 23<23 591>
Fore
23 568 m 1
 23 23 l 1
 361 23 l 1
 361 568 l 1
 23 568 l 1
384 0 m 1
 0 0 l 1
 0 591 l 1
 384 591 l 1
 384 0 l 1
EndSplineSet
EndChar
StartChar: exclam
Encoding: 33 33 1
Width: 333
Flags: W
HStem: -14 115<156 176>
Fore
220 596 m 0
 220 596 l 0
 220 579 218 562 217 547 c 1
 174 177 l 1
 160 177 l 1
 117 547 l 1
 117 562 114 579 114 596 c 0
 114 628 124 676 167 676 c 0
 214 676 220 628 220 596 c 0
224 41 m 0
 224 9 197 -14 166 -14 c 0
 138 -14 109 11 109 41 c 0
 109 74 134 101 167 101 c 0
 200 101 224 74 224 41 c 0
EndSplineSet
EndChar
StartChar: quotedbl
Encoding: 34 34 2
Width: 407
Flags: W
HStem: 444 21G<103 123 284 304>
Fore
336 641 m 0
 304 444 l 1
 284 444 l 1
 250 641 l 1
 247 662 270 684 293 684 c 0
 318 684 341 662 336 641 c 0
157 641 m 1
 123 444 l 1
 103 444 l 1
 71 641 l 1
 66 662 89 684 114 684 c 0
 137 684 160 662 157 641 c 1
EndSplineSet
EndChar
StartChar: numbersign
Encoding: 35 35 3
Width: 499
Flags: W
HStem: 0 21G<78 137 272 330> 217 53<5 111 178 303 370 470> 404 55<31 141 207 332 398 495> 404 258<180 332 370 495>
DStem: 111 217 169 217 78 0 137 0 141 404 200 404 120 270 178 270 180 662 238 662 149 459 207 459 303 217 361 217 272 0 330 0 332 404 390 404 312 270 370 270 370 662 427 662 339 459 398 459
Fore
495 404 m 1xe0
 390 404 l 1xd0
 370 270 l 1
 470 270 l 1
 470 217 l 1
 361 217 l 1
 330 0 l 1
 272 0 l 1
 303 217 l 1
 169 217 l 1
 137 0 l 1
 78 0 l 1
 111 217 l 1
 5 217 l 1
 5 270 l 1
 120 270 l 1
 141 404 l 1
 31 404 l 1
 31 459 l 1
 149 459 l 1xe0
 180 662 l 1
 238 662 l 1xd0
 207 459 l 1
 339 459 l 1xe0
 370 662 l 1
 427 662 l 1xd0
 398 459 l 1
 495 459 l 1
 495 404 l 1xe0
332 404 m 1xe0
 200 404 l 1xd0
 178 270 l 1
 312 270 l 1
 332 404 l 1xe0
EndSplineSet
EndChar
StartChar: dollar
Encoding: 36 36 4
Width: 499
Flags: W
VStem: 52 75<508 533> 230 34<-88 0 28 293 407 636 661 727> 378 78<152 178>
Fore
456 178 m 0
 456 178 l 0
 456 65 367 8 264 0 c 1
 264 -88 l 1
 230 -88 l 1
 230 0 l 1
 164 0 100 17 45 51 c 1
 45 181 l 1
 60 181 l 1
 75 88 132 29 230 28 c 1
 230 310 l 1
 154 353 52 407 52 508 c 0
 52 610 140 659 230 662 c 1
 230 727 l 1
 264 727 l 1
 264 662 l 1
 321 660 379 645 424 610 c 1
 424 499 l 1
 410 499 l 1
 398 576 343 631 264 636 c 1
 264 390 l 1
 352 343 456 296 456 178 c 0
230 407 m 0
 230 636 l 0
 197 636 127 596 127 533 c 0
 127 467 184 441 230 407 c 0
378 152 m 0
 378 223 319 263 264 293 c 1
 264 28 l 1
 333 37 378 81 378 152 c 0
EndSplineSet
EndChar
StartChar: percent
Encoding: 37 37 5
Width: 832
Flags: W
HStem: -14 31<574 589> 287 36<180 200> 324 32<663 678> 633 29<274 286>
VStem: 61 76<396 424> 358 18<539 593> 358 26<537 553> 745 26<222 249>
DStem: 550 610 633 676 201 -14 249 -14
Fore
633 676 m 1xfb
 249 -14 l 1
 201 -14 l 1
 550 610 l 1
 490 585 416 578 376 593 c 1xfd
 376 578 384 556 384 539 c 0
 384 404 267 287 180 287 c 0
 103 287 61 338 61 424 c 0
 61 531 164 662 276 662 c 0
 310 662 330 653 356 630 c 1
 382 610 404 607 436 607 c 0
 496 607 553 633 585 676 c 1
 633 676 l 1xfb
771 247 m 0
 771 247 l 0
 771 91 662 -14 576 -14 c 0
 473 -14 449 48 449 123 c 0
 449 230 553 356 665 356 c 0
 733 356 771 300 771 247 c 0
358 553 m 0
 358 553 l 0
 358 570 353 584 350 599 c 1
 312 610 298 633 281 633 c 0
 244 633 137 533 137 396 c 0
 137 353 151 323 200 323 c 1
 296 332 358 456 358 553 c 0
745 241 m 0
 745 281 722 324 676 324 c 0
 622 324 585 269 564 224 c 0
 510 111 507 17 587 17 c 0
 680 17 745 161 745 241 c 0
EndSplineSet
EndChar
StartChar: ampersand
Encoding: 38 38 6
Width: 777
Flags: W
HStem: -14 54<220 263> 407 18<495 511.333 702.125 710> 644 32<346 364>
VStem: 43 91<144 172> 203 78<516 548> 438 52<545 563>
Fore
750 100 m 1
 750 100 l 0
 702 26 667 -14 599 -14 c 0
 530 -14 475 31 429 78 c 1
 373 25 298 -14 220 -14 c 0
 108 -14 43 43 43 144 c 0
 43 258 163 339 237 376 c 1
 220 422 203 468 203 516 c 0
 203 604 266 676 355 676 c 0
 427 676 490 633 490 556 c 0
 490 467 409 415 336 384 c 1
 373 312 416 243 467 178 c 1
 502 220 559 303 559 358 c 0
 559 387 544 404 495 407 c 1
 495 425 l 1
 710 425 l 1
 710 407 l 1
 647 399 631 373 604 323 c 0
 567 257 510 174 493 147 c 1
 533 101 579 58 644 58 c 0
 684 58 713 80 734 111 c 1
 750 100 l 1
438 559 m 0
 438 559 l 0
 438 604 404 644 359 644 c 0
 300 644 281 599 281 548 c 0
 281 510 304 450 321 416 c 1
 376 442 438 493 438 559 c 0
404 104 m 1
 344 177 296 260 252 343 c 1
 184 301 134 257 134 172 c 0
 134 104 195 40 263 40 c 0
 304 40 362 68 404 104 c 1
EndSplineSet
EndChar
StartChar: quotesingle
Encoding: 39 39 7
Width: 179
Flags: W
HStem: 444 21G<80 100>
Fore
134 641 m 1
 100 444 l 1
 80 444 l 1
 48 641 l 1
 43 662 66 684 91 684 c 0
 114 684 137 662 134 641 c 1
EndSplineSet
EndChar
StartChar: parenleft
Encoding: 40 40 8
Width: 333
Flags: W
VStem: 49 85<238 288>
Fore
304 -161 m 1
 292 -177 l 1
 163 -91 49 48 49 260 c 0
 49 433 138 579 295 676 c 1
 304 659 l 1
 170 567 134 424 134 269 c 0
 134 104 154 -41 304 -161 c 1
EndSplineSet
EndChar
StartChar: parenright
Encoding: 41 41 9
Width: 333
Flags: W
VStem: 200 84<206 256>
Fore
284 232 m 0
 284 60 184 -91 38 -177 c 1
 29 -161 l 1
 164 -68 200 74 200 229 c 0
 200 396 177 556 29 659 c 1
 41 676 l 1
 81 656 284 513 284 232 c 0
EndSplineSet
EndChar
StartChar: asterisk
Encoding: 42 42 10
Width: 499
Flags: W
Fore
435 559 m 0
 447 519 404 498 382 502 c 1
 359 504 310 482 266 467 c 1
 313 442 359 427 404 419 c 0
 424 416 442 382 422 359 c 0
 395 329 353 356 346 378 c 0
 338 398 293 430 257 458 c 1
 253 401 264 353 276 310 c 0
 283 292 267 260 237 266 c 0
 197 273 200 323 214 341 c 0
 227 358 233 412 241 458 c 1
 190 427 157 395 127 361 c 0
 114 346 77 346 66 375 c 0
 54 413 97 436 120 432 c 0
 141 429 190 450 232 470 c 1
 184 499 138 513 94 522 c 0
 74 525 57 559 77 582 c 0
 103 613 144 585 152 564 c 0
 160 544 204 511 241 482 c 1
 241 547 230 593 215 636 c 0
 207 654 227 687 258 682 c 0
 298 673 296 624 281 607 c 0
 267 590 263 536 258 482 c 1
 310 505 344 539 373 573 c 1
 390 585 424 587 435 559 c 0
EndSplineSet
EndChar
StartChar: plus
Encoding: 43 43 11
Width: 563
Flags: W
HStem: 238 65<31 250 313 533>
VStem: 250 63<17 238 303 521>
Fore
533 238 m 1
 313 238 l 1
 313 17 l 1
 250 17 l 1
 250 238 l 1
 31 238 l 1
 31 303 l 1
 250 303 l 1
 250 521 l 1
 313 521 l 1
 313 303 l 1
 533 303 l 1
 533 238 l 1
EndSplineSet
EndChar
StartChar: comma
Encoding: 44 44 12
Width: 250
Flags: W
VStem: 147 53<-6 17>
Fore
43 58 m 0
 43 100 68 126 111 126 c 0
 174 126 200 68 200 17 c 0
 200 -48 135 -118 74 -146 c 1
 60 -118 l 1
 100 -100 147 -41 147 -6 c 0
 147 0 149 5 143 5 c 0
 135 5 126 -5 106 -3 c 0
 72 -2 43 22 43 58 c 0
EndSplineSet
EndChar
StartChar: hyphen
Encoding: 45 45 13
Width: 333
Flags: W
HStem: 238 63<43 289>
Fore
289 238 m 1
 43 238 l 1
 43 301 l 1
 289 301 l 1
 289 238 l 1
EndSplineSet
EndChar
StartChar: period
Encoding: 46 46 14
Width: 250
Flags: W
Fore
54 60 m 0
 54 100 86 132 126 132 c 0
 166 132 198 100 198 60 c 0
 198 20 166 -12 126 -12 c 0
 86 -12 54 20 54 60 c 0
EndSplineSet
EndChar
StartChar: slash
Encoding: 47 47 15
Width: 278
Flags: W
DStem: 240 682 303 682 -12 -108 51 -108
Fore
303 682 m 1
 51 -108 l 1
 -12 -108 l 1
 240 682 l 1
 303 682 l 1
EndSplineSet
EndChar
StartChar: zero
Encoding: 48 48 16
Width: 537
Flags: W
HStem: -14 28<259 282> 650 26<259 282>
VStem: 41 97<305 355> 396 97<305 355>
Fore
493 327 m 0
 493 327 l 0
 493 190 439 -14 261 -14 c 0
 120 -14 41 138 41 333 c 0
 41 476 94 676 266 676 c 0
 416 676 493 524 493 327 c 0
396 326 m 0
 396 504 367 650 272 650 c 0
 160 650 138 481 138 313 c 0
 138 164 161 14 269 14 c 0
 382 14 396 172 396 326 c 0
EndSplineSet
EndChar
StartChar: one
Encoding: 49 49 17
Width: 537
Flags: W
HStem: 0 14<141 161 395 415>
VStem: 235 86<80 545>
Fore
415 0 m 1
 141 0 l 1
 141 14 l 1
 221 18 235 37 235 80 c 2
 235 528 l 2
 235 607 204 593 132 565 c 1
 132 579 l 1
 321 676 l 1
 321 80 l 2
 321 37 335 18 415 14 c 1
 415 0 l 1
EndSplineSet
EndChar
StartChar: two
Encoding: 50 50 18
Width: 537
Flags: W
HStem: 0 77<151 442> 604 72<218 269>
VStem: 361 86<459 501>
DStem: 223 192 310 243 54 14 151 77
Fore
498 137 m 1
 442 0 l 1
 54 0 l 1
 54 14 l 1
 223 192 l 2
 287 261 361 358 361 459 c 0
 361 547 306 604 218 604 c 0
 140 604 100 539 75 473 c 1
 54 479 l 1
 74 593 147 676 269 676 c 0
 367 676 447 599 447 501 c 0
 447 407 401 339 310 243 c 1
 151 77 l 1
 364 77 l 2
 438 77 445 80 485 143 c 1
 498 137 l 1
EndSplineSet
EndChar
StartChar: three
Encoding: 51 51 19
Width: 537
Flags: W
HStem: -14 36<183 247> 616 60<232 264>
VStem: 341 78<510 542> 382 71<167 214>
Fore
453 214 m 0xd0
 453 63 319 -14 183 -14 c 0
 144 -14 68 -11 68 43 c 0
 68 65 84 77 104 77 c 0
 154 77 187 22 247 22 c 0
 330 22 382 88 382 167 c 0xd0
 382 280 323 330 177 330 c 1
 175 344 l 1
 250 367 341 413 341 510 c 0
 341 574 296 616 232 616 c 0
 166 616 120 579 83 511 c 1
 68 516 l 1
 100 616 169 676 264 676 c 0
 369 676 419 621 419 542 c 0xe0
 419 476 376 433 327 402 c 1
 412 367 453 312 453 214 c 0xd0
EndSplineSet
EndChar
StartChar: four
Encoding: 52 52 20
Width: 537
Flags: W
HStem: 0 21G<315 392> 167 63<74 315 392 493>
VStem: 315 77<0 167 230 676>
DStem: 346 676 315 570 34 230 74 230
Fore
493 167 m 1
 392 167 l 1
 392 0 l 1
 315 0 l 1
 315 167 l 1
 34 167 l 1
 34 230 l 1
 346 676 l 1
 392 676 l 1
 392 230 l 1
 493 230 l 1
 493 167 l 1
315 230 m 1
 315 570 l 1
 74 230 l 1
 315 230 l 1
EndSplineSet
EndChar
StartChar: five
Encoding: 53 53 21
Width: 537
Flags: W
HStem: -14 36<180 240> 582 80<197 413>
VStem: 379 70<195 227>
DStem: 197 662 204 582 88 424 163 498
Fore
461 680 m 1
 413 582 l 1
 204 582 l 1
 163 498 l 1
 321 472 449 427 449 227 c 0
 449 78 327 -14 180 -14 c 0
 140 -14 63 -11 55 40 c 0
 51 68 71 84 100 84 c 0
 163 84 186 22 240 22 c 0
 326 22 379 100 379 195 c 0
 379 352 226 404 100 412 c 0
 91 413 86 418 88 424 c 1
 197 662 l 1
 393 662 l 2
 424 662 432 662 452 687 c 1
 461 680 l 1
EndSplineSet
EndChar
StartChar: six
Encoding: 54 54 22
Width: 537
Flags: W
HStem: -14 28<284 307> 382 45<267 304>
VStem: 58 93<245 275>
Fore
490 214 m 0
 490 214 l 0
 490 94 413 -14 286 -14 c 0
 160 -14 58 91 58 273 c 0
 58 490 207 645 410 674 c 0
 427 676 442 682 468 682 c 1
 470 664 l 1
 439 656 409 653 375 636 c 0
 286 594 195 518 175 382 c 1
 214 410 257 427 304 427 c 0
 421 427 490 346 490 214 c 0
398 226 m 0
 387 307 356 382 267 382 c 0
 233 382 197 370 170 350 c 0
 167 347 166 344 164 343 c 0
 152 316 151 283 151 247 c 0
 151 114 203 14 301 14 c 0
 376 14 412 108 398 226 c 0
EndSplineSet
EndChar
StartChar: seven
Encoding: 55 55 23
Width: 537
Flags: W
HStem: 587 75<103 393>
DStem: 393 587 472 647 194 -14 258 -14
Fore
472 647 m 1
 258 -14 l 1
 194 -14 l 1
 393 587 l 1
 187 587 l 2
 114 587 98 568 60 507 c 1
 43 515 l 1
 103 662 l 1
 472 662 l 1
 472 647 l 1
EndSplineSet
EndChar
StartChar: eight
Encoding: 56 56 24
Width: 537
Flags: W
HStem: -14 25<263 286> 650 26<252 281>
VStem: 77 75<145 165> 375 69<525 552> 389 76<126 154>
Fore
465 154 m 0xe8
 465 154 l 0xe8
 465 46 367 -14 266 -14 c 0
 167 -14 77 45 77 152 c 0
 77 237 146 287 206 332 c 1
 143 393 83 425 83 527 c 0
 83 596 151 676 273 676 c 0
 353 676 444 630 444 539 c 0xf0
 444 452 379 407 310 372 c 1
 381 316 465 255 465 154 c 0xe8
375 536 m 0xf0
 375 536 l 0
 375 604 330 650 264 650 c 0
 206 650 157 611 157 550 c 0
 157 478 227 424 281 390 c 1
 335 419 375 472 375 536 c 0xf0
389 126 m 0xe8
 389 214 295 267 232 312 c 1
 229 309 224 307 221 303 c 1
 180 270 152 214 152 163 c 0
 152 78 194 11 281 11 c 0
 347 11 389 60 389 126 c 0xe8
EndSplineSet
EndChar
StartChar: nine
Encoding: 57 57 25
Width: 537
Flags: W
HStem: 237 43<233 273> 292 21G<470 470> 650 26<245 269>
VStem: 54 92<446 476>
Fore
470 292 m 0
 470 292 l 0
 439 186 353 63 232 12 c 0
 175 -12 114 -23 83 -23 c 1
 80 -3 l 1
 141 8 233 35 300 124 c 0
 336 174 367 233 382 292 c 1
 330 257 283 237 233 237 c 0
 126 237 54 316 54 447 c 0
 54 530 106 676 267 676 c 0
 356 676 427 611 456 531 c 0
 482 459 493 373 470 292 c 0
386 413 m 0
 386 499 367 650 253 650 c 0
 166 650 146 545 146 476 c 0
 146 390 170 280 273 280 c 0
 306 280 362 303 382 330 c 1
 386 356 386 382 386 413 c 0
EndSplineSet
EndChar
StartChar: colon
Encoding: 58 58 26
Width: 278
Flags: W
HStem: -12 144<140 149> 324 144<140 149>
Fore
68 396 m 0
 68 396 l 0
 68 436 100 468 140 468 c 0
 180 468 212 436 212 396 c 0
 212 356 180 324 140 324 c 0
 100 324 68 356 68 396 c 0
68 60 m 0
 68 100 100 132 140 132 c 0
 180 132 212 100 212 60 c 0
 212 20 180 -12 140 -12 c 0
 100 -12 68 20 68 60 c 0
EndSplineSet
EndChar
StartChar: semicolon
Encoding: 59 59 27
Width: 278
Flags: W
HStem: 5 121<126 158> 324 144<127 136>
VStem: 163 52<-6 23>
Fore
58 58 m 0
 58 58 l 0
 58 100 83 126 126 126 c 0
 195 126 215 77 215 23 c 0
 215 -60 161 -112 89 -146 c 1
 75 -118 l 1
 115 -100 163 -45 163 -6 c 0
 163 0 164 5 158 5 c 0
 151 5 141 -5 121 -3 c 0
 88 -2 58 22 58 58 c 0
55 396 m 0
 55 436 88 468 127 468 c 0
 167 468 200 436 200 396 c 0
 200 356 167 324 127 324 c 0
 88 324 55 356 55 396 c 0
EndSplineSet
EndChar
StartChar: less
Encoding: 60 60 28
Width: 563
Flags: W
DStem: 28 233 108 261 536 0 536 63 536 522 536 459 28 287 108 261
Fore
536 0 m 1
 28 233 l 1
 28 287 l 1
 536 522 l 1
 536 459 l 1
 108 261 l 1
 536 63 l 1
 536 0 l 1
EndSplineSet
EndChar
StartChar: equal
Encoding: 61 61 29
Width: 563
Flags: W
HStem: 132 65<31 533> 326 64<31 533>
Fore
533 326 m 1
 31 326 l 1
 31 390 l 1
 533 390 l 1
 533 326 l 1
533 132 m 1
 31 132 l 1
 31 197 l 1
 533 197 l 1
 533 132 l 1
EndSplineSet
EndChar
StartChar: greater
Encoding: 62 62 30
Width: 563
Flags: W
DStem: 28 459 28 522 455 261 536 287 455 261 536 233 28 63 28 0
Fore
536 233 m 1
 28 0 l 1
 28 63 l 1
 455 261 l 1
 28 459 l 1
 28 522 l 1
 536 287 l 1
 536 233 l 1
EndSplineSet
EndChar
StartChar: question
Encoding: 63 63 31
Width: 443
Flags: W
HStem: -14 115<217 226> 647 29<195 217>
VStem: 49 89<510 536> 158 115<43 51> 303 92<516 531>
Fore
395 518 m 0
 395 518 l 0
 395 453 356 402 319 355 c 2
 289 316 l 2
 253 270 233 223 224 164 c 1
 207 164 l 1
 207 319 303 386 303 516 c 0
 303 582 267 647 195 647 c 0
 157 647 88 621 103 573 c 1
 109 564 117 556 123 547 c 0
 134 533 138 527 138 510 c 0
 138 485 120 470 94 470 c 0
 58 470 49 508 49 536 c 0
 49 625 135 676 217 676 c 0
 330 676 395 596 395 518 c 0
273 43 m 0
 273 11 244 -14 217 -14 c 0
 187 -14 158 12 158 43 c 0
 158 74 187 101 217 101 c 0
 244 101 273 75 273 43 c 0
EndSplineSet
EndChar
StartChar: at
Encoding: 64 64 32
Width: 920
Flags: W
HStem: -155 40<470 524> 41 43<401 433 657 669> 427 46<510 525> 636 38<501 526>
VStem: 55 96<228 262> 280 92<164 198> 828 40<308 346>
Fore
868 330 m 0
 868 330 l 0
 868 172 760 40 659 40 c 0
 624 40 561 49 542 123 c 1
 508 72 444 41 401 41 c 0
 330 41 280 83 280 184 c 0
 280 330 396 473 510 473 c 0
 562 473 594 436 604 410 c 1
 616 459 l 1
 702 459 l 1
 621 144 l 2
 610 104 636 83 667 83 c 0
 742 83 828 214 828 329 c 0
 828 513 660 636 501 636 c 0
 287 636 151 421 151 249 c 0
 151 98 210 -115 495 -115 c 0
 591 -115 707 -78 762 -23 c 1
 743 -88 l 1
 743 -88 650 -155 493 -155 c 0
 290 -155 55 -38 55 257 c 0
 55 424 195 674 501 674 c 0
 627 674 868 590 868 330 c 0
582 344 m 0
 582 409 554 427 525 427 c 0
 472 427 372 341 372 175 c 0
 372 111 390 84 433 84 c 0
 468 84 511 127 522 147 c 0
 536 170 582 273 582 344 c 0
EndSplineSet
EndChar
StartChar: A
Encoding: 65 65 33
Width: 721
Flags: W
HStem: 0 20<15 27.4 214 214 450 478.667 686.667 705> 217 40<217 461>
DStem: 330 531 367 676 447 257 610 117 347 676 330 531 144 194 217 257
Fore
705 0 m 1
 450 0 l 1
 450 20 l 1
 536 23 535 43 496 131 c 1
 461 217 l 1
 200 217 l 1
 186 178 144 98 144 61 c 0
 144 28 180 20 214 20 c 1
 214 0 l 1
 15 0 l 1
 15 20 l 1
 77 25 103 97 144 194 c 1
 347 676 l 1
 367 676 l 1
 610 117 l 1
 628 77 650 17 705 20 c 1
 705 0 l 1
447 257 m 1
 330 531 l 1
 217 257 l 1
 447 257 l 1
EndSplineSet
EndChar
StartChar: B
Encoding: 66 66 34
Width: 666
Flags: W
HStem: 0 20<20 43.5759> 0 37<275 335> 326 40<218 300> 642 20<20 43.1796>
VStem: 117 101<78 326 80 593> 459 103<479 497> 481 115<175 193>
Fore
596 183 m 0xba
 596 183 l 0
 596 63 492 0 335 0 c 2x7a
 20 0 l 1
 20 20 l 1
 101 20 117 51 117 80 c 2
 117 582 l 2
 117 610 101 642 20 642 c 1
 20 662 l 1
 287 662 l 2
 442 662 562 621 562 493 c 0xbc
 562 409 505 366 429 347 c 1
 515 330 596 278 596 183 c 0xba
459 490 m 0x3c
 459 490 l 0
 459 565 412 607 343 619 c 1
 250 625 218 627 218 593 c 2
 218 366 l 1
 300 366 l 2
 401 366 459 409 459 490 c 0x3c
481 184 m 0x7a
 481 304 362 326 267 326 c 2
 218 326 l 1
 218 91 l 2
 218 55 227 37 300 37 c 0
 404 37 481 68 481 184 c 0x7a
EndSplineSet
EndChar
StartChar: C
Encoding: 67 67 35
Width: 666
Flags: W
HStem: -14 45<369 388> 450 21G<601 624> 634 42<369 388>
VStem: 34 115<305 355>
Fore
636 111 m 1
 576 37 473 -14 376 -14 c 0
 183 -14 34 111 34 330 c 0
 34 528 174 676 375 676 c 0
 511 676 562 593 594 674 c 1
 616 674 l 1
 624 450 l 1
 601 450 l 1
 571 559 499 634 384 634 c 0
 220 634 149 502 149 323 c 0
 149 183 223 31 386 31 c 0
 484 31 550 63 619 131 c 1
 636 111 l 1
EndSplineSet
EndChar
StartChar: D
Encoding: 68 68 36
Width: 721
Flags: W
HStem: 0 20<20 41.4939> 624 38<20 293> 642 20<20 41.223>
VStem: 108 102<79 593> 579 109<303 353>
Fore
688 329 m 0xd8
 688 329 l 0
 688 126 553 0 286 0 c 2
 20 0 l 1
 20 20 l 1
 94 20 108 51 108 80 c 2
 108 582 l 2
 108 610 94 642 20 642 c 1xb8
 20 662 l 1
 278 662 l 2
 533 662 688 553 688 329 c 0xd8
579 327 m 0
 579 524 452 624 267 624 c 0xd8
 220 624 210 622 210 573 c 2
 210 91 l 2
 210 54 237 43 258 41 c 0
 462 32 579 143 579 327 c 0
EndSplineSet
EndChar
StartChar: E
Encoding: 69 69 37
Width: 609
Flags: W
HStem: 0 20<12 33.0082> 0 41<225 551> 326 41<203 365> 519 143<12 542> 621 41<12 413> 642 20<12 32.6541>
VStem: 100 103<68.0558 326 80 584> 467 20<229 246.032 462 462>
Fore
596 169 m 1x6b
 551 0 l 1x6b
 12 0 l 1
 12 20 l 1
 84 20 100 51 100 80 c 2
 100 582 l 2
 100 610 84 642 12 642 c 1xa7
 12 662 l 1
 542 662 l 1
 542 519 l 1
 521 519 l 1x33
 510 573 476 621 407 621 c 2
 246 621 l 2
 221 621 203 607 203 582 c 2
 203 367 l 1
 343 367 l 2
 410 367 467 384 467 462 c 1
 487 462 l 1
 487 229 l 1
 467 229 l 1
 467 307 410 326 343 326 c 2
 203 326 l 1
 203 80 l 2
 203 63 207 41 227 41 c 2
 359 41 l 2
 439 41 516 43 568 169 c 1
 596 169 l 1x6b
EndSplineSet
EndChar
StartChar: F
Encoding: 70 70 38
Width: 556
Flags: W
HStem: 0 20<12 33.0082 292 292> 326 41<203 349> 519 143<12 544> 621 41<12 429> 642 20<12 32.6541>
VStem: 100 103<68.0558 326 80 593> 458 21<229 246.032 462 462>
Fore
544 519 m 1xe6
 519 519 l 1xe6
 507 628 447 621 376 621 c 2
 244 621 l 2xd6
 210 621 203 605 203 582 c 2
 203 367 l 1
 333 367 l 2
 401 367 458 384 458 462 c 1
 479 462 l 1
 479 229 l 1
 458 229 l 1
 458 307 401 326 333 326 c 2
 203 326 l 1
 203 80 l 2
 203 51 217 20 292 20 c 1
 292 0 l 1
 12 0 l 1
 12 20 l 1
 84 20 100 51 100 80 c 2
 100 582 l 2
 100 610 84 642 12 642 c 1xce
 12 662 l 1
 544 662 l 1
 544 519 l 1xe6
EndSplineSet
EndChar
StartChar: G
Encoding: 71 71 39
Width: 721
Flags: W
HStem: -14 42<370 397> 336 20<449 702.905> 636 40<363 395>
VStem: 28 115<305 357> 536 97<81 275>
Fore
703 336 m 1
 639 336 633 304 633 247 c 2
 633 57 l 1
 576 25 464 -14 382 -14 c 0
 212 -14 28 94 28 329 c 0
 28 527 170 676 370 676 c 0
 492 676 570 602 594 676 c 1
 616 676 l 1
 624 464 l 1
 602 464 l 1
 564 570 498 636 379 636 c 0
 214 636 143 496 143 321 c 0
 143 167 227 28 395 28 c 0
 432 28 473 34 507 49 c 0
 536 63 536 69 536 98 c 2
 536 247 l 2
 536 304 531 336 449 336 c 1
 449 356 l 1
 703 356 l 1
 703 336 l 1
EndSplineSet
EndChar
StartChar: H
Encoding: 72 72 40
Width: 721
Flags: W
HStem: 0 20<20 41.4939 298 298 424 445.525 702 702> 318 41<210 513> 642 20<17 41.223 17 298 424 445.253 424 702>
VStem: 108 102<67.4697 318 80 593> 513 101<68.0558 318 359 593>
Fore
702 0 m 1
 424 0 l 1
 424 20 l 1
 498 20 513 51 513 80 c 2
 513 318 l 1
 210 318 l 1
 210 80 l 2
 210 51 224 20 298 20 c 1
 298 0 l 1
 20 0 l 1
 20 20 l 1
 94 20 108 51 108 80 c 2
 108 582 l 2
 108 610 94 642 20 642 c 1
 17 662 l 1
 298 662 l 1
 298 642 l 1
 224 642 210 610 210 582 c 2
 210 359 l 1
 513 359 l 1
 513 582 l 2
 513 610 498 642 424 642 c 1
 424 662 l 1
 702 662 l 1
 702 642 l 1
 630 642 614 610 614 582 c 2
 614 80 l 2
 614 51 630 20 702 20 c 1
 702 0 l 1
EndSplineSet
EndChar
StartChar: I
Encoding: 73 73 41
Width: 333
Flags: W
HStem: 0 20<18 42.1272 316 316> 642 20<18 41.7214 18 316>
VStem: 117 101<68.2233 593>
Fore
316 0 m 1
 18 0 l 1
 18 20 l 1
 101 20 117 51 117 80 c 2
 117 582 l 2
 117 610 101 642 18 642 c 1
 18 662 l 1
 316 662 l 1
 316 642 l 1
 233 642 218 610 218 582 c 2
 218 80 l 2
 218 51 233 20 316 20 c 1
 316 0 l 1
EndSplineSet
EndChar
StartChar: J
Encoding: 74 74 42
Width: 388
Flags: W
HStem: -14 39<112 135> 642 20<78 101.721 78 376>
VStem: 177 101<114 584>
Fore
376 642 m 1
 293 642 278 610 278 582 c 2
 278 198 l 2
 278 57 204 -14 112 -14 c 0
 83 -14 23 -3 14 45 c 2
 11 60 l 1
 11 83 31 108 58 108 c 0
 88 108 108 86 104 77 c 0
 98 57 114 25 135 25 c 0
 164 25 177 72 177 114 c 2
 177 582 l 2
 177 610 161 642 78 642 c 1
 78 662 l 1
 376 662 l 1
 376 642 l 1
EndSplineSet
EndChar
StartChar: K
Encoding: 75 75 43
Width: 721
Flags: W
HStem: 0 20<20 41.8316 303 303 404 431.351 692.189 707.937> 642 20<20 41.5556 20 304 399 660>
VStem: 111 101<68.0976 296 80 593>
Fore
708 0 m 1
 404 0 l 1
 404 20 l 1
 478 20 484 37 467 65 c 0
 439 112 373 183 335 221 c 2
 238 316 l 1
 212 296 l 1
 212 80 l 2
 212 51 227 20 303 20 c 1
 303 0 l 1
 20 0 l 1
 20 20 l 1
 95 20 111 51 111 80 c 2
 111 582 l 2
 111 610 95 642 20 642 c 1
 20 662 l 1
 304 662 l 1
 304 642 l 1
 227 642 212 610 212 582 c 2
 212 347 l 1
 253 387 467 562 467 608 c 0
 467 645 424 641 399 642 c 1
 399 662 l 1
 660 662 l 1
 660 642 l 1
 587 642 548 604 499 556 c 2
 319 376 l 1
 476 210 l 1
 544 137 l 2
 596 78 637 20 708 20 c 1
 708 0 l 1
EndSplineSet
EndChar
StartChar: L
Encoding: 76 76 44
Width: 609
Flags: W
HStem: 0 20<12 33.0082> 0 41<283 550> 642 20<12 32.6541 12 290>
VStem: 100 103<80 593>
Fore
598 174 m 1x70
 550 0 l 1x70
 12 0 l 1
 12 20 l 1xb0
 84 20 100 51 100 80 c 2
 100 582 l 2
 100 610 84 642 12 642 c 1
 12 662 l 1
 290 662 l 1
 290 642 l 1
 217 642 203 610 203 582 c 2
 203 80 l 2
 203 52 240 41 303 41 c 0
 429 41 518 37 573 174 c 1
 598 174 l 1x70
EndSplineSet
EndChar
StartChar: M
Encoding: 77 77 45
Width: 887
Flags: W
HStem: 0 20<20 43.5759 257 257 593 613.977 869 869> 642 20<22 44.6383 670 869>
VStem: 117 43<68.1814 545> 680 102<67.7626 568>
DStem: 160 545 220 662 410 0 450 157 670 662 680 568 450 157 424 0
Fore
869 0 m 1
 593 0 l 1
 593 20 l 1
 665 20 680 51 680 80 c 2
 680 568 l 1
 424 0 l 1
 410 0 l 1
 160 545 l 1
 160 80 l 2
 160 51 175 20 257 20 c 1
 257 0 l 1
 20 0 l 1
 20 20 l 1
 101 20 117 51 117 80 c 2
 117 582 l 2
 117 610 101 642 22 642 c 1
 22 662 l 1
 220 662 l 1
 450 157 l 1
 670 662 l 1
 869 662 l 1
 869 642 l 1
 796 642 782 610 782 582 c 2
 782 80 l 2
 782 51 797 20 869 20 c 1
 869 0 l 1
EndSplineSet
EndChar
StartChar: N
Encoding: 78 78 46
Width: 721
Flags: W
HStem: 0 20<12 35.8212 250 250> 642 20<12 35.2232 470 493.661 470 708>
VStem: 109 45<67.9301 536> 567 44<181 589>
DStem: 154 536 183 662 596 -14 567 181
Fore
708 642 m 1
 627 642 611 610 611 582 c 2
 611 -14 l 1
 596 -14 l 1
 154 536 l 1
 154 80 l 2
 154 51 167 20 250 20 c 1
 250 0 l 1
 12 0 l 1
 12 20 l 1
 94 20 109 51 109 80 c 2
 109 587 l 1
 101 598 l 1
 71 633 61 642 12 642 c 1
 12 662 l 1
 183 662 l 1
 567 181 l 1
 567 582 l 2
 567 610 553 642 470 642 c 1
 470 662 l 1
 708 662 l 1
 708 642 l 1
EndSplineSet
EndChar
StartChar: O
Encoding: 79 79 47
Width: 721
Flags: W
VStem: 34 113<330 355> 574 113<330 359.31>
Fore
687 330 m 0
 687 330 l 0
 687 138 561 -14 361 -14 c 0
 184 -14 34 120 34 330 c 0
 34 530 166 679 361 676 c 1
 533 684 687 544 687 330 c 0
574 330 m 1
 574 487 516 642 361 639 c 1
 212 630 147 522 147 330 c 0
 147 124 243 14 361 23 c 0
 539 37 579 224 574 330 c 1
EndSplineSet
EndChar
StartChar: P
Encoding: 80 80 48
Width: 556
Flags: W
HStem: 0 20<11 32.2829 289 289> 289 38<250 287> 624 38<17 269> 642 20<17 36.3059>
VStem: 100 101<68.0558 293 80 593> 433 109<477 497>
Fore
542 487 m 0xec
 542 487 l 0
 542 339 416 289 287 289 c 0
 260 289 230 290 201 293 c 1
 201 80 l 2
 201 51 217 20 289 20 c 1
 289 0 l 1
 11 0 l 1
 11 20 l 1
 84 20 100 51 100 80 c 2
 100 582 l 2
 100 610 84 642 17 642 c 1xdc
 17 662 l 1
 267 662 l 2
 422 662 542 605 542 487 c 0xec
433 479 m 0
 433 593 341 624 244 624 c 0xec
 203 624 201 619 201 579 c 2
 201 330 l 1
 217 330 233 327 250 327 c 0
 358 327 433 364 433 479 c 0
EndSplineSet
EndChar
StartChar: Q
Encoding: 81 81 49
Width: 721
Flags: W
HStem: -177 200<361 700> 639 37<361 371>
VStem: 34 113<330 352> 574 113<330 352>
Fore
700 -177 m 1
 700 -177 l 0
 527 -177 407 -147 323 -65 c 0
 304 -48 284 -20 267 -8 c 1
 257 3 243 8 233 9 c 0
 103 45 34 194 34 330 c 0
 34 525 157 676 361 676 c 0
 562 676 687 524 687 330 c 0
 687 138 556 -3 424 -8 c 1
 496 -100 581 -157 700 -160 c 1
 700 -177 l 1
574 330 m 0
 574 528 490 639 361 639 c 0
 224 637 147 530 147 330 c 0
 147 134 230 23 361 23 c 0
 499 23 574 147 574 330 c 0
EndSplineSet
EndChar
StartChar: R
Encoding: 82 82 50
Width: 666
Flags: W
HStem: 0 20<12 32.672 287 287 638 653> 624 38<12 289> 642 20<12 32.3248>
VStem: 97 103<80 307 80 593> 433 109<479 497>
DStem: 255 307 361 319 493 0 559 75
Fore
653 0 m 1xd8
 493 0 l 1
 255 307 l 1
 200 306 l 1
 200 80 l 2
 200 51 214 20 287 20 c 1
 287 0 l 1
 12 0 l 1
 12 20 l 1
 83 20 97 51 97 80 c 2
 97 582 l 2
 97 610 83 642 12 642 c 1xb8
 12 662 l 1
 276 662 l 2
 442 662 542 604 542 487 c 0
 542 381 455 332 361 319 c 1
 559 75 l 2
 585 43 608 23 653 20 c 1
 653 0 l 1xd8
433 485 m 0
 433 584 362 624 273 624 c 0xd8
 207 624 200 624 200 576 c 2
 200 343 l 1
 344 347 433 378 433 485 c 0
EndSplineSet
EndChar
StartChar: S
Encoding: 83 83 51
Width: 556
Flags: W
HStem: -14 39<261 284> 634 42<245 268>
VStem: 71 86<508 539>
Fore
490 169 m 0
 490 80 416 -14 280 -14 c 0
 177 -14 104 60 94 -14 c 1
 72 -14 l 1
 43 201 l 1
 65 201 l 1
 97 108 166 25 272 25 c 0
 353 25 407 94 384 172 c 0
 344 312 71 318 71 508 c 0
 71 607 151 676 247 676 c 0
 353 676 402 602 425 676 c 1
 447 676 l 1
 468 462 l 1
 444 462 l 1
 421 556 355 634 263 634 c 0
 203 634 157 602 157 539 c 0
 157 481 220 439 263 413 c 0
 399 332 490 289 490 169 c 0
EndSplineSet
EndChar
StartChar: T
Encoding: 84 84 52
Width: 609
Flags: W
HStem: 0 20<166 187.464 444 444> 619 43<25 253 25 467>
VStem: 253 103<67.4697 619>
Fore
593 492 m 1
 570 492 l 1
 547 622 498 619 427 619 c 2
 356 619 l 1
 356 80 l 2
 356 51 370 20 444 20 c 1
 444 0 l 1
 166 0 l 1
 166 20 l 1
 240 20 253 51 253 80 c 2
 253 619 l 1
 183 619 104 624 75 582 c 1
 54 556 49 522 43 492 c 1
 18 492 l 1
 25 662 l 1
 587 662 l 1
 593 492 l 1
EndSplineSet
EndChar
StartChar: U
Encoding: 85 85 53
Width: 721
Flags: W
HStem: -14 45<352 381> 642 20<17 37.624 17 293 473 495.367 473 703>
VStem: 104 102<225 584> 567 43<267 584>
Fore
703 642 m 1
 625 642 610 610 610 582 c 2
 610 267 l 2
 610 154 601 66 487 12 c 0
 456 -3 402 -14 359 -14 c 0
 178 -14 104 71 104 253 c 2
 104 582 l 2
 104 610 89 642 17 642 c 1
 17 662 l 1
 293 662 l 1
 293 642 l 1
 221 642 206 610 206 582 c 2
 206 246 l 2
 206 91 253 31 379 31 c 0
 565 31 567 172 567 267 c 2
 567 582 l 2
 567 610 551 642 473 642 c 1
 473 662 l 1
 703 662 l 1
 703 642 l 1
EndSplineSet
EndChar
StartChar: V
Encoding: 86 86 54
Width: 721
Flags: W
HStem: 642 20<20 33.0974 20 286 496 515.958 496 700>
DStem: 131 527 257 487 373 -14 402 161 544 516 617 570 402 161 386 -14
Fore
700 642 m 1
 653 642 633 610 617 570 c 0
 544 393 441 131 386 -14 c 1
 373 -14 l 1
 131 527 l 1
 104 587 78 642 20 642 c 1
 20 662 l 1
 286 662 l 1
 286 642 l 1
 223 642 210 630 210 605 c 0
 210 584 247 507 257 487 c 2
 402 161 l 1
 544 516 l 1
 553 538 568 576 568 599 c 0
 568 637 524 642 496 642 c 1
 496 662 l 1
 700 662 l 1
 700 642 l 1
EndSplineSet
EndChar
StartChar: W
Encoding: 87 87 55
Width: 943
Flags: W
HStem: 642 20<9 253 316 583.973 737 759 911 935>
DStem: 450 470 473 412 344 189 319 -14 473 412 516 570 634 -14 665 186
Fore
935 642 m 1
 911 641 889 633 872 614 c 1
 863 601 857 585 852 570 c 1
 647 -14 l 1
 634 -14 l 1
 473 412 l 1
 319 -14 l 1
 306 -14 l 1
 152 419 l 1
 134 468 101 561 75 604 c 0
 60 630 38 639 9 642 c 1
 9 662 l 1
 253 662 l 1
 253 642 l 1
 240 642 l 2
 207 637 189 637 189 602 c 0
 189 593 201 562 204 553 c 2
 344 189 l 1
 450 470 l 1
 435 513 419 556 399 596 c 0
 382 633 356 642 316 642 c 1
 316 662 l 1
 584 662 l 1
 584 642 l 1
 556 642 507 642 507 611 c 0
 507 596 515 576 516 570 c 1
 665 186 l 1
 786 513 l 1
 803 562 809 604 800 619 c 0
 786 641 759 641 737 642 c 1
 737 662 l 1
 935 662 l 1
 935 642 l 1
EndSplineSet
EndChar
StartChar: X
Encoding: 88 88 56
Width: 721
Flags: W
HStem: 0 20<12 24.9641 244 244 409 437.288 705 705> 642 20<25 326 459 485.41 459 697>
DStem: 313 326 339 287 164 143 229 149 339 287 402 367 427 158 587 103 482 533 541 539 378 404 402 367
Fore
705 0 m 1
 409 0 l 1
 409 20 l 1
 479 20 495 34 481 69 c 0
 473 92 442 137 427 158 c 2
 339 287 l 1
 229 149 l 2
 210 127 187 100 174 75 c 0
 160 48 184 20 244 20 c 1
 244 0 l 1
 12 0 l 1
 12 20 l 1
 69 20 112 77 164 143 c 2
 313 326 l 1
 212 476 l 2
 129 598 97 639 25 642 c 1
 25 662 l 1
 326 662 l 1
 326 642 l 1
 263 642 250 634 250 611 c 0
 250 581 324 478 343 453 c 2
 378 404 l 1
 482 533 l 2
 496 550 530 584 530 610 c 0
 530 642 481 642 459 642 c 1
 459 662 l 1
 697 662 l 5
 697 642 l 1
 625 642 570 576 541 539 c 2
 402 367 l 1
 587 103 l 1
 633 40 659 20 705 20 c 1
 705 0 l 1
EndSplineSet
EndChar
StartChar: Y
Encoding: 89 89 57
Width: 721
Flags: W
HStem: 0 20<214 238.924 518 518> 642 20<23 36.2325 23 303 484 513.958 694.333 702>
VStem: 315 101<68.2653 293>
DStem: 190 476 255 559 315 293 396 347 533 562 558 519 396 347 416 303
Fore
702 642 m 1
 633 633 587 564 558 519 c 2
 416 303 l 1
 416 80 l 2
 416 51 432 20 518 20 c 1
 518 0 l 1
 214 0 l 1
 214 20 l 1
 300 20 315 51 315 80 c 2
 315 293 l 1
 190 476 l 2
 123 574 94 641 23 642 c 1
 23 662 l 1
 303 662 l 1
 303 642 l 1
 249 642 230 636 230 614 c 0
 230 593 243 576 255 559 c 2
 396 347 l 1
 533 562 l 2
 544 581 559 602 550 624 c 0
 544 636 536 642 484 642 c 1
 484 662 l 1
 702 662 l 1
 702 642 l 1
EndSplineSet
EndChar
StartChar: Z
Encoding: 90 90 58
Width: 609
Flags: W
HStem: 0 38<144 573> 624 38<51 445>
DStem: 445 624 579 650 8 12 144 38
Fore
596 177 m 1
 573 0 l 1
 8 0 l 1
 8 12 l 1
 445 624 l 1
 237 624 l 2
 134 624 75 605 57 490 c 1
 31 490 l 1
 51 662 l 1
 579 662 l 1
 579 650 l 1
 144 38 l 1
 390 38 l 2
 499 38 544 66 573 177 c 1
 596 177 l 1
EndSplineSet
EndChar
StartChar: bracketleft
Encoding: 91 91 59
Width: 333
Flags: W
HStem: -157 26<215 300> 636 26<88 300>
VStem: 88 76<-157 596>
Fore
300 -157 m 1
 88 -157 l 1
 88 662 l 1
 300 662 l 1
 300 636 l 1
 221 636 l 2
 175 636 164 625 164 581 c 2
 164 -68 l 2
 164 -120 177 -131 224 -131 c 2
 300 -131 l 1
 300 -157 l 1
EndSplineSet
EndChar
StartChar: backslash
Encoding: 92 92 60
Width: 278
Flags: W
HStem: 0 21G<289 361>
DStem: -83 682 -11 682 289 0 361 0
Fore
361 0 m 1
 289 0 l 1
 -83 682 l 1
 -11 682 l 1
 361 0 l 1
EndSplineSet
EndChar
StartChar: bracketright
Encoding: 93 93 61
Width: 333
Flags: W
HStem: -157 26<34 244> 636 26<34 131>
VStem: 169 75<-78 662>
Fore
244 -157 m 1
 34 -157 l 1
 34 -131 l 1
 103 -131 l 2
 163 -129 169 -121 169 -63 c 2
 169 556 l 2
 169 610 170 636 123 636 c 2
 34 636 l 1
 34 662 l 1
 244 662 l 1
 244 -157 l 1
EndSplineSet
EndChar
StartChar: asciicircum
Encoding: 94 94 62
Width: 468
Flags: W
DStem: 203 662 235 593 14 257 86 257
Fore
456 257 m 1
 382 257 l 1
 235 593 l 1
 86 257 l 1
 14 257 l 1
 203 662 l 1
 267 662 l 1
 456 257 l 1
EndSplineSet
EndChar
StartChar: underscore
Encoding: 95 95 63
Width: 499
Flags: W
HStem: -174 59<0 499>
Fore
499 -174 m 1
 0 -174 l 1
 0 -115 l 1
 499 -115 l 1
 499 -174 l 1
EndSplineSet
EndChar
StartChar: grave
Encoding: 96 96 64
Width: 333
Flags: W
Fore
243 507 m 1
 203 507 l 1
 60 598 l 2
 43 607 17 624 17 641 c 0
 17 664 28 677 48 677 c 0
 65 677 92 664 104 645 c 1
 243 507 l 1
EndSplineSet
EndChar
StartChar: a
Encoding: 97 97 65
Width: 443
Flags: W
HStem: -11 60<143 195> 435 23<208 226>
VStem: 37 87<95 131> 283 84<93 321.603>
Fore
442 43 m 1
 442 43 l 0
 427 25 387 -11 359 -11 c 0
 307 -11 289 28 287 66 c 1
 243 25 186 -11 143 -11 c 0
 83 -11 37 37 37 95 c 0
 37 215 198 257 283 290 c 1
 283 396 273 435 210 435 c 0
 190 435 155 425 144 407 c 1
 140 395 144 375 144 349 c 0
 144 326 123 304 100 304 c 0
 54 304 45 344 66 382 c 0
 100 442 163 458 224 458 c 0
 335 458 367 410 367 287 c 2
 367 77 l 2
 367 40 393 35 442 69 c 1
 442 43 l 1
283 94 m 1
 283 264 l 1
 220 238 124 221 124 131 c 0
 124 88 147 49 195 49 c 0
 215 49 273 71 283 94 c 1
EndSplineSet
EndChar
StartChar: b
Encoding: 98 98 66
Width: 499
Flags: W
HStem: -11 34<241 261> 396 62<258 301>
VStem: 74 86<68 311 68 682> 386 87<200 243>
Fore
473 243 m 0
 473 243 l 0
 473 112 379 -11 243 -11 c 0
 186 -11 127 5 86 37 c 0
 78 43 74 54 74 68 c 2
 74 559 l 2
 74 628 63 619 9 619 c 1
 9 637 l 1
 45 647 71 651 97 660 c 2
 160 682 l 1
 160 378 l 1
 187 430 243 458 301 458 c 0
 416 458 473 344 473 243 c 0
386 200 m 0
 386 280 359 396 258 396 c 0
 184 396 160 353 160 309 c 2
 160 84 l 1
 157 51 167 49 197 35 c 0
 214 28 240 23 257 23 c 0
 356 23 386 117 386 200 c 0
EndSplineSet
EndChar
StartChar: c
Encoding: 99 99 67
Width: 443
Flags: W
HStem: -11 71<212 257> 429 29<228 249>
VStem: 25 78<214 255>
Fore
412 149 m 1
 370 63 315 -11 212 -11 c 0
 104 -11 25 91 25 214 c 0
 25 344 100 458 249 458 c 0
 306 458 393 427 398 359 c 0
 398 336 376 316 353 316 c 0
 330 316 307 338 307 359 c 0
 307 399 284 429 230 429 c 0
 144 429 103 338 103 255 c 0
 103 163 154 60 257 60 c 0
 323 60 364 106 398 157 c 1
 412 149 l 1
EndSplineSet
EndChar
StartChar: d
Encoding: 100 100 68
Width: 499
Flags: W
HStem: -11 49<212 250> 427 31<220.534 252>
VStem: 26 86<210 241> 339 85<113 682>
Fore
490 45 m 1
 490 45 l 0
 442 31 392 12 339 -14 c 1
 339 60 l 1
 313 20 263 -11 212 -11 c 0
 88 -11 26 98 26 210 c 0
 26 327 108 458 237 458 c 0
 287 458 326 433 339 418 c 1
 339 559 l 2
 339 627 333 619 273 619 c 1
 273 637 l 1
 310 647 336 651 361 660 c 2
 424 682 l 1
 424 91 l 2
 424 54 459 60 490 60 c 1
 490 45 l 1
339 117 m 2
 339 300 l 2
 339 372 307 427 235 427 c 0
 152 427 112 333 112 241 c 0
 112 111 170 38 250 38 c 0
 307 38 339 83 339 117 c 2
EndSplineSet
EndChar
StartChar: e
Encoding: 101 101 69
Width: 443
Flags: W
HStem: -11 68<212 253> 276 31<94 402> 422 36<204 226>
VStem: 23 68<214 276>
Fore
421 158 m 1
 421 158 l 0
 390 68 312 -11 212 -11 c 0
 97 -11 23 95 23 214 c 0
 23 356 103 458 226 458 c 0
 333 458 399 379 402 276 c 1
 91 276 l 1
 92 181 140 57 253 57 c 0
 319 57 373 109 404 164 c 1
 421 158 l 1
300 307 m 1
 296 366 270 422 204 422 c 0
 134 422 103 370 94 307 c 1
 300 307 l 1
EndSplineSet
EndChar
StartChar: f
Encoding: 102 102 70
Width: 333
Flags: W
HStem: 0 14<20 37 260.75 280> 416 31<22 103 187 309> 579 103<273 344>
VStem: 103 84<80 416 447 491.074>
Fore
382 624 m 1
 382 602 367 579 344 579 c 0
 290 579 303 630 266 648 c 0
 253 654 238 656 226 650 c 1
 184 639 187 587 187 553 c 2
 187 447 l 1
 309 447 l 1
 309 416 l 1
 187 416 l 1
 187 80 l 2
 187 37 203 18 280 14 c 1
 280 0 l 1
 20 0 l 1
 20 14 l 1
 88 18 103 37 103 80 c 2
 103 416 l 1
 22 416 l 1
 22 447 l 1
 103 447 l 1
 103 482 104 513 111 544 c 0
 127 622 190 682 273 682 c 0
 313 682 359 674 382 624 c 1
EndSplineSet
EndChar
StartChar: g
Encoding: 103 103 71
Width: 499
Flags: W
HStem: -217 56<200 240> 147 27<241 257> 386 38<462.294 470> 386 72<244 470> 430 28<223 244>
VStem: 28 70<-114 -91> 69 83<296 335> 329 77<272 300> 433 28<-68 -49>
Fore
470 386 m 1xe380
 387 386 l 0
 401 356 406 323 406 300 c 0
 406 204 332 147 244 147 c 0
 227 147 210 151 190 154 c 1
 170 149 127 108 134 84 c 1
 147 65 203 65 223 63 c 0
 356 57 461 68 461 -49 c 0
 461 -163 293 -217 200 -217 c 0
 84 -217 28 -154 28 -114 c 0xd580
 28 -74 74 -46 126 2 c 1
 104 11 74 25 74 54 c 0
 74 94 123 134 163 163 c 1
 104 187 69 230 69 296 c 0
 69 395 149 458 244 458 c 0xd380
 330 458 339 407 470 424 c 1
 470 386 l 1xe380
329 272 m 0
 329 272 l 0
 329 327 298 430 230 430 c 0
 170 430 152 384 152 335 c 0xcb80
 152 272 174 174 255 174 c 0
 312 174 329 223 329 272 c 0
433 -68 m 0
 433 -17 364 -15 298 -14 c 0
 253 -14 194 -12 147 -3 c 1
 127 -25 98 -58 98 -91 c 0xc580
 98 -126 137 -161 240 -161 c 0
 358 -161 433 -124 433 -68 c 0
EndSplineSet
EndChar
StartChar: h
Encoding: 104 104 72
Width: 499
Flags: W
HStem: 0 14<9 21 208 220 280 291.75 478 490> 404 54<266 301>
VStem: 72 85<80 344 80 682> 343 84<80 321>
Fore
490 0 m 1
 280 0 l 1
 280 14 l 1
 327 18 343 37 343 80 c 2
 343 287 l 2
 343 346 338 404 266 404 c 0
 210 404 186 376 157 344 c 1
 157 80 l 2
 157 37 172 18 220 14 c 1
 220 0 l 1
 9 0 l 1
 9 14 l 1
 57 18 72 37 72 80 c 2
 72 559 l 2
 72 624 63 621 9 619 c 1
 9 637 l 1
 43 647 69 651 94 660 c 2
 157 682 l 1
 157 378 l 1
 190 422 241 458 301 458 c 0
 402 458 427 399 427 289 c 2
 427 80 l 2
 427 37 442 18 490 14 c 1
 490 0 l 1
EndSplineSet
EndChar
StartChar: i
Encoding: 105 105 73
Width: 278
Flags: W
HStem: 0 14<23 38 244.5 260> 579 103<123.388 137>
VStem: 98 85<80 353>
Fore
184 630 m 0
 184 630 l 0
 184 602 161 579 134 579 c 0
 104 579 83 602 83 630 c 0
 83 659 104 682 134 682 c 0
 161 682 184 659 184 630 c 0
260 0 m 1
 23 0 l 1
 23 14 l 1
 83 18 98 37 98 80 c 2
 98 323 l 2
 98 401 86 407 23 390 c 1
 23 404 l 1
 183 458 l 1
 183 80 l 2
 183 37 198 18 260 14 c 1
 260 0 l 1
EndSplineSet
EndChar
StartChar: j
Encoding: 106 106 74
Width: 278
Flags: W
HStem: 579 103<161 169>
VStem: 121 85<-94 360>
Fore
212 630 m 0
 212 630 l 0
 212 602 189 579 161 579 c 0
 134 579 111 602 111 630 c 0
 111 659 134 682 161 682 c 0
 189 682 212 659 212 630 c 0
206 12 m 2
 206 -140 147 -217 35 -217 c 0
 8 -217 -25 -207 -43 -190 c 1
 -63 -167 -57 -134 -35 -124 c 0
 -15 -114 5 -118 17 -132 c 0
 28 -147 40 -167 69 -181 c 0
 111 -200 121 -134 121 -94 c 2
 121 343 l 2
 121 396 108 399 48 390 c 1
 48 404 l 1
 206 458 l 1
 206 12 l 2
EndSplineSet
EndChar
StartChar: k
Encoding: 107 107 75
Width: 499
Flags: W
HStem: 0 14<2 16.75 222 237 283 297.222 481.667 499> 433 14<270 294.26 270 475>
VStem: 77 84<80 247 80 682>
DStem: 161 247 230 283 310 51 375 98
Fore
499 0 m 1
 283 0 l 1
 283 14 l 1
 330 14 319 40 310 51 c 2
 161 247 l 1
 161 80 l 2
 161 37 177 18 237 14 c 1
 237 0 l 1
 2 0 l 1
 2 14 l 1
 61 18 77 37 77 80 c 2
 77 579 l 2
 77 625 66 622 11 619 c 1
 11 637 l 1
 48 647 74 651 98 660 c 2
 161 682 l 1
 161 263 l 1
 287 373 l 2
 300 384 312 396 321 410 c 1
 324 427 312 433 270 433 c 1
 270 447 l 1
 475 447 l 1
 475 433 l 1
 372 433 321 362 230 283 c 1
 375 98 l 2
 406 58 447 17 499 14 c 1
 499 0 l 1
EndSplineSet
MinimumDistance: x2,25 
EndChar
StartChar: l
Encoding: 108 108 76
Width: 278
Flags: W
HStem: 0 14<20 35.75 244.25 260>
VStem: 97 86<80 577>
Fore
260 0 m 1
 20 0 l 1
 20 14 l 1
 83 18 97 37 97 80 c 2
 97 559 l 2
 97 633 89 624 20 624 c 1
 20 637 l 1
 68 647 138 665 183 682 c 1
 183 80 l 2
 183 37 197 18 260 14 c 1
 260 0 l 1
EndSplineSet
EndChar
StartChar: m
Encoding: 109 109 77
Width: 777
Flags: W
HStem: 0 14<14 25.75 212.25 224 283 294.75 481 493 553 565 751.25 763> 404 54<276 316 538 574>
VStem: 77 84<80 323> 346 84<80 325> 616 84<80 305>
Fore
763 0 m 1
 553 0 l 1
 553 14 l 1
 601 18 616 37 616 80 c 2
 616 283 l 2
 616 379 601 404 538 404 c 0
 492 404 453 381 430 344 c 1
 430 80 l 2
 430 37 445 18 493 14 c 1
 493 0 l 1
 283 0 l 1
 283 14 l 1
 330 18 346 37 346 80 c 2
 346 287 l 1
 347 339 343 404 276 404 c 0
 235 404 184 381 161 346 c 1
 161 80 l 2
 161 37 177 18 224 14 c 1
 224 0 l 1
 14 0 l 1
 14 14 l 1
 61 18 77 37 77 80 c 2
 77 323 l 1
 80 378 65 389 14 389 c 1
 14 406 l 1
 161 458 l 1
 161 392 l 2
 161 367 181 399 197 410 c 0
 230 436 272 458 316 458 c 0
 367 458 407 421 419 373 c 1
 456 415 518 458 574 458 c 0
 693 458 700 356 700 267 c 2
 700 80 l 2
 700 37 716 18 763 14 c 1
 763 0 l 1
EndSplineSet
EndChar
StartChar: n
Encoding: 110 110 78
Width: 499
Flags: W
HStem: 0 14<9 21 208 220 280 291.75 478 490> 404 54<266 310>
VStem: 72 85<80 347> 343 84<80 324>
Fore
490 0 m 1
 280 0 l 1
 280 14 l 1
 327 18 343 37 343 80 c 2
 343 295 l 2
 343 353 336 404 266 404 c 0
 218 404 183 373 157 347 c 1
 157 80 l 2
 157 37 172 18 220 14 c 1
 220 0 l 1
 9 0 l 1
 9 14 l 1
 57 18 72 37 72 80 c 2
 72 324 l 2
 72 401 63 399 9 396 c 1
 9 410 l 1
 157 458 l 1
 157 378 l 1
 194 416 240 458 310 458 c 0
 387 458 427 404 427 296 c 2
 427 80 l 2
 427 37 442 18 490 14 c 1
 490 0 l 1
EndSplineSet
EndChar
StartChar: o
Encoding: 111 111 79
Width: 499
Flags: W
HStem: -11 31<246 266> 427 31<231 248>
VStem: 31 92<218 272> 378 92<190 238>
Fore
470 238 m 0
 470 238 l 0
 470 108 384 -11 246 -11 c 0
 118 -11 31 97 31 218 c 0
 31 350 108 458 246 458 c 0
 378 458 470 369 470 238 c 0
378 190 m 0
 378 281 347 427 233 427 c 0
 160 427 123 359 123 272 c 0
 121 131 169 20 264 20 c 0
 343 20 378 104 378 190 c 0
EndSplineSet
EndChar
StartChar: p
Encoding: 112 112 80
Width: 499
Flags: W
HStem: -217 14<3 22 220.333 243> -11 34<251 265> 402 56<258 306>
VStem: 75 85<-137 344> 384 86<203 243>
Fore
470 243 m 0
 470 243 l 0
 470 109 382 -11 253 -11 c 0
 218 -11 183 9 160 35 c 1
 160 -137 l 2
 160 -181 175 -200 243 -203 c 1
 243 -217 l 1
 3 -217 l 1
 3 -203 l 1
 60 -200 75 -181 75 -137 c 2
 75 327 l 2
 75 384 75 404 3 396 c 1
 3 410 l 1
 160 458 l 1
 160 396 l 1
 158 373 163 392 186 413 c 0
 214 439 247 458 306 458 c 0
 416 458 470 359 470 243 c 0
384 203 m 0
 384 284 362 402 258 402 c 0
 229 402 200 389 180 369 c 1
 160 352 160 347 160 324 c 2
 160 103 l 2
 160 74 174 60 198 43 c 0
 217 31 240 23 263 23 c 0
 335 23 384 103 384 203 c 0
EndSplineSet
EndChar
StartChar: q
Encoding: 113 113 81
Width: 499
Flags: W
HStem: -217 14<257 279.333 478.333 498> -11 62<194 233> 433 25<231 266>
VStem: 25 86<214 244> 339 85<-137 60 102 439>
Fore
498 -217 m 1
 257 -217 l 1
 257 -203 l 1
 324 -200 339 -181 339 -137 c 2
 339 60 l 1
 296 23 249 -11 194 -11 c 0
 63 -11 25 111 25 214 c 0
 25 343 114 458 250 458 c 0
 290 458 327 447 359 425 c 1
 407 456 l 2
 424 465 424 450 424 439 c 2
 424 -137 l 2
 424 -181 439 -200 498 -203 c 1
 498 -217 l 1
339 140 m 2
 339 323 l 2
 339 370 343 399 293 424 c 0
 275 432 264 433 244 433 c 0
 146 433 111 327 111 244 c 0
 111 134 154 51 233 51 c 0
 264 51 300 61 324 81 c 0
 344 100 339 114 339 140 c 2
EndSplineSet
EndChar
StartChar: r
Encoding: 114 114 82
Width: 333
Flags: W
HStem: 0 14<5 20 225 240> 396 62<226 278>
VStem: 80 84<80 320>
Fore
333 392 m 0
 330 370 313 361 293 361 c 0
 258 361 250 396 226 396 c 0
 206 396 164 347 164 318 c 2
 164 80 l 2
 164 37 180 18 240 14 c 1
 240 0 l 1
 5 0 l 1
 5 14 l 1
 65 18 80 37 80 80 c 2
 80 298 l 2
 80 393 65 406 5 389 c 1
 5 404 l 1
 164 458 l 1
 164 367 l 1
 184 402 227 458 278 458 c 0
 316 458 339 435 333 392 c 0
EndSplineSet
EndChar
StartChar: s
Encoding: 115 115 83
Width: 388
Flags: W
HStem: -11 25<187 212> 435 23<178 202>
VStem: 51 63<335 370> 278 69<84 124>
Fore
347 124 m 0
 347 38 280 -11 200 -11 c 0
 170 -11 154 -3 127 5 c 0
 69 23 68 6 65 -3 c 1
 51 -3 l 1
 51 154 l 1
 68 154 l 1
 80 81 115 14 198 14 c 0
 241 14 278 40 278 84 c 0
 278 190 51 194 51 335 c 0
 51 413 117 458 190 458 c 0
 214 458 232 452 264 439 c 0
 298 429 300 444 303 449 c 1
 315 449 l 1
 315 313 l 1
 300 313 l 1
 281 382 257 435 189 435 c 0
 151 435 114 410 114 370 c 0
 114 270 347 250 347 124 c 0
EndSplineSet
EndChar
StartChar: t
Encoding: 116 116 84
Width: 278
Flags: W
HStem: 416 31<157 255>
VStem: 71 86<116 416>
Fore
280 68 m 1
 243 20 198 -11 151 -11 c 0
 84 -11 69 31 71 129 c 1
 71 416 l 1
 41 416 l 2
 29 416 6 410 15 430 c 1
 71 468 109 524 157 579 c 1
 157 447 l 1
 255 447 l 1
 255 416 l 1
 157 416 l 1
 157 146 l 2
 157 72 166 25 229 49 c 0
 244 55 257 68 266 80 c 1
 280 68 l 1
EndSplineSet
EndChar
StartChar: u
Encoding: 117 117 85
Width: 499
Flags: W
HStem: -11 59<189 232> 433 14<9 31.6631 260 286.452>
VStem: 72 85<118 390> 332 84<116 374>
Fore
479 37 m 1
 439 25 386 6 338 -11 c 1
 338 77 l 1
 316 54 l 2
 295 29 253 -11 189 -11 c 0
 109 -11 72 46 72 132 c 2
 72 361 l 2
 72 421 65 433 9 433 c 1
 9 447 l 1
 157 447 l 1
 157 137 l 2
 157 86 177 48 232 48 c 0
 260 48 289 63 310 80 c 0
 338 103 332 115 332 151 c 2
 332 359 l 2
 332 421 326 433 260 433 c 1
 260 447 l 1
 416 447 l 1
 416 120 l 2
 416 68 421 48 479 51 c 1
 479 37 l 1
EndSplineSet
EndChar
StartChar: v
Encoding: 118 118 86
Width: 499
Flags: W
HStem: 433 14<11 205.952 329 344.79 329 467>
DStem: 74 379 174 358 230 17 270 120 347 323 399 343 270 120 266 17
Fore
467 433 m 1
 430 433 418 390 399 343 c 1
 266 17 l 2
 263 9 253 -11 247 -11 c 0
 243 -11 233 9 230 17 c 2
 74 379 l 2
 58 416 34 433 11 433 c 1
 11 447 l 1
 206 447 l 1
 206 433 l 1
 143 433 160 395 174 358 c 1
 270 120 l 1
 347 323 l 2
 378 402 387 433 329 433 c 1
 329 447 l 1
 467 447 l 1
 467 433 l 1
EndSplineSet
MinimumDistance: x13,0 x6,9 
EndChar
StartChar: w
Encoding: 119 119 87
Width: 721
Flags: W
HStem: 433 14<22 32.8616 188 201 263 275.957 430 464 570 585.896>
DStem: 88 343 210 244 227 -3 260 117 350 310 372 267 260 117 244 -3 372 267 422 343 479 -3 507 123 590 323 647 370 507 123 496 -3
Fore
693 433 m 1
 667 424 656 387 647 370 c 1
 496 -3 l 2
 495 -6 492 -11 488 -11 c 0
 485 -11 482 -6 479 -3 c 1
 372 267 l 1
 244 -3 l 2
 243 -6 238 -11 235 -11 c 0
 232 -11 229 -6 227 -3 c 2
 88 343 l 1
 63 406 58 433 22 433 c 1
 22 447 l 1
 201 447 l 1
 201 433 l 1
 175 435 155 430 155 399 c 0
 155 375 200 270 210 244 c 2
 260 117 l 1
 350 310 l 1
 324 396 312 433 263 433 c 1
 263 447 l 1
 464 447 l 1
 464 433 l 1
 396 435 396 413 422 343 c 1
 507 123 l 1
 590 323 l 1
 622 402 628 433 570 433 c 1
 570 447 l 1
 693 447 l 1
 693 433 l 1
EndSplineSet
MinimumDistance: x25,0 
EndChar
StartChar: x
Encoding: 120 120 88
Width: 499
Flags: W
HStem: 0 14<17 28.9694 163 163 278 290.333 468.171 478.969> 433 14<25 232 276 432.969>
DStem: 204 230 221 197 97 77 149 84 221 197 269 270 324 49 390 84
Fore
479 0 m 1
 278 0 l 1
 278 14 l 1
 315 17 341 26 324 49 c 2
 221 197 l 1
 149 84 l 2
 111 25 111 14 163 14 c 1
 163 0 l 1
 17 0 l 1
 17 14 l 1
 54 14 71 40 97 77 c 2
 204 230 l 1
 118 362 l 1
 94 398 89 430 25 433 c 1
 25 447 l 1
 232 447 l 1
 232 433 l 1
 197 433 189 419 189 407 c 0
 189 392 238 318 249 301 c 1
 263 323 316 384 316 410 c 0
 316 430 290 433 276 433 c 1
 276 447 l 1
 433 447 l 1
 433 433 l 1
 396 433 366 407 346 379 c 2
 269 270 l 1
 390 84 l 2
 416 45 444 14 479 14 c 1
 479 0 l 1
EndSplineSet
MinimumDistance: x9,6 x2,27 
EndChar
StartChar: y
Encoding: 121 121 89
Width: 499
Flags: W
HStem: -217 100<83 103> 433 14<15 221 341 476>
DStem: 71 390 174 367 241 25 287 114
Fore
476 433 m 1
 456 433 433 399 424 376 c 2
 276 -8 l 2
 247 -83 203 -217 103 -217 c 0
 77 -217 51 -207 37 -184 c 1
 31 -169 28 -155 35 -140 c 0
 43 -123 65 -117 83 -117 c 0
 98 -117 120 -127 143 -134 c 0
 170 -140 194 -117 230 -23 c 0
 237 -8 246 14 241 25 c 2
 71 390 l 1
 60 416 45 430 15 433 c 1
 15 447 l 1
 221 447 l 1
 221 433 l 1
 154 433 154 410 174 367 c 2
 287 114 l 1
 386 392 l 1
 393 410 390 430 341 433 c 1
 341 447 l 1
 476 447 l 1
 476 433 l 1
EndSplineSet
MinimumDistance: x11,14 
EndChar
StartChar: z
Encoding: 122 122 90
Width: 443
Flags: W
HStem: 0 31<134 404> 416 31<57 293>
DStem: 293 416 404 433 25 14 134 31
Fore
418 135 m 1
 404 0 l 1
 25 0 l 1
 25 14 l 1
 293 416 l 1
 167 416 l 2
 81 416 77 384 71 330 c 1
 54 330 l 1
 57 447 l 1
 404 447 l 1
 404 433 l 1
 134 31 l 1
 260 31 l 2
 289 31 319 31 347 43 c 1
 387 54 390 106 399 140 c 1
 418 135 l 1
EndSplineSet
EndChar
StartChar: braceleft
Encoding: 123 123 91
Width: 479
Flags: W
VStem: 186 72<-45 145 363 561>
Fore
341 -164 m 1
 227 -167 186 -140 186 -17 c 2
 186 143 l 2
 186 209 177 240 111 257 c 1
 172 275 186 307 186 370 c 2
 186 544 l 2
 186 662 241 682 341 682 c 1
 276 665 258 627 258 559 c 2
 258 384 l 2
 258 313 246 275 177 257 c 1
 249 238 258 194 258 121 c 2
 258 -43 l 2
 258 -111 278 -152 341 -164 c 1
EndSplineSet
EndChar
StartChar: bar
Encoding: 124 124 92
Width: 199
Flags: W
HStem: 0 21G<68 132>
VStem: 68 64<0 682>
Fore
132 0 m 1
 68 0 l 1
 68 682 l 1
 132 682 l 1
 132 0 l 1
EndSplineSet
EndChar
StartChar: braceright
Encoding: 125 125 93
Width: 479
Flags: W
VStem: 223 70<-45 157 363 561>
Fore
370 257 m 1
 304 240 293 209 293 143 c 2
 293 -17 l 2
 293 -140 252 -167 140 -164 c 1
 203 -152 223 -111 223 -43 c 2
 223 121 l 2
 223 194 230 238 303 257 c 1
 233 275 223 313 223 384 c 2
 223 559 l 2
 223 627 204 665 140 682 c 1
 240 682 293 662 293 544 c 2
 293 370 l 2
 293 307 307 275 370 257 c 1
EndSplineSet
EndChar
StartChar: asciitilde
Encoding: 126 126 94
Width: 540
Flags: W
HStem: 198 63<381 393.352> 267 65<146.62 161>
Fore
522 307 m 1
 493 253 445 198 381 198 c 0
 304 198 229 267 160 267 c 0
 104 267 77 217 54 177 c 1
 18 217 l 1
 49 270 89 332 160 332 c 0
 229 332 329 261 382 261 c 0
 427 261 467 309 487 347 c 1
 522 307 l 1
EndSplineSet
EndChar
StartChar: uni0E10.descless
Encoding: 128 63232 95
Width: 508
Flags: W
HStem: -8 43<292 301> 190 39<127.864 141> 319 39<127.864 141>
VStem: 178 75<90.8482 198> 330 77<77 334>
DStem: 28 439 81 472 301 370 358 401
Fore
452 571 m 0
 452 571 l 0
 419 461 309 490 290 496 c 0
 151 541 108 536 81 472 c 1
 358 401 l 1
 373 393 407 392 407 332 c 2
 407 106 l 2
 407 41 370 -8 292 -8 c 0
 227 -8 178 45 178 106 c 2
 178 198 l 1
 166 192 154 190 138 190 c 0
 84 190 52 232 54 280 c 1
 58 324 89 358 138 358 c 0
 218 359 253 319 253 270 c 2
 253 78 l 2
 253 58 266 35 292 35 c 0
 318 35 330 58 330 77 c 2
 330 321 l 2
 330 353 324 364 301 370 c 2
 28 439 l 1
 40 478 74 598 184 594 c 0
 252 594 386 527 438 582 c 0
 447 591 456 587 452 571 c 0
138 229 m 0
 198 229 198 319 138 319 c 0
 80 319 80 229 138 229 c 0
EndSplineSet
KernsSLIF: 209 46 0 0 213 46 0 0 214 46 0 0 215 46 0 0 212 46 0 0
EndChar
StartChar: uni0E34.left
Encoding: 129 63233 96
Width: 0
Flags: W
Fore
-255 654 m 4
 -255 654 l 0
 -280 667 -402 722 -475 731 c 0
 -573 746 -659 733 -677 728 c 1
 -650 834 -564 900 -461 892 c 0
 -347 885 -263 796 -255 654 c 4
-307 719 m 1
 -339 803 -390 834 -464 843 c 0
 -527 851 -582 820 -605 779 c 1
 -605 779 -533 785 -464 773 c 0
 -370 756 -307 719 -307 719 c 1
EndSplineSet
EndChar
StartChar: uni0E35.left
Encoding: 130 63234 97
Width: 0
Flags: W
VStem: -347 67<852 951>
Fore
-255 654 m 0
 -255 654 l 0
 -280 667 -402 720 -475 731 c 0
 -576 746 -659 733 -677 728 c 1
 -656 820 -573 900 -470 892 c 0
 -435 891 -389 883 -347 852 c 1
 -347 951 l 1
 -280 951 l 5
 -280 762 l 1
 -280 762 -260 720 -255 654 c 0
-307 719 m 1
 -339 803 -390 834 -464 843 c 0
 -527 851 -582 820 -605 779 c 1
 -605 779 -533 785 -464 773 c 0
 -370 756 -307 719 -307 719 c 1
EndSplineSet
EndChar
StartChar: uni0E36.left
Encoding: 131 63235 98
Width: 0
Flags: W
HStem: 905 41<-326 -308>
Fore
-318 822 m 0
 -318 822 l 0
 -264 822 -264 905 -318 905 c 0
 -370 905 -370 822 -318 822 c 0
-307 719 m 1
 -307 719 l 0
 -339 803 -390 834 -464 843 c 0
 -527 851 -582 820 -605 779 c 1
 -605 779 -533 785 -464 773 c 0
 -370 756 -307 719 -307 719 c 1
-255 654 m 1
 -280 667 -402 720 -475 731 c 0
 -576 746 -659 733 -677 728 c 1
 -656 822 -568 900 -467 892 c 0
 -425 889 -396 877 -396 877 c 1
 -398 908 -369 946 -315 946 c 0
 -267 946 -233 908 -233 865 c 0
 -233 829 -253 791 -290 783 c 1
 -290 783 -258 733 -255 654 c 1
EndSplineSet
EndChar
StartChar: uni0E37.left
Encoding: 132 63236 99
Width: 0
Flags: W
VStem: -343 59<845 950.631>
Fore
-255 654 m 0
 -255 654 l 0
 -280 667 -402 720 -475 731 c 0
 -576 746 -659 733 -677 728 c 1
 -647 851 -541 902 -464 889 c 1
 -462 951 l 1
 -407 951 l 1
 -406 877 l 1
 -372 869 -343 845 -343 845 c 1
 -343 951 l 1
 -284 951 l 1
 -281 763 l 5
 -281 763 -258 723 -255 654 c 0
-307 719 m 1
 -339 803 -390 834 -464 843 c 0
 -527 851 -582 820 -605 779 c 1
 -605 779 -533 785 -464 773 c 0
 -370 756 -307 719 -307 719 c 1
EndSplineSet
EndChar
StartChar: ellipsis
Encoding: 133 8230 100
Width: 998
Flags: W
VStem: 111 113<34.0186 51> 442 116<34.2818 51> 776 113<34.0186 51>
CounterMasks: 1 00
Fore
889 45 m 0
 889 45 l 0
 889 12 863 -14 831 -14 c 0
 800 -14 776 14 776 45 c 0
 776 74 802 101 831 101 c 0
 862 101 889 75 889 45 c 0
558 45 m 0
 558 45 l 0
 558 12 530 -14 499 -14 c 0
 467 -14 442 14 442 45 c 0
 442 74 468 101 499 101 c 0
 530 101 558 75 558 45 c 0
224 45 m 0
 224 12 198 -14 166 -14 c 0
 135 -14 111 14 111 45 c 0
 111 74 137 101 166 101 c 0
 197 101 224 75 224 45 c 0
EndSplineSet
EndChar
StartChar: uni0E48.low_left
Encoding: 134 63237 101
Width: 0
Flags: W
Fore
-275 926 m 1
 -290 685 l 1
 -341 685 l 1
 -356 926 l 1
 -275 926 l 1
EndSplineSet
EndChar
StartChar: uni0E49.low_left
Encoding: 135 63238 102
Width: 0
Flags: W
HStem: 776 35<-548 -540> 902 35<-548 -540>
Fore
-229 931 m 1
 -229 931 l 0
 -275 637 -571 667 -602 670 c 1
 -602 703 l 1
 -593 707 -538 734 -519 780 c 1
 -519 780 -528 776 -544 776 c 0
 -654 776 -654 937 -544 937 c 0
 -458 937 -455 857 -455 857 c 1
 -455 765 -516 716 -516 716 c 1
 -515 714 l 1
 -452 723 -319 766 -310 931 c 1
 -229 931 l 1
-542 811 m 0
 -482 811 -482 902 -542 902 c 0
 -604 902 -604 811 -542 811 c 0
EndSplineSet
EndChar
StartChar: uni0E4A.low_left
Encoding: 136 63239 103
Width: 0
Flags: W
VStem: -650 62<733 793> -513 31<726 739>
Fore
-246 906 m 1
 -246 906 l 0
 -238 768 -309 684 -436 670 c 1
 -436 694 l 1
 -381 728 -387 836 -438 849 c 1
 -495 811 l 1
 -548 849 l 1
 -585 849 -613 806 -607 768 c 1
 -607 768 -598 800 -548 800 c 0
 -510 800 -482 770 -482 737 c 0
 -482 697 -505 667 -548 667 c 0
 -611 667 -650 720 -650 793 c 0
 -650 843 -601 903 -548 903 c 1
 -548 903 -495 857 -493 857 c 2
 -439 902 l 1
 -324 872 -344 771 -366 728 c 1
 -309 766 -293 834 -310 906 c 1
 -246 906 l 1
-513 733 m 0
 -513 783 -588 783 -588 733 c 0
 -588 684 -513 684 -513 733 c 0
EndSplineSet
EndChar
StartChar: uni0E4B.low_left
Encoding: 137 63240 104
Width: 0
Flags: W
HStem: 776 58<-522 -407 -346 -233>
VStem: -410 64<836 935>
DStem: -409 836 -346 836 -522 834 -233 834
Fore
-233 777 m 1
 -347 776 l 1
 -349 676 l 1
 -406 676 l 1
 -407 776 l 1
 -522 777 l 1
 -522 834 l 1
 -409 836 l 1
 -410 935 l 1
 -344 935 l 1
 -346 836 l 1
 -233 834 l 1
 -233 777 l 1
EndSplineSet
MinimumDistance: x8,9 
EndChar
StartChar: uni0E4C.low_left
Encoding: 138 63241 105
Width: 0
Flags: W
HStem: 670 33<-433 -431>
Fore
-226 954 m 1
 -226 954 l 0
 -237 846 -366 823 -398 817 c 2
 -399 816 l 1
 -370 811 -353 777 -353 748 c 0
 -353 707 -384 670 -433 670 c 0
 -482 670 -515 707 -515 748 c 0
 -515 786 -502 831 -399 860 c 0
 -350 876 -295 906 -298 968 c 1
 -226 954 l 1
-433 703 m 0
 -375 703 -375 788 -433 788 c 0
 -492 788 -492 703 -433 703 c 0
EndSplineSet
EndChar
StartChar: uni0E48.low
Encoding: 139 63242 106
Width: 0
Flags: W
AnchorPoint: "AboveBase" -105.984 645.12 mark 0
Fore
-95 914 m 1
 -112 670 l 1
 -170 670 l 1
 -187 914 l 1
 -95 914 l 1
EndSplineSet
Substitution: 0 65534 'amni' uni0E4D
EndChar
StartChar: uni0E49.low
Encoding: 140 63243 107
Width: 0
Flags: W
HStem: 776 37<-307 -303> 919 36<-307 -303>
AnchorPoint: "AboveBase" -105.984 645.12 mark 0
Fore
20 952 m 1
 20 952 l 0
 -11 636 -330 667 -364 670 c 1
 -364 705 l 1
 -355 708 -298 733 -278 780 c 1
 -278 780 l 1
 -278 780 -290 776 -307 776 c 0
 -430 776 -430 955 -307 955 c 0
 -212 955 -210 868 -210 866 c 0
 -210 765 -278 716 -278 716 c 1
 -276 716 l 1
 -276 716 -69 722 -61 952 c 1
 20 952 l 1
-307 813 m 0
 -235 813 -235 919 -307 919 c 0
 -376 919 -376 813 -307 813 c 0
EndSplineSet
Substitution: 0 65534 'amni' uni0E4D
EndChar
StartChar: uni0E4A.low
Encoding: 141 63244 108
Width: 0
Flags: W
HStem: 876 56<-356 -349>
VStem: -461 66<739 809> -312 34<731 749>
AnchorPoint: "AboveBase" -105.984 645.12 mark 0
Fore
8 926 m 1
 8 926 l 0
 9 799 -65 691 -223 670 c 1
 -223 699 l 1
 -160 737 -166 859 -224 876 c 1
 -289 831 l 1
 -296 836 -352 876 -352 876 c 1
 -392 876 -427 816 -416 777 c 1
 -415 777 l 1
 -415 777 -404 814 -352 814 c 0
 -312 814 -278 782 -278 745 c 0
 -278 702 -304 668 -352 668 c 0
 -422 668 -461 733 -461 809 c 0
 -461 862 -409 931 -349 932 c 1
 -347 931 -289 883 -287 883 c 2
 -227 932 l 1
 -72 888 -143 739 -143 739 c 1
 -141 739 l 2
 -91 770 -49 852 -68 926 c 1
 8 926 l 1
-312 739 m 0
 -312 796 -395 796 -395 739 c 0
 -395 685 -312 685 -312 739 c 0
EndSplineSet
Substitution: 0 65534 'amni' uni0E4D
EndChar
StartChar: uni0E4B.low
Encoding: 142 63245 109
Width: 0
Flags: W
HStem: 777 62<-289 -175 -111 0>
VStem: -178 67<840 942>
DStem: -177 840 -111 840 -289 839 0 839
AnchorPoint: "AboveBase" -105.984 645.12 mark 0
Fore
0 779 m 1
 -112 777 l 1
 -114 677 l 1
 -174 677 l 1
 -175 777 l 1
 -289 779 l 1
 -289 839 l 1
 -177 840 l 1
 -178 942 l 1
 -109 942 l 1
 -111 840 l 1
 0 839 l 1
 0 779 l 1
EndSplineSet
MinimumDistance: x8,9 
Substitution: 0 65534 'amni' uni0E4D
EndChar
StartChar: uni0E4C.low
Encoding: 143 63246 110
Width: 0
Flags: W
HStem: 668 39<-207 -198>
AnchorPoint: "AboveBase" -105.984 645.12 mark 0
Fore
0 949 m 1
 0 949 l 0
 -23 854 -137 833 -172 826 c 2
 -175 825 l 1
 -138 819 -123 782 -123 751 c 0
 -123 707 -157 668 -207 668 c 0
 -266 668 -295 707 -295 754 c 0
 -295 793 -283 837 -178 871 c 0
 -126 888 -83 917 -72 971 c 1
 0 949 l 1
-207 707 m 0
 -151 707 -151 794 -207 794 c 0
 -269 794 -269 707 -207 707 c 0
EndSplineSet
EndChar
StartChar: uni0E0D.descless
Encoding: 144 63247 111
Width: 797
Flags: W
HStem: -5 37<528.353 544> 393 45<94 129 94 264>
VStem: 46 218<393 411.927> 95 79<112 343> 393 77<101 415> 616 77<101 530>
Fore
693 108 m 1xec
 693 108 l 0
 693 55 628 -5 541 -5 c 0
 455 -5 393 51 393 115 c 2
 393 409 l 2
 393 605 132 590 94 438 c 1
 264 438 l 1
 264 393 l 1xec
 253 393 218 393 217 393 c 0
 172 393 174 343 174 343 c 1
 174 339 174 158 174 158 c 1
 315 206 341 2 212 -5 c 0
 114 -9 95 72 95 112 c 2
 95 333 l 2xdc
 95 379 129 393 129 393 c 1
 46 393 l 1
 49 648 455 677 470 415 c 1
 470 104 l 2
 470 65 498 32 541 32 c 0
 588 32 616 63 616 103 c 2
 616 530 l 1
 665 588 l 1
 676 596 693 602 693 567 c 0
 693 565 693 108 693 108 c 1xec
212 35 m 0
 272 35 272 124 212 124 c 0
 152 124 152 35 212 35 c 0
EndSplineSet
EndChar
StartChar: quoteleft
Encoding: 145 8216 112
Width: 333
Flags: W
VStem: 86 52<565 588>
Fore
243 524 m 0
 243 482 218 456 175 456 c 0
 112 456 86 515 86 565 c 0
 86 630 151 700 212 728 c 1
 226 700 l 1
 189 679 138 624 138 588 c 0
 138 582 137 578 143 578 c 0
 151 578 160 587 180 585 c 0
 214 584 243 561 243 524 c 0
EndSplineSet
EndChar
StartChar: quoteright
Encoding: 146 8217 113
Width: 333
Flags: W
VStem: 194 52<594 617>
Fore
89 659 m 0
 89 700 114 727 157 727 c 0
 220 727 246 668 246 617 c 0
 246 553 181 482 120 455 c 1
 106 482 l 1
 143 504 194 559 194 594 c 0
 194 601 195 605 189 605 c 0
 181 605 172 596 152 598 c 0
 118 599 89 622 89 659 c 0
EndSplineSet
EndChar
StartChar: quotedblleft
Encoding: 147 8220 114
Width: 473
Flags: W
VStem: 25 52<565 588> 272 52<565 588>
Fore
429 524 m 0
 429 524 l 0
 429 482 404 456 361 456 c 0
 298 456 272 515 272 565 c 0
 272 630 336 700 398 728 c 1
 412 700 l 1
 375 679 324 624 324 588 c 0
 324 582 323 578 329 578 c 0
 336 578 346 587 366 585 c 0
 399 584 429 561 429 524 c 0
181 524 m 0
 181 482 157 456 114 456 c 0
 51 456 25 515 25 565 c 0
 25 630 89 700 151 728 c 1
 164 700 l 1
 127 679 77 624 77 588 c 0
 77 582 75 578 81 578 c 0
 89 578 98 587 118 585 c 0
 152 584 181 561 181 524 c 0
EndSplineSet
EndChar
StartChar: quotedblright
Encoding: 148 8221 115
Width: 473
Flags: W
VStem: 43 157<617 659> 147 53<594 617> 290 157<617 659> 395 52<594 617>
Fore
43 659 m 0x80
 43 659 l 0
 43 700 68 727 111 727 c 0
 174 727 200 668 200 617 c 0x80
 200 553 135 482 74 455 c 1
 60 482 l 1
 97 504 147 559 147 594 c 0x40
 147 601 149 605 143 605 c 0
 135 605 126 596 106 598 c 0
 72 599 43 622 43 659 c 0x80
290 659 m 0x20
 290 700 315 727 358 727 c 0
 421 727 447 668 447 617 c 0x20
 447 553 382 482 321 455 c 1
 307 482 l 1
 344 504 395 559 395 594 c 0x10
 395 601 396 605 390 605 c 0
 382 605 373 596 353 598 c 0
 319 599 290 622 290 659 c 0x20
EndSplineSet
EndChar
StartChar: bullet
Encoding: 149 8226 116
Width: 385
Flags: W
HStem: 430 20G<156 229>
Fore
323 319 m 0
 323 247 266 189 192 189 c 0
 121 189 63 247 63 319 c 0
 61 392 120 450 192 450 c 0
 266 450 323 392 323 319 c 0
EndSplineSet
EndChar
StartChar: endash
Encoding: 150 8211 117
Width: 768
Flags: W
HStem: 214 47<34 734>
Fore
734 214 m 1
 34 214 l 1
 34 261 l 1
 734 261 l 1
 734 214 l 1
EndSplineSet
EndChar
StartChar: emdash
Encoding: 151 8212 118
Width: 1536
Flags: W
HStem: 214 47<22 1514>
Fore
1514 214 m 1
 22 214 l 1
 22 261 l 1
 1514 261 l 1
 1514 214 l 1
EndSplineSet
EndChar
StartChar: uni0E31.left
Encoding: 152 63248 119
Width: 0
Flags: W
HStem: 871 41<-406 -402>
Fore
66 908 m 1
 66 908 l 0
 -3 628 -435 616 -490 800 c 0
 -505 854 -472 911 -404 912 c 0
 -364 914 -329 892 -318 851 c 0
 -298 774 -362 745 -362 745 c 1
 -170 682 -31 816 -22 908 c 1
 66 908 l 1
-402 780 m 0
 -343 780 -343 871 -402 871 c 0
 -464 871 -464 780 -402 780 c 0
EndSplineSet
EndChar
StartChar: uni0E4D.left
Encoding: 153 63249 120
Width: 0
Flags: W
HStem: 676 41<-361.677 -347> 820 43<-361.677 -347>
Fore
-350 676 m 0
 -350 676 l 0
 -475 676 -475 863 -350 863 c 0
 -227 863 -224 676 -350 676 c 0
-350 717 m 0
 -281 717 -281 820 -350 820 c 0
 -421 820 -421 717 -350 717 c 0
EndSplineSet
EndChar
StartChar: uni0E47.left
Encoding: 154 63250 121
Width: 0
Flags: W
HStem: 745 55<-494 -484>
VStem: -393 34<743 755> -283 36<745 755>
Fore
-235 995 m 1
 -235 995 l 0
 -235 895 -284 837 -442 868 c 0
 -508 880 -553 882 -564 822 c 0
 -570 794 -561 763 -553 753 c 1
 -553 753 -544 800 -492 800 c 0
 -439 800 -416 746 -390 734 c 1
 -390 734 -393 740 -393 748 c 0
 -393 845 -247 843 -247 745 c 0
 -247 693 -287 668 -319 668 c 0
 -419 668 -433 745 -484 745 c 0
 -536 745 -528 684 -515 668 c 1
 -551 668 l 1
 -593 702 -627 773 -608 846 c 0
 -598 891 -553 952 -427 923 c 0
 -344 905 -301 911 -306 995 c 1
 -235 995 l 1
-283 745 m 0
 -283 797 -359 797 -359 745 c 0
 -359 696 -283 696 -283 745 c 0
EndSplineSet
EndChar
StartChar: uni0E48.left
Encoding: 155 63251 122
Width: 0
Flags: W
Fore
-276 1226 m 1
 -289 1006 l 1
 -343 1006 l 1
 -355 1226 l 1
 -276 1226 l 1
EndSplineSet
EndChar
StartChar: uni0E49.left
Encoding: 156 63252 123
Width: 0
Flags: W
HStem: 1078 33<-375 -373> 1195 34<-375 -373>
Fore
-77 1229 m 1
 -77 1229 l 0
 -104 1052 -252 975 -436 997 c 1
 -436 1026 l 1
 -410 1034 -379 1049 -362 1081 c 1
 -362 1081 -370 1078 -375 1078 c 0
 -481 1078 -481 1229 -375 1229 c 0
 -296 1229 -295 1154 -295 1154 c 1
 -295 1072 -352 1035 -352 1035 c 1
 -352 1032 l 1
 -244 1038 -161 1098 -152 1229 c 1
 -77 1229 l 1
-375 1111 m 0
 -319 1111 -319 1195 -375 1195 c 0
 -435 1195 -435 1111 -375 1111 c 0
EndSplineSet
EndChar
StartChar: uni0E4A.left
Encoding: 157 63253 124
Width: 0
Flags: W
VStem: -484 62<1058 1118> -347 31<1052 1065>
Fore
-80 1229 m 1
 -80 1229 l 0
 -72 1091 -149 1012 -270 995 c 1
 -270 1020 l 1
 -215 1054 -221 1161 -272 1175 c 1
 -329 1137 l 1
 -382 1175 l 1
 -419 1175 -447 1132 -441 1094 c 1
 -441 1094 -432 1126 -382 1126 c 0
 -344 1126 -316 1095 -316 1063 c 0
 -316 1023 -339 994 -382 994 c 0
 -445 994 -484 1046 -484 1118 c 0
 -484 1169 -435 1229 -382 1229 c 1
 -382 1229 -329 1183 -327 1183 c 2
 -273 1229 l 1
 -158 1200 -178 1097 -200 1054 c 1
 -143 1092 -127 1157 -144 1229 c 1
 -80 1229 l 1
-347 1058 m 0
 -347 1109 -422 1109 -422 1058 c 0
 -422 1011 -347 1011 -347 1058 c 0
EndSplineSet
EndChar
StartChar: uni0E4B.left
Encoding: 158 63254 125
Width: 0
Flags: W
HStem: 1080 58<-452 -344 -283 -180>
VStem: -347 64<1140 1229>
DStem: -346 1140 -283 1140 -452 1138 -180 1138
Fore
-180 1081 m 1
 -284 1080 l 1
 -286 992 l 1
 -343 992 l 1
 -344 1080 l 1
 -452 1081 l 1
 -452 1138 l 1
 -346 1140 l 1
 -347 1229 l 1
 -281 1229 l 1
 -283 1140 l 1
 -180 1138 l 1
 -180 1081 l 1
EndSplineSet
MinimumDistance: x8,9 
EndChar
StartChar: uni0E4C.left
Encoding: 159 63255 126
Width: 0
Flags: W
HStem: 923 29<-326.187 -313>
Fore
-100 1164 m 1
 -100 1164 l 0
 -134 1064 -289 1063 -281 1060 c 0
 -215 1031 -233 923 -315 923 c 0
 -364 923 -393 954 -393 997 c 0
 -393 1057 -346 1091 -275 1103 c 0
 -249 1107 -166 1140 -163 1193 c 1
 -100 1164 l 1
-316 952 m 0
 -260 952 -260 1035 -316 1035 c 0
 -372 1035 -372 952 -316 952 c 0
EndSplineSet
EndChar
StartChar: uni0E01
Encoding: 161 3585 128
Width: 602
Flags: W
HStem: 0 21G<95 175 422 499> 392 44<97 267>
VStem: 95 80<0 341> 422 77<0 413>
Fore
499 0 m 1
 422 0 l 1
 422 407 l 2
 422 601 140 584 97 436 c 1
 267 436 l 1
 267 392 l 1
 257 392 220 392 218 392 c 0
 175 392 175 341 175 341 c 1
 175 0 l 1
 95 0 l 1
 95 324 l 2
 95 373 129 392 129 392 c 1
 45 392 l 1
 45 650 484 677 499 413 c 1
 499 0 l 1
EndSplineSet
EndChar
StartChar: uni0E02
Encoding: 162 3586 129
Width: 585
Flags: W
HStem: -8 43<349.563 365> 319 33<119 125> 438 34<110.973 126> 547 51<155 172>
VStem: 235 80<90.4771 468> 404 78<77 530>
Fore
482 106 m 1
 482 106 l 0
 482 40 439 -8 359 -8 c 0
 287 -8 235 41 235 106 c 2
 235 453 l 2
 235 505 209 547 160 547 c 0
 108 547 72 513 71 453 c 1
 89 468 98 472 121 472 c 0
 227 470 221 319 123 319 c 0
 43 319 23 407 28 468 c 0
 34 539 83 598 170 598 c 0
 263 598 315 531 315 449 c 2
 315 78 l 2
 315 57 333 35 359 35 c 0
 384 35 404 58 404 77 c 2
 404 530 l 1
 453 588 l 1
 464 596 482 602 482 567 c 0
 482 565 482 106 482 106 c 1
121 352 m 0
 178 352 178 438 121 438 c 0
 65 438 65 352 121 352 c 0
EndSplineSet
EndChar
StartChar: uni0E03
Encoding: 163 3587 130
Width: 634
Flags: W
HStem: -8 43<407 409> 280 32<112 119> 399 34<117 119>
VStem: 283 79<91.2782 461> 452 78<77 530>
DStem: 114 524 114 593 184 452 184 515 258 591 257 524 184 515 184 452 286 461 366 461 283 106 362 78
Fore
530 106 m 1
 530 106 l 0
 530 40 487 -8 407 -8 c 0
 335 -8 283 45 283 106 c 1
 286 461 l 1
 286 495 278 524 257 524 c 1
 184 452 l 1
 114 524 l 1
 83 524 60 482 68 413 c 1
 68 413 81 433 117 433 c 0
 221 433 220 280 115 280 c 0
 28 280 11 390 22 470 c 0
 32 545 74 581 114 593 c 1
 184 515 l 1
 258 591 l 1
 324 587 366 536 366 461 c 1
 362 78 l 1
 362 57 378 35 407 35 c 0
 435 35 452 58 452 77 c 2
 452 530 l 1
 501 588 l 1
 511 596 530 602 530 567 c 0
 530 565 530 106 530 106 c 1
117 312 m 0
 177 312 177 399 117 399 c 0
 58 399 61 312 117 312 c 0
EndSplineSet
EndChar
StartChar: uni0E04
Encoding: 164 3588 131
Width: 589
Flags: W
HStem: 0 21G<101 180 412 488> 273 36<244 260> 407 37<244 260> 553 46<226 260>
VStem: 35 46<413 427.077> 101 -20<224 413> 101 79<0 231> 412 76<0 417>
Fore
255 309 m 0
 255 309 l 0
 323 309 323 407 255 407 c 0
 189 407 189 309 255 309 c 0
124 321 m 1
 135 376 169 444 252 444 c 0
 369 444 369 273 250 273 c 0
 212 273 190 301 190 301 c 1
 181 280 180 246 180 229 c 2
 180 0 l 1
 101 0 l 1
 101 224 l 2
 101 266 35 310 35 413 c 0
 35 519 129 599 247 599 c 4
 372 599 488 554 488 401 c 2
 488 0 l 1
 412 0 l 1
 412 401 l 2
 412 521 336 553 246 553 c 0
 149 553 81 479 81 413 c 0
 81 369 95 335 124 321 c 1
EndSplineSet
EndChar
StartChar: uni0E05
Encoding: 165 3589 132
Width: 588
Flags: W
HStem: 0 21G<101 180 410 487> 273 36<248 261> 407 37<248 261>
VStem: 35 48<413 429.397> 101 -18<229 413> 101 79<0 240> 410 77<0 417>
DStem: 166 538 170 594 258 468 258 524 344 594 347 538 258 524 258 468
Fore
487 0 m 1
 410 0 l 1
 410 399 l 2
 410 458 413 504 347 538 c 1
 258 468 l 1
 166 538 l 1
 131 528 83 479 83 413 c 0
 83 366 100 335 126 321 c 1
 138 390 169 444 252 444 c 0
 369 444 369 273 250 273 c 0
 215 273 195 295 195 295 c 1
 184 287 180 267 180 240 c 2
 180 0 l 1
 101 0 l 1
 101 229 l 2
 101 272 35 316 35 413 c 0
 35 530 127 581 170 594 c 1
 258 524 l 1
 344 594 l 1
 381 588 487 551 487 399 c 2
 487 0 l 1
255 309 m 0
 323 309 323 407 255 407 c 0
 189 407 189 309 255 309 c 0
EndSplineSet
EndChar
StartChar: uni0E06
Encoding: 166 3590 133
Width: 757
Flags: W
HStem: 0 21G<570 651> 280 32<116 123> 399 34<121 123>
VStem: 287 82<68 141 198 461> 574 77<77 527>
DStem: 118 524 118 593 189 452 189 515 263 591 261 524 189 515 189 452 290 461 370 461 287 198 367 190
Fore
287 68 m 0
 287 144 l 0
 226 149 217 75 246 51 c 1
 257 45 290 40 287 68 c 0
290 461 m 1
 290 461 l 0
 290 495 283 524 261 524 c 1
 189 452 l 1
 118 524 l 1
 88 524 65 482 72 413 c 1
 72 413 86 433 121 433 c 0
 226 433 224 280 120 280 c 0
 32 280 15 390 26 470 c 0
 37 545 78 581 118 593 c 1
 189 515 l 1
 263 591 l 1
 329 587 370 536 370 461 c 1
 367 190 l 1
 367 190 499 170 574 77 c 1
 574 527 l 1
 624 585 l 1
 633 593 653 599 651 564 c 0
 651 562 651 45 651 0 c 1
 570 0 l 1
 492 134 369 141 369 141 c 1
 370 57 370 -8 284 -8 c 0
 146 -9 155 200 287 198 c 1
 290 461 l 1
121 312 m 0
 181 312 181 399 121 399 c 0
 63 399 66 312 121 312 c 0
EndSplineSet
EndChar
StartChar: uni0E07
Encoding: 167 3591 134
Width: 479
Flags: W
HStem: 0 21G<295 378> 418 37<251 264> 556 38<251 264>
VStem: 298 80<98 432>
Fore
378 0 m 1
 295 0 l 1
 46 269 l 1
 48 326 l 1
 298 98 l 1
 298 432 l 1
 287 419 270 418 257 418 c 0
 131 418 131 594 264 594 c 0
 386 594 378 501 378 488 c 0
 378 487 378 0 378 0 c 1
253 455 m 0
 323 455 323 556 253 556 c 0
 184 556 184 455 253 455 c 0
EndSplineSet
EndChar
StartChar: uni0E08
Encoding: 168 3592 135
Width: 565
Flags: W
HStem: -5 43<338 340> 276 40<178 186> 406 41<175 186> 544 54<243 257>
VStem: 215 78<94.881 286> 382 80<80 428>
Fore
462 109 m 1
 462 109 l 0
 462 43 418 -5 338 -5 c 0
 272 -5 215 48 215 109 c 2
 215 286 l 1
 203 280 192 276 178 276 c 0
 123 276 92 321 94 367 c 0
 97 413 131 447 184 447 c 0
 269 449 293 402 293 355 c 2
 293 81 l 2
 293 60 310 38 338 38 c 0
 367 38 382 61 382 80 c 2
 382 419 l 2
 382 495 324 544 243 544 c 0
 134 544 75 464 65 439 c 1
 32 453 l 1
 54 508 131 598 243 598 c 0
 375 598 462 533 462 413 c 2
 462 109 l 1
178 316 m 0
 238 316 238 406 178 406 c 0
 118 406 118 316 178 316 c 0
EndSplineSet
EndChar
StartChar: uni0E09
Encoding: 169 3593 136
Width: 615
Flags: W
HStem: -8 40<467 469>
VStem: 177 76<0 292> 432 78<172 425>
Fore
510 181 m 0
 510 181 l 0
 510 169 495 164 495 164 c 1
 495 161 l 1
 578 141 578 -8 467 -8 c 0
 427 -8 399 15 387 54 c 0
 375 94 401 127 401 127 c 1
 292 106 257 14 252 0 c 1
 177 0 l 1
 177 240 l 1
 34 194 2 395 135 404 c 0
 227 410 253 361 253 292 c 2
 253 91 l 1
 260 89 l 1
 260 89 300 166 432 172 c 1
 432 415 l 2
 432 490 366 544 270 544 c 0
 164 544 92 464 80 439 c 1
 48 453 l 1
 158 677 510 622 510 416 c 2
 510 416 510 183 510 181 c 0
137 272 m 0
 137 272 l 0
 197 272 197 364 137 364 c 0
 77 364 77 272 137 272 c 0
467 32 m 0
 530 32 530 121 467 121 c 0
 407 121 407 32 467 32 c 0
EndSplineSet
EndChar
StartChar: uni0E0A
Encoding: 170 3594 137
Width: 583
Flags: W
HStem: 0 49<169 369> 319 33<119 125> 438 34<110.258 124> 547 49<150 167>
VStem: 233 80<49 398 450 453> 233 166<421 421.272>
Fore
538 591 m 1xf8
 538 591 l 0
 504 447 399 421 399 421 c 1xf4
 524 387 528 -2 369 0 c 2
 169 0 l 1
 169 49 l 1
 233 49 l 1
 233 453 l 2
 233 502 214 547 152 547 c 0
 95 547 65 493 71 450 c 1
 83 467 101 472 123 472 c 0
 224 468 220 319 123 319 c 0
 49 319 20 393 26 465 c 0
 32 539 81 596 167 596 c 4
 316 596 313 450 313 450 c 1
 406 445 450 531 452 591 c 1
 538 591 l 1xf8
121 352 m 0
 121 352 l 0
 177 352 177 438 121 438 c 0
 61 438 61 352 121 352 c 0
367 387 m 1
 350 396 329 399 313 398 c 1
 313 49 l 1xf8
 355 49 l 2
 441 49 441 335 367 387 c 1
EndSplineSet
EndChar
StartChar: uni0E0B
Encoding: 171 3595 138
Width: 649
Flags: W
HStem: 0 49<223 421> 280 32<116 123> 399 34<121 123>
VStem: 286 80<49 399> 286 166<422 422.328> 290 80<461 480.753>
DStem: 118 524 118 593 189 452 189 515 263 591 261 524 189 515 189 452 290 461 370 399 286 49 366 49
Fore
421 386 m 0xf0
 421 386 l 0
 402 395 390 399 370 399 c 1xe4
 366 49 l 1
 407 49 l 2
 490 51 496 333 421 386 c 0xf0
290 461 m 1
 290 461 l 0
 290 495 283 524 261 524 c 1
 189 452 l 1
 118 524 l 1
 88 524 65 482 72 413 c 1
 72 413 86 433 121 433 c 0
 226 433 224 280 120 280 c 0
 32 280 15 390 26 470 c 0
 37 545 78 581 118 593 c 1
 189 515 l 1
 263 591 l 1
 329 587 370 536 370 461 c 2
 370 450 l 1xe4
 467 445 502 531 504 591 c 1
 590 591 l 1
 562 456 452 422 452 422 c 1xe8
 574 379 581 -2 421 0 c 2
 223 0 l 1
 223 49 l 1
 286 49 l 1xf0
 290 461 l 1
121 312 m 0
 181 312 181 399 121 399 c 0
 63 399 66 312 121 312 c 0
EndSplineSet
EndChar
StartChar: uni0E0C
Encoding: 172 3596 139
Width: 815
Flags: W
HStem: -8 39<188 206> 392 44<97 267>
VStem: 45 222<392 413> 95 80<109 329> 422 77<61 120 165 413> 633 77<94 527>
Fore
710 0 m 0xec
 631 0 l 0
 610 111 499 120 499 120 c 1
 499 52 493 -8 418 -8 c 0
 300 -8 307 170 422 166 c 1
 422 407 l 1
 421 604 140 582 97 436 c 1
 267 436 l 1
 267 392 l 1xec
 257 392 220 392 218 392 c 0
 174 392 175 341 175 341 c 1
 175 338 175 154 175 154 c 1
 303 190 327 -8 198 -8 c 0
 117 -8 95 69 95 109 c 2
 95 324 l 2xdc
 95 375 129 392 129 392 c 1
 45 392 l 1
 46 650 484 677 499 413 c 1
 499 163 l 1
 499 163 596 149 633 94 c 1
 633 527 l 1
 680 585 l 1
 691 593 710 599 710 564 c 0
 710 562 710 45 710 0 c 0xec
422 61 m 0
 422 126 l 0
 373 131 352 71 384 41 c 1
 396 34 424 28 422 61 c 0
197 31 m 0
 260 31 260 121 197 121 c 0
 137 121 137 31 197 31 c 0
EndSplineSet
EndChar
StartChar: uni0E0D
Encoding: 173 3597 140
Width: 800
Flags: W
HStem: -230 32<533 546> -8 37<531 558> 392 44<97 129 97 267>
VStem: 95 80<109 331> 395 77<98 413> 518 29<-113 -101> 617 77<98 527> 624 70<-119 -53>
Fore
694 104 m 1xfe
 694 104 l 0
 694 54 631 -8 542 -8 c 0
 456 -8 395 48 395 112 c 2
 395 407 l 1
 393 605 132 573 97 436 c 1
 267 436 l 1
 267 392 l 1
 257 392 220 392 218 392 c 0
 174 392 175 341 175 341 c 1
 175 338 175 154 175 154 c 1
 318 204 343 -2 212 -8 c 0
 115 -12 95 69 95 109 c 2
 95 324 l 2
 95 375 129 392 129 392 c 1
 45 392 l 1
 52 650 455 676 472 413 c 1
 472 101 l 2
 472 61 501 29 544 29 c 0
 588 29 617 60 617 100 c 2
 617 527 l 1xfe
 665 585 l 1
 676 593 694 599 694 564 c 0xfd
 694 562 694 104 694 104 c 1xfe
694 -108 m 1xfd
 694 -108 l 0
 694 -155 653 -230 533 -230 c 0
 415 -230 399 -140 401 -112 c 0
 402 -84 419 -38 482 -38 c 0
 524 -38 547 -68 547 -108 c 0
 547 -140 518 -169 482 -169 c 0
 465 -169 455 -163 445 -157 c 1
 458 -180 487 -198 533 -198 c 0
 587 -198 624 -152 624 -106 c 2
 624 -52 l 1
 694 -52 l 1
 694 -108 l 1xfd
212 32 m 0
 212 32 l 0
 275 32 275 121 212 121 c 0
 152 121 152 32 212 32 c 0
518 -103 m 0
 518 -54 442 -54 442 -103 c 0
 442 -154 518 -154 518 -103 c 0
EndSplineSet
Substitution: 0 65534 'nds0' uni0E0D.descless
Substitution: 0 65534 'ndsc' uni0E0D.descless
EndChar
StartChar: uni0E0E
Encoding: 174 3598 141
Width: 612
Flags: W
HStem: -212 43<184 195> -8 40<100 108> 392 44<106 138 106 278>
VStem: 81 45<-126 -124> 106 78<162 341> 432 78<-160 416>
AnchorPoint: "BelowBase" 509.952 -245.76 basechar 0
Fore
510 -241 m 5xec
 432 -241 l 0
 427 -217 373 -141 304 -111 c 1
 304 -111 272 -212 184 -212 c 0xec
 126 -212 81 -183 81 -126 c 0xf4
 81 -61 167 -14 273 -55 c 1
 273 -55 289 -3 326 12 c 1
 362 -5 l 1
 321 -34 315 -69 315 -69 c 1
 395 -97 432 -160 432 -160 c 1
 432 407 l 2
 432 601 149 585 106 436 c 1
 278 436 l 1
 278 392 l 1
 230 392 l 2
 183 392 184 341 184 341 c 1
 184 80 l 2
 184 25 147 -8 100 -8 c 0
 -14 -8 -12 169 106 163 c 1
 106 332 l 2
 106 378 138 392 138 392 c 1
 54 392 l 1
 61 664 510 667 510 407 c 2
 510 -241 l 5xec
100 32 m 0
 100 32 l 0
 160 32 160 121 100 121 c 0
 40 121 40 32 100 32 c 0
263 -95 m 1
 237 -86 210 -83 189 -83 c 0
 157 -83 126 -94 126 -126 c 0xf4
 126 -163 161 -169 184 -169 c 0
 232 -169 255 -121 263 -95 c 1
EndSplineSet
EndChar
StartChar: uni0E0F
Encoding: 175 3599 142
Width: 612
Flags: W
HStem: -111 43<81 91> -8 40<100 108> 392 44<106 140 106 278>
VStem: -22 44<-164 -144> 106 78<162 341> 432 78<-155 416>
AnchorPoint: "BelowBase" 509.952 -245.76 basechar 0
Fore
100 32 m 0
 100 32 l 0
 160 32 160 121 100 121 c 0
 40 121 40 32 100 32 c 0
137 -129 m 0
 137 -129 l 0
 118 -117 98 -111 81 -111 c 0
 31 -111 22 -135 22 -154 c 0
 22 -174 35 -201 77 -198 c 0
 109 -195 121 -164 137 -129 c 0
155 -89 m 1
 169 -63 189 -40 223 -26 c 1
 252 -54 l 1
 223 -66 204 -89 192 -115 c 1
 218 -137 240 -164 249 -187 c 1
 284 -103 379 -92 432 -155 c 1
 432 407 l 2
 432 601 149 585 106 436 c 1
 278 436 l 1
 278 392 l 1
 230 392 l 2
 183 392 184 341 184 341 c 1
 184 80 l 2
 184 25 147 -8 100 -8 c 0
 -14 -8 -14 169 106 163 c 1
 106 332 l 2
 106 381 140 392 140 392 c 1
 54 392 l 1
 61 664 510 667 510 407 c 2
 510 -241 l 5
 436 -241 l 1
 399 -137 298 -137 270 -240 c 1
 224 -240 l 1
 220 -210 198 -180 172 -157 c 1
 152 -197 132 -233 78 -240 c 0
 2 -247 -22 -186 -22 -155 c 0
 -22 -95 28 -68 81 -68 c 0
 106 -68 131 -75 155 -89 c 1
EndSplineSet
EndChar
StartChar: uni0E10
Encoding: 176 3600 143
Width: 508
Flags: W
HStem: -276 53<214 355> -233 35<80 88> -186 29<303 326> -83 37<303 305> -8 43<292 300> 190 39<127.864 148> 319 39<127.864 148>
VStem: 178 75<91 270> 326 81<-203 -131>
DStem: 28 439 81 472 301 370 358 401
Fore
452 571 m 0x3f80
 452 571 l 0
 419 461 309 490 290 496 c 0
 151 541 108 536 81 472 c 1
 358 401 l 1
 373 393 407 392 407 332 c 2
 407 106 l 2
 407 41 370 -8 292 -8 c 0
 227 -8 178 45 178 106 c 2
 178 198 l 1
 166 192 154 190 138 190 c 0
 84 190 52 232 54 280 c 1
 58 324 89 358 138 358 c 0
 218 359 253 319 253 270 c 2
 253 78 l 2
 253 58 266 35 292 35 c 0
 318 35 330 58 330 77 c 2
 330 321 l 2
 330 353 324 364 301 370 c 2
 28 439 l 1
 40 478 74 598 184 594 c 0
 252 594 386 527 438 582 c 0
 447 591 456 587 452 571 c 0x3f80
407 -218 m 1
 407 -218 l 0
 407 -243 396 -276 355 -276 c 2
 174 -276 l 1xbf80
 174 -226 l 2
 174 -198 170 -175 149 -149 c 1
 151 -161 152 -233 80 -233 c 0x7f80
 48 -233 25 -214 15 -178 c 0
 5 -134 41 -81 114 -97 c 1
 114 -97 112 -72 123 -57 c 1
 158 -61 l 1
 141 -81 152 -111 152 -111 c 1
 217 -135 215 -223 215 -223 c 1
 298 -223 l 2xbf80
 309 -223 326 -215 326 -201 c 2
 326 -186 l 1
 323 -186 315 -194 293 -192 c 0
 206 -184 210 -45 303 -46 c 0
 364 -46 401 -75 407 -131 c 1
 407 -218 l 1
138 229 m 0
 138 229 l 0
 198 229 198 319 138 319 c 0
 80 319 80 229 138 229 c 0
303 -157 m 0
 303 -157 l 0
 350 -157 350 -83 303 -83 c 0
 252 -83 252 -157 303 -157 c 0
114 -132 m 1
 114 -132 92 -127 77 -127 c 0
 34 -132 35 -198 80 -198 c 0x7f80
 103 -198 121 -170 114 -132 c 1
EndSplineSet
KernsSLIF: 209 46 1 0 213 46 1 0 214 46 1 0 215 46 1 0 212 46 1 0
Substitution: 0 65534 'nds0' uni0E10.descless
Substitution: 0 65534 'ndsc' uni0E10.descless
EndChar
StartChar: uni0E11
Encoding: 177 3601 144
Width: 780
Flags: W
HStem: 0 21G<287 362 596 674> 280 32<116 123> 399 34<121 123>
VStem: 287 80<184.07 462> 596 78<0 464>
DStem: 118 524 118 593 189 452 189 515 263 591 261 524 189 515 189 452 290 461 370 461 287 0 367 184 450 498 484 482 367 184 362 0
Fore
290 461 m 1
 290 461 l 0
 290 495 283 524 261 524 c 1
 189 452 l 1
 118 524 l 1
 88 524 65 482 72 413 c 1
 72 413 86 433 121 433 c 0
 226 433 224 280 120 280 c 0
 32 280 15 390 26 470 c 0
 37 545 78 581 118 593 c 1
 189 515 l 1
 263 591 l 1
 329 587 370 536 370 461 c 1
 367 184 l 1
 450 498 l 1
 479 642 684 617 674 464 c 1
 674 0 l 1
 596 0 l 1
 596 468 l 1
 602 550 504 550 484 482 c 1
 362 0 l 1
 287 0 l 1
 290 461 l 1
121 312 m 0
 181 312 181 399 121 399 c 0
 63 399 66 312 121 312 c 0
EndSplineSet
EndChar
StartChar: uni0E12
Encoding: 178 3602 145
Width: 801
Flags: W
HStem: 0 21G<101 180 614 694> 257 36<244 252> 395 40<247 258.371>
VStem: 37 47<384 407.51> 101 -17<94 384> 101 79<0 86> 406 78<62 151 196 409> 616 78<88 530>
DStem: 167 538 172 594 260 468 260 524 346 594 349 538 260 524 260 468
Fore
247 293 m 0
 247 293 l 0
 316 293 316 395 247 395 c 0
 183 395 183 293 247 293 c 0
406 63 m 0
 406 151 l 0
 364 152 346 72 375 49 c 0
 384 43 409 37 406 63 c 0
406 401 m 2
 406 482 395 515 349 538 c 1
 260 468 l 1
 167 538 l 1
 126 519 84 475 84 384 c 0
 84 359 103 301 121 272 c 1
 166 192 160 175 164 166 c 1
 180 200 266 257 252 257 c 0
 190 257 160 298 160 346 c 0
 160 358 169 433 247 435 c 0
 323 435 373 372 332 283 c 0
 293 206 189 169 180 86 c 1
 180 0 l 1
 101 0 l 1
 101 94 l 2
 101 220 37 298 37 384 c 0
 37 531 123 578 172 594 c 1
 260 524 l 1
 346 594 l 1
 399 582 484 547 484 396 c 2
 484 194 l 1
 484 194 584 158 616 88 c 1
 616 530 l 1
 667 588 l 1
 677 596 694 602 694 567 c 0
 694 565 694 45 694 0 c 1
 614 0 l 1
 607 58 531 131 484 151 c 1
 484 127 484 86 484 81 c 0
 484 32 470 -8 402 -8 c 0
 275 -8 284 190 406 197 c 1
 406 401 l 2
EndSplineSet
EndChar
StartChar: uni0E13
Encoding: 179 3603 146
Width: 800
Flags: W
HStem: -8 40<656 667> 0 101<472 472.59> 392 44<97 131 97 267>
VStem: 45 222<392 408.658> 95 80<109 335> 392 80<0 416> 616 78<169 530>
Fore
694 181 m 0x76
 694 181 l 0
 694 169 682 160 682 160 c 1
 763 140 762 -8 656 -8 c 0xb6
 613 -8 584 14 574 52 c 1
 561 94 590 132 590 132 c 1
 505 118 478 18 473 0 c 1
 392 0 l 1
 392 410 l 2
 392 607 127 570 97 436 c 1
 267 436 l 1
 267 392 l 1x76
 257 392 220 392 218 392 c 0
 174 392 175 335 175 335 c 1
 175 332 175 155 175 155 c 1
 318 203 343 -2 212 -8 c 0
 115 -12 95 69 95 109 c 2
 95 326 l 2xae
 95 376 131 392 131 392 c 1
 45 392 l 1
 51 645 455 679 472 416 c 1
 472 101 l 1
 472 101 515 177 616 169 c 1
 616 530 l 1
 665 588 l 1
 676 596 694 602 694 567 c 0
 694 565 694 194 694 181 c 0x76
656 32 m 0
 656 32 l 0
 716 32 716 121 656 121 c 0
 594 121 594 32 656 32 c 0
212 32 m 0
 275 32 275 121 212 121 c 0
 152 121 152 32 212 32 c 0
EndSplineSet
KernsSLIF: 218 -46 1 0 217 -46 1 0 216 -46 1 0 209 -46 1 0 213 -46 1 0 214 -46 1 0 215 -46 1 0 212 -46 1 0
EndChar
StartChar: uni0E14
Encoding: 180 3604 147
Width: 609
Flags: W
HStem: 0 21G<114 190 430 507> 273 36<258 273> 409 40<269 280.131> 551 47<270 292>
VStem: 51 47<384 404.957> 114 -16<94 384> 114 76<0 86> 430 77<0 417>
Fore
507 0 m 1
 430 0 l 1
 430 396 l 2
 430 476 387 551 270 551 c 0
 210 551 98 516 98 384 c 0
 98 307 163 244 178 166 c 1
 194 203 286 273 273 273 c 0
 189 272 180 343 180 361 c 0
 180 378 189 447 269 449 c 0
 341 450 393 384 350 296 c 0
 313 220 201 169 190 86 c 1
 190 0 l 1
 114 0 l 1
 114 94 l 2
 114 220 51 298 51 384 c 0
 51 533 178 598 270 598 c 4
 309 598 507 594 507 396 c 2
 507 0 l 1
269 309 m 0
 336 309 336 409 269 409 c 0
 200 409 200 309 269 309 c 0
EndSplineSet
EndChar
StartChar: uni0E15
Encoding: 181 3605 148
Width: 609
Flags: W
HStem: 0 21G<114 190 430 507> 293 21G<227.5 295> 395 40<261 272.219>
VStem: 51 47<384 405.244> 114 -16<94 385> 430 77<0 418>
DStem: 186 538 190 594 278 468 278 524 364 594 367 538 278 524 278 468
Fore
507 0 m 1
 430 0 l 1
 430 416 l 2
 430 496 409 515 367 538 c 1
 278 468 l 1
 186 538 l 1
 151 528 98 475 98 384 c 0
 98 359 115 301 134 272 c 0
 180 192 180 166 183 174 c 0
 198 203 273 258 261 258 c 0
 181 258 169 326 169 347 c 0
 169 370 183 433 261 435 c 0
 333 435 384 372 343 283 c 0
 306 206 201 157 190 74 c 1
 190 0 l 1
 114 0 l 1
 114 94 l 2
 114 220 51 298 51 384 c 0
 51 527 137 574 190 594 c 1
 278 524 l 1
 364 594 l 1
 416 584 507 542 507 396 c 2
 507 0 l 1
261 293 m 0
 329 293 329 395 261 395 c 0
 194 395 194 293 261 293 c 0
EndSplineSet
EndChar
StartChar: uni0E16
Encoding: 182 3606 149
Width: 602
Flags: W
HStem: 0 21G<421 498> 392 44<95 127 95 266>
VStem: 94 80<109 335> 421 77<0 416>
Fore
498 0 m 1
 421 0 l 1
 421 410 l 1
 418 607 132 579 95 436 c 1
 266 436 l 1
 266 392 l 1
 255 392 218 392 217 392 c 0
 172 392 174 335 174 335 c 1
 174 332 174 155 174 155 c 1
 319 203 341 -2 212 -8 c 0
 114 -12 94 69 94 109 c 2
 94 326 l 2
 94 375 127 392 127 392 c 1
 43 392 l 1
 45 650 481 676 498 416 c 1
 498 0 l 1
212 32 m 0
 273 32 273 121 212 121 c 0
 151 121 151 32 212 32 c 0
EndSplineSet
EndChar
StartChar: uni0E17
Encoding: 183 3607 150
Width: 655
Flags: W
HStem: 0 21G<166 238 475 551> 418 37<113 133> 556 38<121 133>
VStem: 166 77<0 492> 475 76<0 467>
DStem: 327 501 361 485 243 177 238 0
Fore
551 0 m 1
 475 0 l 1
 475 472 l 1
 479 551 384 553 361 485 c 1
 238 0 l 1
 166 0 l 1
 166 425 l 1
 154 418 137 418 124 418 c 0
 6 418 2 594 131 594 c 0
 250 594 243 502 243 492 c 2
 243 177 l 1
 327 501 l 2
 364 644 562 621 551 467 c 1
 551 0 l 1
123 455 m 0
 190 455 190 556 123 556 c 0
 54 556 54 455 123 455 c 0
EndSplineSet
EndChar
StartChar: uni0E18
Encoding: 184 3608 151
Width: 508
Flags: W
HStem: 0 45<52 306>
VStem: 97 78<45 364> 330 77<106 337>
DStem: 28 439 81 472 301 370 358 401
Fore
330 321 m 2
 330 353 324 364 301 370 c 2
 28 439 l 1
 40 478 74 598 184 594 c 0
 252 594 386 527 438 582 c 0
 447 591 456 587 452 571 c 0
 419 461 309 490 290 496 c 0
 151 541 108 536 81 472 c 1
 358 401 l 1
 373 393 407 392 407 332 c 2
 407 108 l 2
 407 35 370 0 306 0 c 2
 52 0 l 1
 52 45 l 1
 97 45 l 1
 97 364 l 1
 175 364 l 1
 175 45 l 1
 250 45 l 2
 304 45 330 66 330 114 c 2
 330 321 l 2
EndSplineSet
EndChar
StartChar: uni0E19
Encoding: 185 3609 152
Width: 663
Flags: W
HStem: -8 40<496 514> 131 41<432 468> 418 38<109.648 121 121.063 122.875 121 131> 558 40<112 131>
VStem: 166 77<0 427> 468 79<172 531>
Fore
547 186 m 0
 547 186 l 0
 547 172 530 163 530 163 c 1
 614 138 610 -8 502 -8 c 0
 462 -8 433 15 422 54 c 0
 409 97 436 131 436 131 c 1
 303 132 246 15 238 0 c 1
 166 0 l 1
 166 427 l 1
 154 418 137 418 123 418 c 0
 5 415 0 598 129 598 c 0
 250 598 243 504 243 493 c 0
 243 492 243 77 243 77 c 1
 243 77 293 175 468 172 c 1
 468 531 l 1
 518 591 l 1
 527 598 547 605 547 568 c 2
 547 568 547 197 547 186 c 0
121 456 m 0
 121 456 l 0
 189 456 189 558 121 558 c 0
 52 558 52 456 121 456 c 0
504 32 m 0
 567 32 567 121 504 121 c 0
 444 121 444 32 504 32 c 0
EndSplineSet
KernsSLIF: 218 -46 1 0 217 -46 1 0 216 -46 1 0 209 -46 1 0 213 -46 1 0 214 -46 1 0 215 -46 1 0 212 -46 1 0
EndChar
StartChar: uni0E1A
Encoding: 186 3610 153
Width: 649
Flags: W
HStem: 0 45<111 441> 418 38<109 133> 558 38<119 133>
VStem: 166 77<45 425> 467 78<118 531>
Fore
545 106 m 0
 545 106 l 0
 548 66 522 0 441 0 c 2
 111 0 l 1
 111 45 l 1
 166 45 l 1
 166 425 l 1
 158 421 137 418 124 418 c 0
 -2 418 -2 596 131 596 c 4
 250 596 243 504 243 493 c 0
 243 492 243 45 243 45 c 1
 399 45 l 2
 433 45 470 66 467 118 c 1
 467 531 l 1
 518 590 l 1
 528 598 547 604 545 568 c 0
 545 567 545 109 545 106 c 0
121 456 m 0
 189 456 189 558 121 558 c 0
 52 558 52 456 121 456 c 0
EndSplineSet
EndChar
StartChar: uni0E1B
Encoding: 187 3611 154
Width: 665
Flags: W
HStem: 0 45<111 456> 418 38<109 133> 558 38<119 133>
VStem: 166 77<45 425> 482 79<118 911>
AnchorPoint: "AboveBase" 385.536 645.12 basechar 0
Fore
561 106 m 0
 561 106 l 0
 564 66 538 0 456 0 c 2
 111 0 l 1
 111 45 l 1
 166 45 l 1
 166 425 l 1
 158 421 137 418 124 418 c 0
 -2 418 -2 596 131 596 c 0
 250 596 243 504 243 493 c 0
 243 492 243 45 243 45 c 1
 415 45 l 2
 449 45 485 66 482 118 c 1
 482 911 l 1
 533 969 l 1
 544 977 562 983 561 948 c 0
 561 946 561 109 561 106 c 0
121 456 m 0
 189 456 189 558 121 558 c 0
 52 558 52 456 121 456 c 0
EndSplineSet
EndChar
StartChar: uni0E1C
Encoding: 188 3612 155
Width: 649
Flags: W
HStem: 0 21G<92 172 467 545>
VStem: 92 80<0 33 0 433> 467 78<0 33 118 530>
DStem: 319 316 319 401 455 58 467 118 319 401 319 316 172 115 183 58 319 316 319 401 455 58 467 118 319 401 319 316 172 115 183 58 319 316 319 401 455 58 467 118 319 401 319 316 172 115 183 58 319 316 319 401 455 58 467 118 319 401 319 316 172 115 183 58 319 316 319 401 455 58 467 118 319 401 319 316 172 115 183 58 319 316 319 401 455 58 467 118 319 401 319 316 172 115 183 58 319 316 319 401 455 58 467 118 319 401 319 316 172 115 183 58 319 316 319 401 455 58 467 118 319 401 319 316 172 115 183 58 319 316 319 401 455 58 467 118 319 401 319 316 172 115 183 58 319 316 319 401 455 58 467 118 319 401 319 316 172 115 183 58 319 316 319 401 455 58 467 118 319 401 319 316 172 115 183 58 319 316 319 401 455 58 467 118 319 401 319 316 172 115 183 58 319 316 319 401 455 58 467 118 319 401 319 316 172 115 183 58 319 316 319 401 455 58 467 118 319 401 319 316 172 115 183 58 319 316 319 401 455 58 467 118 319 401 319 316 172 115 183 58
Fore
545 0 m 1
 467 0 l 1
 467 22 l 2
 467 43 458 51 455 58 c 1
 319 316 l 1
 183 58 l 1
 180 51 172 45 172 22 c 2
 172 0 l 1
 92 0 l 1
 92 490 l 2
 92 535 120 598 218 594 c 0
 344 590 319 379 172 433 c 1
 172 115 l 1
 319 401 l 1
 467 118 l 1
 467 530 l 1
 518 588 l 1
 528 596 547 602 545 567 c 0
 545 565 545 0 545 0 c 1
218 462 m 0
 283 462 283 559 218 559 c 0
 151 559 151 462 218 462 c 0
EndSplineSet
EndChar
StartChar: uni0E1D
Encoding: 189 3613 156
Width: 665
Flags: W
HStem: 0 21G<92 172 482 561>
VStem: 92 80<0 19 0 433> 482 79<0 935>
DStem: 327 326 327 407 470 54 482 118 327 407 327 326 172 117 183 54 327 326 327 407 470 54 482 118 327 407 327 326 172 117 183 54 327 326 327 407 470 54 482 118 327 407 327 326 172 117 183 54 327 326 327 407 470 54 482 118 327 407 327 326 172 117 183 54 327 326 327 407 470 54 482 118 327 407 327 326 172 117 183 54 327 326 327 407 470 54 482 118 327 407 327 326 172 117 183 54 327 326 327 407 470 54 482 118 327 407 327 326 172 117 183 54 327 326 327 407 470 54 482 118 327 407 327 326 172 117 183 54 327 326 327 407 470 54 482 118 327 407 327 326 172 117 183 54 327 326 327 407 470 54 482 118 327 407 327 326 172 117 183 54 327 326 327 407 470 54 482 118 327 407 327 326 172 117 183 54 327 326 327 407 470 54 482 118 327 407 327 326 172 117 183 54 327 326 327 407 470 54 482 118 327 407 327 326 172 117 183 54 327 326 327 407 470 54 482 118 327 407 327 326 172 117 183 54 327 326 327 407 470 54 482 118 327 407 327 326 172 117 183 54 327 326 327 407 470 54 482 118 327 407 327 326 172 117 183 54
AnchorPoint: "AboveBase" 385.536 645.12 basechar 0
Fore
561 0 m 1
 482 0 l 1
 482 17 l 2
 482 38 473 46 470 54 c 1
 327 326 l 1
 183 54 l 1
 180 46 172 40 172 17 c 2
 172 0 l 1
 92 0 l 1
 92 490 l 2
 92 535 120 598 218 594 c 0
 344 590 319 379 172 433 c 1
 172 117 l 1
 327 407 l 1
 482 118 l 1
 482 902 l 1
 533 960 l 1
 542 968 561 974 561 935 c 2
 561 0 l 1
218 462 m 0
 283 462 283 559 218 559 c 0
 151 559 151 462 218 462 c 0
EndSplineSet
EndChar
StartChar: uni0E1E
Encoding: 190 3614 157
Width: 723
Flags: W
HStem: 0 21G<167 249 536 619> 416 39<114 134> 556 38<121 134>
VStem: 167 77<0 424> 542 77<115 535>
DStem: 379 588 393 490 244 115 249 0 393 490 407 588 536 0 542 115
Fore
619 0 m 1
 536 0 l 1
 393 490 l 1
 249 0 l 1
 167 0 l 1
 167 424 l 1
 160 419 138 416 126 416 c 0
 6 416 3 594 132 594 c 0
 252 594 244 502 244 492 c 0
 244 490 244 115 244 115 c 1
 379 588 l 1
 407 588 l 1
 542 115 l 1
 542 535 l 1
 593 593 l 1
 604 601 621 607 619 571 c 0
 619 570 619 0 619 0 c 1
123 455 m 0
 190 455 190 556 123 556 c 0
 54 556 54 455 123 455 c 0
EndSplineSet
EndChar
StartChar: uni0E1F
Encoding: 191 3615 158
Width: 723
Flags: W
HStem: 0 21G<167 249 536 619> 416 39<114 134> 556 38<121 134>
VStem: 167 77<0 424> 542 77<111 937>
DStem: 379 591 393 490 244 111 249 0 393 490 407 591 536 0 542 111
AnchorPoint: "AboveBase" 443.904 645.12 basechar 0
Fore
619 0 m 1
 536 0 l 1
 393 490 l 1
 249 0 l 1
 167 0 l 1
 167 424 l 1
 160 419 138 416 126 416 c 0
 6 416 3 594 132 594 c 0
 252 594 244 502 244 492 c 0
 244 490 244 111 244 111 c 1
 379 591 l 1
 407 591 l 1
 542 111 l 1
 542 902 l 1
 593 962 l 2
 599 969 619 975 619 937 c 2
 619 0 l 1
123 455 m 0
 190 455 190 556 123 556 c 0
 54 556 54 455 123 455 c 0
EndSplineSet
EndChar
StartChar: uni0E20
Encoding: 192 3616 159
Width: 619
Flags: W
HStem: -5 40<123 134> 392 44<112 161 112 287>
VStem: 129 77<165 341> 438 78<0 416>
Fore
516 0 m 0
 438 0 l 1
 438 410 l 2
 438 602 151 581 112 436 c 1
 287 436 l 1
 287 392 l 1
 250 392 l 2
 204 392 206 341 206 341 c 1
 206 83 l 2
 206 28 169 -5 123 -5 c 0
 9 -5 8 172 129 166 c 1
 129 332 l 2
 129 379 161 392 161 392 c 1
 60 392 l 1
 61 651 501 676 516 416 c 1
 516 416 516 37 516 0 c 0
123 35 m 0
 183 35 183 124 123 124 c 0
 60 124 60 35 123 35 c 0
EndSplineSet
EndChar
StartChar: uni0E21
Encoding: 193 3617 160
Width: 646
Flags: W
HStem: 0 21G<462 542> 416 39<113 133> 556 38<119 133>
VStem: 166 77<209 424> 465 77<80 530>
Fore
542 0 m 0
 462 0 l 0
 387 127 244 147 244 147 c 1
 247 51 244 -5 160 -5 c 0
 17 -6 25 210 166 209 c 1
 166 424 l 1
 157 418 137 416 124 416 c 0
 6 416 2 594 131 594 c 0
 250 594 243 502 243 492 c 0
 243 490 243 203 243 203 c 1
 243 203 376 174 465 80 c 1
 465 530 l 1
 516 590 l 1
 524 596 544 604 542 567 c 0
 542 565 542 45 542 0 c 0
121 455 m 0
 121 455 l 0
 189 455 189 556 121 556 c 0
 52 556 52 455 121 455 c 0
166 68 m 1
 166 157 l 1
 91 167 88 72 124 49 c 1
 135 45 167 38 166 68 c 1
EndSplineSet
EndChar
StartChar: uni0E22
Encoding: 194 3618 161
Width: 580
Flags: W
HStem: -8 54<266 300> 309 41<234 266> 562 36<212 220>
VStem: 86 78<144 229> 399 77<135 531>
Fore
476 154 m 1
 476 154 l 0
 476 52 399 -8 284 -8 c 0
 170 -8 86 52 86 158 c 2
 86 158 86 227 86 229 c 0
 91 287 126 313 160 324 c 1
 126 327 95 358 88 379 c 0
 72 422 71 470 86 510 c 0
 108 567 143 598 212 598 c 0
 326 598 327 425 212 422 c 0
 175 422 160 436 160 436 c 1
 158 389 186 350 237 350 c 2
 266 350 l 1
 266 309 l 1
 238 309 l 2
 195 309 164 276 164 232 c 2
 164 152 l 2
 164 86 214 46 286 46 c 0
 361 46 399 83 399 146 c 0
 399 151 399 542 399 531 c 1
 447 593 l 1
 456 601 478 607 476 568 c 1
 476 154 l 1
212 461 m 0
 281 461 281 562 212 562 c 0
 144 562 144 461 212 461 c 0
EndSplineSet
EndChar
StartChar: uni0E23
Encoding: 195 3619 162
Width: 462
Flags: W
HStem: -3 38<222 232> 138 37<226 232>
VStem: 267 77<163 367>
DStem: 31 442 80 472 241 387 295 416
Fore
421 576 m 0
 421 576 l 0
 393 468 290 501 287 502 c 0
 152 544 109 542 80 472 c 1
 295 416 l 2
 309 413 344 399 344 367 c 2
 344 101 l 2
 344 89 353 -3 230 -3 c 0
 101 -3 109 177 226 175 c 0
 238 175 255 174 267 163 c 1
 267 344 l 1
 269 364 267 381 241 387 c 2
 31 442 l 1
 41 476 80 594 183 594 c 0
 258 594 358 531 406 588 c 0
 413 596 425 594 421 576 c 0
226 35 m 0
 293 35 293 138 226 138 c 0
 157 138 157 35 226 35 c 0
EndSplineSet
KernsSLIF: 209 46 1 0 213 46 1 0 214 46 1 0 215 46 1 0 212 46 1 0
EndChar
StartChar: uni0E24
Encoding: 196 3620 163
Width: 597
Flags: W
HStem: 392 44<95 126 95 264>
VStem: 92 80<112 333> 418 78<-178 430>
Fore
496 -178 m 1
 445 -237 l 0
 435 -244 416 -250 418 -215 c 0
 418 -194 418 410 418 410 c 2
 418 601 137 582 95 436 c 1
 264 436 l 1
 264 392 l 1
 253 392 217 392 215 392 c 0
 170 392 172 333 172 333 c 1
 172 330 172 158 172 158 c 1
 316 204 339 2 209 -5 c 0
 112 -9 92 72 92 112 c 2
 92 324 l 2
 92 373 126 392 126 392 c 1
 43 392 l 1
 49 660 496 670 496 410 c 2
 496 -178 l 1
209 35 m 0
 272 35 272 124 209 124 c 0
 149 124 149 35 209 35 c 0
EndSplineSet
EndChar
StartChar: uni0E25
Encoding: 197 3621 164
Width: 579
Flags: W
HStem: 0 21G<399 476> 401 49<257 278>
VStem: 84 79<108 300> 399 77<0 433>
Fore
476 0 m 1
 399 0 l 1
 399 289 l 2
 399 353 346 401 278 401 c 0
 206 401 163 347 163 289 c 2
 163 158 l 1
 307 206 330 2 201 -5 c 0
 114 -8 84 66 84 108 c 2
 84 293 l 2
 84 372 154 450 257 450 c 0
 350 450 401 395 401 395 c 1
 410 521 307 539 253 539 c 0
 175 539 103 505 60 444 c 1
 32 467 l 1
 175 685 476 602 476 433 c 2
 476 0 l 1
197 32 m 0
 263 32 263 129 197 129 c 0
 131 129 131 32 197 32 c 0
EndSplineSet
EndChar
StartChar: uni0E26
Encoding: 198 3622 165
Width: 611
Flags: W
HStem: -5 40<100 110> 392 44<108 278>
VStem: 106 78<165 335> 432 78<-178 430>
Fore
510 -178 m 1
 459 -237 l 0
 449 -244 430 -250 432 -215 c 0
 432 -194 432 410 432 410 c 2
 432 604 144 579 108 436 c 1
 278 436 l 1
 278 392 l 1
 230 392 l 2
 183 392 184 335 184 335 c 1
 184 83 l 2
 184 28 147 -5 100 -5 c 0
 -20 -5 -20 172 106 166 c 1
 106 326 l 2
 106 375 140 392 140 392 c 1
 55 392 l 1
 60 659 510 670 510 410 c 2
 510 -178 l 1
100 35 m 0
 160 35 160 124 100 124 c 0
 40 124 40 35 100 35 c 0
EndSplineSet
EndChar
StartChar: uni0E27
Encoding: 199 3623 166
Width: 505
Flags: W
HStem: -5 36<273 291> 131 35<276 291> 545 53<193 217>
VStem: 323 78<155 444>
Fore
401 118 m 1
 401 118 l 0
 401 41 370 -5 276 -5 c 0
 230 -5 195 32 194 77 c 0
 192 124 223 164 276 166 c 0
 298 166 307 163 323 155 c 1
 323 438 l 2
 323 502 264 545 198 545 c 0
 111 545 65 484 54 470 c 1
 18 479 l 1
 23 502 81 598 217 598 c 0
 312 598 401 531 401 438 c 2
 401 118 l 1
280 31 m 0
 347 31 347 131 280 131 c 0
 214 131 214 31 280 31 c 0
EndSplineSet
EndChar
StartChar: uni0E28
Encoding: 200 3624 167
Width: 589
Flags: W
HStem: 0 21G<101 180 412 488> 273 36<244 260> 407 37<244 260> 553 46<226 260>
VStem: 35 46<413 427.077> 101 -20<224 413> 101 79<0 231> 412 76<0 417>
Fore
255 309 m 0
 255 309 l 0
 323 309 323 407 255 407 c 0
 189 407 189 309 255 309 c 0
398 473 m 0
 398 473 l 0
 373 535 313 553 246 553 c 0
 149 553 81 479 81 413 c 0
 81 369 95 335 124 321 c 1
 135 376 169 444 252 444 c 0
 283 444 306 432 319 415 c 1
 346 427 373 447 398 473 c 0
475 482 m 1
 484 461 488 433 488 401 c 2
 488 0 l 1
 412 0 l 1
 412 401 l 2
 412 409 412 415 410 422 c 1
 387 404 362 390 338 378 c 1
 349 330 319 273 250 273 c 0
 212 273 190 301 190 301 c 1
 181 280 180 246 180 229 c 2
 180 0 l 1
 101 0 l 1
 101 224 l 2
 101 266 35 310 35 413 c 0
 35 519 129 599 247 599 c 0
 323 599 393 584 439 536 c 1
 453 565 461 601 461 641 c 1
 461 641 536 642 536 641 c 0
 536 582 511 528 475 482 c 1
EndSplineSet
EndChar
StartChar: uni0E29
Encoding: 201 3625 168
Width: 665
Flags: W
HStem: 0 45<111 473> 346 41<273 280> 418 37<124 133> 556 38<122 133>
VStem: 164 79<45 425> 485 76<103 240 330 567>
Fore
124 455 m 0
 124 455 l 0
 192 455 192 556 124 556 c 0
 55 556 55 455 124 455 c 0
280 255 m 0
 280 255 l 0
 339 255 339 346 280 346 c 0
 218 346 218 255 280 255 c 0
243 212 m 0
 243 45 l 1
 422 45 l 2
 456 45 485 69 485 101 c 2
 485 240 l 1
 455 169 312 129 243 212 c 0
485 344 m 2
 485 530 l 1
 536 590 l 2
 542 596 564 602 561 567 c 0
 561 565 561 104 561 103 c 0
 565 51 535 0 473 0 c 2
 111 0 l 1
 111 45 l 1
 164 45 l 1
 164 425 l 1
 152 418 137 418 124 418 c 0
 6 418 2 594 131 594 c 0
 250 594 243 502 243 492 c 2
 243 492 243 379 243 378 c 1
 253 384 264 387 278 387 c 0
 318 389 358 367 366 329 c 0
 381 257 341 224 306 221 c 1
 402 178 485 273 485 344 c 2
EndSplineSet
EndChar
StartChar: uni0E2A
Encoding: 202 3626 169
Width: 579
Flags: W
HStem: 0 21G<399 476>
VStem: 84 79<108 272> 399 77<0 431>
Fore
197 32 m 0
 197 32 l 0
 263 32 263 129 197 129 c 0
 131 129 131 32 197 32 c 0
366 501 m 0
 366 501 l 0
 286 570 118 538 60 444 c 1
 32 467 l 1
 144 639 336 613 416 551 c 1
 436 576 453 607 461 641 c 1
 536 641 l 1
 527 588 493 545 453 510 c 1
 470 482 476 456 476 429 c 2
 476 0 l 1
 399 0 l 1
 399 250 l 2
 399 315 346 378 278 378 c 0
 206 378 163 324 163 266 c 2
 163 158 l 1
 307 206 330 2 201 -5 c 0
 114 -8 84 66 84 108 c 2
 84 270 l 2
 84 335 137 413 230 425 c 1
 273 442 323 467 366 501 c 0
292 424 m 1
 370 409 401 356 401 356 c 1
 401 369 401 418 401 422 c 0
 401 436 398 452 393 465 c 1
 356 445 319 430 292 424 c 1
EndSplineSet
EndChar
StartChar: uni0E2B
Encoding: 203 3627 170
Width: 654
Flags: W
HStem: 0 21G<157 235 472 550> 418 37<104 122> 556 38<109 123>
VStem: 157 78<0 113 0 492> 472 78<0 386>
Fore
550 0 m 1
 472 0 l 1
 472 376 l 2
 472 406 452 422 452 422 c 1
 336 352 255 190 247 172 c 0
 240 147 235 127 235 109 c 2
 235 0 l 1
 157 0 l 1
 157 432 l 1
 146 419 129 418 114 418 c 0
 -2 418 -9 594 123 594 c 0
 241 594 233 502 233 492 c 2
 233 244 l 1
 304 379 429 456 429 456 c 1
 382 508 415 594 488 594 c 0
 588 594 590 468 524 441 c 1
 524 441 550 418 550 384 c 2
 550 0 l 1
488 472 m 0
 488 472 l 0
 548 472 548 561 488 561 c 0
 430 561 430 472 488 472 c 0
111 455 m 0
 180 455 180 556 111 556 c 0
 43 556 43 455 111 455 c 0
EndSplineSet
EndChar
StartChar: uni0E2C
Encoding: 204 3628 171
Width: 715
Flags: W
HStem: 0 21G<158 237 531 611> 418 37<105 123> 475 41<521 531> 556 38<110 124> 607 38<528 539>
VStem: 158 79<0 492> 531 80<126 502>
DStem: 375 425 375 556 531 0 531 126 375 556 375 425 237 121 237 0 375 425 375 556 531 0 531 126 375 556 375 425 237 121 237 0 375 425 375 556 531 0 531 126 375 556 375 425 237 121 237 0 375 425 375 556 531 0 531 126 375 556 375 425 237 121 237 0 375 425 375 556 531 0 531 126 375 556 375 425 237 121 237 0 375 425 375 556 531 0 531 126 375 556 375 425 237 121 237 0 375 425 375 556 531 0 531 126 375 556 375 425 237 121 237 0 375 425 375 556 531 0 531 126 375 556 375 425 237 121 237 0 375 425 375 556 531 0 531 126 375 556 375 425 237 121 237 0 375 425 375 556 531 0 531 126 375 556 375 425 237 121 237 0 375 425 375 556 531 0 531 126 375 556 375 425 237 121 237 0 375 425 375 556 531 0 531 126 375 556 375 425 237 121 237 0 375 425 375 556 531 0 531 126 375 556 375 425 237 121 237 0 375 425 375 556 531 0 531 126 375 556 375 425 237 121 237 0 375 425 375 556 531 0 531 126 375 556 375 425 237 121 237 0 375 425 375 556 531 0 531 126 375 556 375 425 237 121 237 0 375 425 375 556 531 0 531 126 375 556 375 425 237 121 237 0 375 425 375 556 531 0 531 126 375 556 375 425 237 121 237 0 375 425 375 556 531 0 531 126 375 556 375 425 237 121 237 0 375 425 375 556 531 0 531 126 375 556 375 425 237 121 237 0 375 425 375 556 531 0 531 126 375 556 375 425 237 121 237 0 375 425 375 556 531 0 531 126 375 556 375 425 237 121 237 0 375 425 375 556 531 0 531 126 375 556 375 425 237 121 237 0 375 425 375 556 531 0 531 126 375 556 375 425 237 121 237 0
Fore
699 659 m 1
 699 659 l 0
 696 536 611 502 611 502 c 1
 611 0 l 1
 531 0 l 1
 375 425 l 1
 237 0 l 1
 158 0 l 1
 158 432 l 1
 147 419 127 418 115 418 c 0
 0 418 -8 594 124 594 c 0
 243 594 237 502 237 492 c 2
 237 121 l 1
 375 556 l 1
 531 126 l 1
 531 475 l 1
 413 475 412 645 528 645 c 0
 621 645 613 562 613 562 c 1
 641 607 636 639 633 659 c 1
 699 659 l 1
528 516 m 0
 528 516 l 0
 587 516 587 607 528 607 c 0
 468 607 468 516 528 516 c 0
112 455 m 0
 181 455 181 556 112 556 c 0
 45 556 45 455 112 455 c 0
EndSplineSet
EndChar
StartChar: uni0E2D
Encoding: 205 3629 172
Width: 580
Flags: W
HStem: -8 21G<240.5 302.5> 548 46<232 266>
VStem: 83 78<130 280> 398 80<130 431>
Fore
478 146 m 1
 478 146 l 0
 478 18 330 -8 275 -8 c 0
 206 -8 83 15 83 147 c 2
 83 327 l 2
 83 367 111 450 200 445 c 0
 330 439 309 230 161 280 c 1
 161 132 l 1
 163 5 396 2 398 132 c 1
 398 421 l 2
 398 484 346 548 250 548 c 0
 141 548 100 496 71 464 c 1
 41 485 l 1
 75 527 134 594 255 594 c 0
 387 594 478 519 478 429 c 2
 478 146 l 1
200 309 m 0
 269 309 269 409 200 409 c 0
 131 409 131 309 200 309 c 0
EndSplineSet
EndChar
StartChar: uni0E2E
Encoding: 206 3630 173
Width: 580
Flags: W
HStem: -8 21G<240.5 302.5> 553 43<226 260>
VStem: 83 78<130 195> 398 80<130 441>
Fore
487 602 m 1
 487 602 l 0
 479 567 468 542 450 516 c 1
 468 495 478 458 478 429 c 2
 478 146 l 2
 478 18 330 -8 275 -8 c 0
 206 -8 83 15 83 147 c 2
 83 243 l 2
 83 283 111 366 200 361 c 0
 330 355 309 146 161 195 c 1
 161 132 l 1
 163 5 396 2 398 132 c 1
 398 421 l 2
 398 432 399 450 395 461 c 1
 290 370 91 384 69 476 c 0
 54 544 158 596 246 596 c 0
 329 596 382 565 396 559 c 1
 402 571 406 584 406 602 c 1
 487 602 l 1
367 508 m 0
 367 508 l 0
 349 531 310 553 244 553 c 0
 197 553 103 530 115 481 c 0
 129 425 301 418 367 508 c 0
200 224 m 0
 269 224 269 324 200 324 c 0
 131 324 131 224 200 224 c 0
EndSplineSet
EndChar
StartChar: uni0E2F
Encoding: 207 3631 174
Width: 539
Flags: W
HStem: 556 38<109 127>
VStem: 347 78<3 591>
Fore
425 3 m 1
 347 3 l 1
 347 465 l 1
 260 389 111 410 71 438 c 0
 -3 490 32 594 117 594 c 0
 161 594 192 571 203 533 c 0
 215 492 190 462 190 462 c 1
 335 452 347 571 347 591 c 1
 425 591 l 1
 425 3 l 1
120 465 m 0
 180 465 180 556 120 556 c 0
 58 556 58 465 120 465 c 0
EndSplineSet
EndChar
StartChar: uni0E30
Encoding: 208 3632 175
Width: 460
Flags: W
HStem: 141 33<120.646 134> 551 33<120.646 134>
Fore
382 579 m 1
 382 579 l 0
 364 445 258 406 155 418 c 1
 155 418 68 424 54 492 c 0
 48 521 60 584 132 584 c 0
 169 584 198 564 206 527 c 0
 214 487 194 461 194 461 c 1
 275 455 318 499 321 579 c 1
 382 579 l 1
382 169 m 1
 382 169 l 0
 364 35 258 -3 155 8 c 1
 155 8 68 14 54 81 c 0
 48 111 60 174 132 174 c 0
 169 174 198 154 206 117 c 0
 214 77 194 51 194 51 c 1
 275 45 318 89 321 169 c 1
 382 169 l 1
131 468 m 0
 131 468 l 0
 186 468 186 551 131 551 c 0
 74 551 74 468 131 468 c 0
131 58 m 0
 186 58 186 141 131 141 c 0
 74 141 74 58 131 58 c 0
EndSplineSet
EndChar
StartChar: uni0E31
Encoding: 209 3633 176
Width: 0
Flags: W
HStem: 874 41<-274 -268>
AnchorPoint: "AboveMark" -105.984 967.68 basemark 0
AnchorPoint: "AboveBase" -105.984 645.12 mark 0
Fore
141 911 m 1
 141 911 l 0
 83 657 -203 625 -321 737 c 0
 -406 817 -353 917 -272 915 c 0
 -232 915 -195 895 -184 852 c 0
 -164 774 -230 745 -230 745 c 1
 -83 691 31 770 52 911 c 1
 141 911 l 1
-270 782 m 0
 -210 782 -210 874 -270 874 c 0
 -333 874 -333 782 -270 782 c 0
EndSplineSet
EndChar
StartChar: uni0E32
Encoding: 210 3634 177
Width: 427
Flags: W
HStem: 558 44<145 163>
VStem: 246 80<3 468>
Fore
326 3 m 1
 246 3 l 1
 246 459 l 2
 246 515 212 558 151 558 c 0
 83 558 34 516 18 499 c 1
 18 542 l 1
 37 562 83 602 161 602 c 0
 266 602 326 558 326 464 c 2
 326 3 l 1
EndSplineSet
EndChar
StartChar: uni0E33
Encoding: 211 3635 178
Width: 427
Flags: W
HStem: 558 44<139 163> 685 43<-142.318 -129> 829 47<-142.749 -129>
VStem: 246 80<3 468>
Fore
-132 685 m 0
 -132 685 l 0
 -260 685 -260 876 -132 876 c 0
 -6 876 -6 685 -132 685 c 0
326 3 m 1
 246 3 l 1
 246 459 l 2
 246 515 212 558 151 558 c 0
 83 558 34 516 18 499 c 1
 18 542 l 1
 37 562 83 602 161 602 c 0
 266 602 326 558 326 464 c 2
 326 3 l 1
-81 779 m 0
 -81 808 -104 829 -132 829 c 0
 -161 829 -183 808 -183 779 c 0
 -183 751 -161 728 -132 728 c 0
 -104 728 -81 751 -81 779 c 0
EndSplineSet
MultipleSubs: 0 1 'ccmp' uni0E4D uni0E32
EndChar
StartChar: uni0E34
Encoding: 212 3636 179
Width: 0
Flags: W
AnchorPoint: "AboveMark" -144.384 967.68 basemark 0
AnchorPoint: "AboveBase" -105.984 645.12 mark 0
Fore
-84 651 m 0
 -84 651 l 0
 -126 671 -210 713 -312 730 c 0
 -418 748 -481 737 -535 728 c 1
 -507 823 -418 900 -307 892 c 0
 -177 883 -94 796 -84 651 c 0
-140 717 m 1
 -178 808 -238 837 -310 843 c 0
 -379 849 -430 820 -458 777 c 1
 -415 782 -367 780 -312 773 c 0
 -223 760 -140 717 -140 717 c 1
EndSplineSet
EndChar
StartChar: uni0E35
Encoding: 213 3637 180
Width: 0
Flags: W
VStem: -181 75<849 951>
AnchorPoint: "AboveMark" -144.384 967.68 basemark 0
AnchorPoint: "AboveBase" -105.984 645.12 mark 0
Fore
-181 849 m 0
 -181 951 l 1
 -106 951 l 5
 -106 951 -106 753 -106 751 c 0
 -94 722 -88 688 -84 651 c 1
 -126 671 -210 713 -312 730 c 0
 -418 748 -481 737 -535 728 c 1
 -507 823 -418 900 -307 892 c 0
 -258 889 -215 874 -181 849 c 0
-140 717 m 1
 -178 808 -238 837 -310 843 c 0
 -379 849 -430 820 -458 777 c 1
 -415 782 -367 780 -312 773 c 0
 -223 760 -140 717 -140 717 c 1
EndSplineSet
EndChar
StartChar: uni0E36
Encoding: 214 3638 181
Width: 0
Flags: W
HStem: 906 45<-143 -132>
AnchorPoint: "AboveMark" -142.848 967.68 basemark 0
AnchorPoint: "AboveBase" -105.984 645.12 mark 0
Fore
-84 651 m 0
 -84 651 l 0
 -146 684 -246 722 -324 731 c 1
 -430 748 -493 736 -533 728 c 1
 -511 822 -419 899 -310 894 c 1
 -264 889 -230 874 -230 874 c 1
 -232 892 -218 951 -143 951 c 4
 -32 951 -28 802 -120 780 c 1
 -120 780 -89 731 -84 651 c 0
-143 820 m 0
 -143 820 l 0
 -84 820 -84 906 -143 906 c 0
 -203 906 -203 820 -143 820 c 0
-140 717 m 1
 -178 808 -238 837 -310 843 c 0
 -379 849 -430 820 -458 777 c 1
 -415 782 -367 780 -312 773 c 0
 -223 760 -140 717 -140 717 c 1
EndSplineSet
EndChar
StartChar: uni0E37
Encoding: 215 3639 182
Width: 0
Flags: W
VStem: -310 70<876 951> -175 69<831 951>
AnchorPoint: "AboveMark" -207.36 967.68 basemark 0
AnchorPoint: "AboveBase" -105.984 645.12 mark 0
Fore
-83 648 m 0
 -83 648 l 0
 -152 684 -233 714 -323 728 c 0
 -412 742 -472 737 -531 725 c 1
 -485 888 -310 876 -310 876 c 1
 -309 951 l 1
 -240 951 l 1
 -238 863 l 1
 -200 852 -175 831 -175 831 c 1
 -174 951 l 1
 -106 951 l 5
 -104 743 l 1
 -104 743 -88 714 -83 648 c 0
-141 714 m 1
 -169 788 -224 823 -310 829 c 0
 -367 834 -425 816 -461 773 c 1
 -419 779 -372 776 -309 768 c 0
 -227 757 -141 714 -141 714 c 1
EndSplineSet
EndChar
StartChar: uni0E38
Encoding: 216 3640 183
Width: 0
Flags: W
HStem: -220 36<-218 -212>
VStem: -183 79<-307 -155>
AnchorPoint: "BelowBase" -104.448 -69.1201 mark 0
Fore
-104 -307 m 5
 -183 -307 l 1
 -183 -214 l 1
 -187 -215 -197 -220 -218 -220 c 0
 -318 -218 -318 -77 -218 -69 c 0
 -155 -66 -109 -95 -104 -155 c 1
 -104 -307 l 5
-218 -184 m 0
 -164 -184 -164 -104 -218 -104 c 0
 -272 -104 -272 -184 -218 -184 c 0
EndSplineSet
EndChar
StartChar: uni0E39
Encoding: 217 3641 184
Width: 0
Flags: W
HStem: -307 34<-217 -198> -206 28<-342 -330> -101 32<-342 -324>
VStem: -300 51<-239 -157> -183 79<-238 -69>
AnchorPoint: "BelowBase" -104.448 -69.1201 mark 0
Fore
-104 -212 m 1
 -104 -212 l 0
 -104 -264 -137 -307 -198 -307 c 0
 -260 -307 -300 -275 -300 -226 c 2
 -300 -201 l 1
 -304 -203 -310 -206 -332 -206 c 0
 -429 -204 -429 -69 -332 -69 c 0
 -272 -69 -247 -106 -249 -157 c 1
 -249 -238 l 1
 -252 -257 -237 -273 -217 -273 c 0
 -195 -273 -183 -261 -183 -238 c 2
 -183 -69 l 1
 -104 -69 l 5
 -104 -212 l 1
-296 -140 m 0
 -296 -117 -313 -101 -333 -101 c 0
 -355 -101 -373 -117 -373 -140 c 0
 -373 -158 -355 -178 -333 -178 c 0
 -313 -178 -296 -158 -296 -140 c 0
EndSplineSet
EndChar
StartChar: uni0E3A
Encoding: 218 3642 185
Width: 0
Flags: W
AnchorPoint: "BelowBase" -104.448 -58.3682 mark 0
Fore
-141 -161 m 0
 -214 -161 -214 -55 -141 -55 c 0
 -74 -55 -75 -161 -141 -161 c 0
EndSplineSet
EndChar
StartChar: zerospace
Encoding: 220 8203 186
Width: 798
Flags: W
HStem: 0 60<98 611>
VStem: 98 66<-183 -38> 667 66<-183 60>
Fore
733 -183 m 1
 667 -183 l 1
 667 -52 l 2
 667 -17 647 0 605 0 c 2
 215 0 l 2
 181 0 164 -15 164 -48 c 2
 164 -183 l 1
 98 -183 l 1
 98 60 l 1
 733 60 l 1
 733 -183 l 1
EndSplineSet
EndChar
StartChar: dottedcircle
Encoding: 221 9676 187
Width: 649
Flags: W
HStem: 5 36<343 345> 41 39<194 199> 52 39<472 474> 134 36<94 101> 146 37<554 556> 276 37<590 592> 283 36<57 59> 412 37<554 556> 501 38<459 461> 508 37<203 205> 544 37<341 345>
VStem: 38 37<301 303> 75 37<152 154> 83 37<436 438> 174 38<61 63> 184 39<527 529> 324 37<23 25 562 566> 441 38<519 521> 453 37<71 73> 536 37<164 170 430 436> 571 39<295 301>
Fore
91 453 m 6
192 544 m 6
181 78 m 6
83 169 m 6
461 88 m 6
542 181 m 6
542 447 m 6
449 536 m 6
579 312 m 6
46 318 m 6
330 579 m 6
101 455 m 4,11,12
 112 455 120 445 120 436 c 4,13,14
 120 425 112 416 101 416 c 4,15,16
 91 416 83 425 83 436 c 4,17,18
 83 445 91 455 101 455 c 4,11,12
203 545 m 4,19,20
 214 545 223 538 223 527 c 4,21,22
 223 518 214 508 203 508 c 4,23,24
 194 508 184 518 184 527 c 4,25,26
 184 538 194 545 203 545 c 4,19,20
194 80 m 4,27,28
 203 80 212 71 212 61 c 4,29,30
 212 51 203 41 194 41 c 4,31,32
 183 41 174 51 174 61 c 4,33,34
 174 71 183 80 194 80 c 4,27,28
94 170 m 4,35,36
 104 170 112 163 112 152 c 4,37,38
 112 141 104 134 94 134 c 4,39,40
 83 134 75 141 75 152 c 4,41,42
 75 163 83 170 94 170 c 4,35,36
472 91 m 4,43,44
 482 91 490 81 490 71 c 4,45,46
 490 61 482 52 472 52 c 4,47,48
 462 52 453 61 453 71 c 4,49,50
 453 81 462 91 472 91 c 4,43,44
554 183 m 4,51,52
 565 183 573 175 573 164 c 4,53,54
 573 154 565 146 554 146 c 4,55,56
 544 146 536 154 536 164 c 4,57,58
 536 175 544 183 554 183 c 4,51,52
554 449 m 4,59,60
 565 449 573 441 573 430 c 4,61,62
 573 419 565 412 554 412 c 4,63,64
 544 412 536 419 536 430 c 4,65,66
 536 441 544 449 554 449 c 4,59,60
459 539 m 4,67,68
 470 539 479 530 479 519 c 4,69,70
 479 510 470 501 459 501 c 4,71,72
 450 501 441 510 441 519 c 4,73,74
 441 530 450 539 459 539 c 4,67,68
590 313 m 4,75,76
 601 313 610 306 610 295 c 4,77,78
 610 284 601 276 590 276 c 4,79,80
 581 276 571 284 571 295 c 4,81,82
 571 306 581 313 590 313 c 4,75,76
57 319 m 4,83,84
 68 319 75 312 75 301 c 4,85,86
 75 292 68 283 57 283 c 4,87,88
 46 283 38 292 38 301 c 4,89,90
 38 312 46 319 57 319 c 4,83,84
343 41 m 4,91,92
 353 41 361 34 361 23 c 4,93,94
 361 12 353 5 343 5 c 4,95,96
 333 5 324 12 324 23 c 4,97,98
 324 34 333 41 343 41 c 4,91,92
341 581 m 4,99,100
 352 581 359 571 359 562 c 4,101,102
 359 551 352 544 341 544 c 4,103,104
 332 544 323 551 323 562 c 4,105,106
 323 571 332 581 341 581 c 4,99,100
EndSplineSet
EndChar
StartChar: uni0E3F
Encoding: 223 3647 188
Width: 752
Flags: W
HStem: 3 17<35 35 35 336> 359 40<246 336> 707 15<35 54.497 35 80.5>
VStem: 141 105<85 359 88 650> 336 68<-106 3 38 349 399 674 723 822> 518 107<533 551> 541 119<181 215>
Fore
660 200 m 0xfa
 660 200 l 0xfa
 660 77 561 11 406 3 c 1
 404 -106 l 1
 338 -106 l 1
 336 2 l 1
 35 3 l 1
 35 20 l 1
 126 20 141 54 141 88 c 2
 141 637 l 2
 141 670 126 705 35 707 c 1
 35 722 l 1
 68 722 333 723 336 723 c 1
 338 822 l 1
 404 822 l 1
 406 720 l 1
 531 708 625 656 625 541 c 0xfc
 625 450 564 404 481 382 c 1
 481 376 l 1
 574 359 660 304 660 200 c 0xfa
518 536 m 0xfc
 518 536 l 0
 518 614 473 659 406 674 c 1
 406 406 l 1
 475 422 518 467 518 536 c 0xfc
336 399 m 1
 336 684 l 0
 272 687 246 682 246 650 c 2
 246 399 l 1
 336 399 l 1
336 38 m 0
 336 359 l 0
 327 359 246 359 246 359 c 1
 246 100 l 2
 246 60 258 38 336 38 c 0
541 203 m 0xfa
 541 292 478 333 406 349 c 1
 406 45 l 1
 485 58 541 100 541 203 c 0xfa
EndSplineSet
EndChar
StartChar: uni0E40
Encoding: 224 3648 189
Width: 337
Flags: W
HStem: -5 40<200 210> 127 39<200 210>
VStem: 97 80<109 535>
Fore
200 -5 m 0
 200 -5 l 0
 132 -5 97 54 97 109 c 2
 97 535 l 1
 149 593 l 1
 160 601 178 607 177 571 c 0
 177 570 177 164 177 164 c 1
 177 164 190 166 200 166 c 0
 310 166 313 -5 200 -5 c 0
200 35 m 0
 263 35 263 127 200 127 c 0
 138 127 138 35 200 35 c 0
EndSplineSet
EndChar
StartChar: uni0E41
Encoding: 225 3649 190
Width: 609
Flags: W
HStem: -5 40<200 210 470 472> 127 39<200 210 470 472>
VStem: 97 80<109 535> 367 80<109 535>
Fore
470 -5 m 0
 470 -5 l 0
 402 -5 367 54 367 109 c 2
 367 535 l 1
 419 593 l 1
 430 601 449 607 447 571 c 0
 447 570 447 164 447 164 c 1
 447 164 461 166 470 166 c 0
 581 166 584 -5 470 -5 c 0
200 -5 m 0
 200 -5 l 0
 132 -5 97 54 97 109 c 2
 97 535 l 1
 149 593 l 1
 160 601 178 607 177 571 c 0
 177 570 177 164 177 164 c 1
 177 164 190 166 200 166 c 0
 310 166 313 -5 200 -5 c 0
470 35 m 0
 470 35 l 0
 533 35 533 127 470 127 c 0
 409 127 409 35 470 35 c 0
200 35 m 0
 263 35 263 127 200 127 c 0
 138 127 138 35 200 35 c 0
EndSplineSet
EndChar
StartChar: uni0E42
Encoding: 226 3650 191
Width: 331
Flags: W
HStem: -5 40<226 237> 127 39<226 237>
VStem: 134 78<106 694>
DStem: -52 836 3 860 98 757 167 770
Fore
333 909 m 0
 333 909 l 0
 293 777 187 845 186 845 c 0
 57 914 28 895 3 860 c 1
 167 770 l 2
 184 760 215 743 212 694 c 1
 212 164 l 1
 218 167 223 166 226 166 c 0
 335 166 336 -5 226 -5 c 0
 154 -5 134 51 134 106 c 2
 134 700 l 1
 135 719 134 739 98 757 c 2
 -52 836 l 1
 -40 862 2 955 80 958 c 0
 147 962 278 865 321 919 c 0
 329 926 338 923 333 909 c 0
226 35 m 0
 286 35 286 127 226 127 c 0
 164 127 164 35 226 35 c 0
EndSplineSet
EndChar
StartChar: uni0E43
Encoding: 227 3651 192
Width: 362
Flags: W
HStem: -5 40<235.062 251> 127 37<233 251> 679 40<28.6552 43> 793 36<40 42> 908 50<73 88>
VStem: 155 78<106 828>
Fore
246 -5 m 0
 246 -5 l 0
 177 -5 155 51 155 106 c 2
 155 811 l 2
 155 862 127 906 78 908 c 0
 20 908 -11 868 -12 803 c 1
 2 826 31 829 40 829 c 0
 141 829 141 679 38 679 c 0
 -37 679 -57 768 -54 828 c 1
 -46 900 2 958 88 958 c 0
 181 958 233 892 233 808 c 2
 233 164 l 1
 235 164 241 166 246 166 c 0
 355 166 359 -5 246 -5 c 0
40 793 m 0
 40 793 l 0
 15 793 2 777 2 756 c 0
 2 740 12 719 38 719 c 0
 89 719 88 793 40 793 c 0
246 35 m 0
 309 35 309 127 246 127 c 0
 183 127 183 35 246 35 c 0
EndSplineSet
EndChar
StartChar: uni0E44
Encoding: 228 3652 193
Width: 403
Flags: W
HStem: -5 40<281.282 295> 127 37<278 294> 654 37<69 86> 919 39<175 195>
VStem: -9 58<720 931> 108 36<714 883> 203 75<106 885>
Fore
292 -5 m 0
 292 -5 l 0
 223 -5 203 51 203 106 c 2
 203 883 l 2
 203 905 192 919 175 919 c 0
 154 919 144 900 144 883 c 2
 144 730 l 2
 144 688 123 654 71 654 c 0
 20 653 -9 690 -9 734 c 2
 -9 909 l 2
 -9 919 -8 929 -23 945 c 0
 -35 957 -41 958 -55 971 c 1
 -66 983 -52 992 -38 983 c 1
 29 962 l 1
 51 949 49 942 49 931 c 2
 49 720 l 2
 49 703 60 691 78 691 c 0
 94 691 108 702 108 720 c 2
 108 866 l 2
 108 917 134 958 195 958 c 0
 255 958 278 914 278 871 c 2
 278 164 l 1
 283 164 289 166 292 166 c 0
 402 166 406 -5 292 -5 c 0
292 35 m 0
 356 35 356 127 292 127 c 0
 230 127 230 35 292 35 c 0
EndSplineSet
EndChar
StartChar: uni0E45
Encoding: 229 3653 194
Width: 304
Flags: W
HStem: 558 44<23 40>
VStem: 123 80<-177 467>
Fore
203 -177 m 1
 151 -235 l 1
 140 -243 121 -249 123 -214 c 0
 123 -192 123 459 123 459 c 2
 123 515 89 558 28 558 c 0
 -40 558 -89 516 -104 499 c 1
 -104 542 l 1
 -86 562 -40 602 38 602 c 0
 143 602 203 558 203 464 c 2
 203 -177 l 1
EndSplineSet
EndChar
StartChar: uni0E46
Encoding: 230 3654 195
Width: 703
Flags: W
HStem: 263 32<339 341>
VStem: 516 77<-177 479>
Fore
593 -177 m 1
 544 -235 l 0
 533 -243 515 -249 516 -214 c 0
 516 -192 516 464 516 464 c 2
 516 504 502 518 479 524 c 1
 406 455 l 1
 392 468 333 524 333 524 c 1
 287 499 276 429 283 399 c 1
 283 399 310 416 339 416 c 0
 442 413 441 263 339 263 c 0
 252 263 229 350 229 424 c 0
 229 479 263 565 333 598 c 1
 406 528 l 1
 479 599 l 1
 571 598 593 527 593 464 c 2
 593 -177 l 1
339 295 m 0
 398 295 398 382 339 382 c 0
 281 382 281 295 339 295 c 0
EndSplineSet
EndChar
StartChar: uni0E47
Encoding: 231 3655 196
Width: 0
Flags: W
HStem: 668 94<-416 -415.948> 757 57<-359 -352>
VStem: -250 35<751 764> -131 39<753 764>
AnchorPoint: "AboveMark" -290.304 645.12 mark 0
AnchorPoint: "AboveBase" -130.56 645.12 mark 0
Fore
-75 1028 m 1xb0
 -75 1028 l 0
 -75 919 -147 868 -300 892 c 0
 -373 905 -416 903 -429 837 c 0
 -435 806 -425 773 -416 762 c 1xb0
 -416 762 -415 814 -355 814 c 0x70
 -293 814 -275 753 -246 739 c 1
 -246 739 -250 748 -250 756 c 0
 -250 862 -92 860 -92 753 c 0
 -92 696 -137 667 -172 668 c 0xb0
 -290 671 -295 759 -352 757 c 0x70
 -399 756 -396 685 -381 668 c 1
 -421 668 l 1
 -467 705 -505 785 -484 865 c 0
 -472 911 -436 963 -286 943 c 0
 -194 931 -147 935 -154 1028 c 1
 -75 1028 l 1xb0
-131 753 m 0
 -131 809 -215 809 -215 753 c 0
 -215 699 -131 699 -131 753 c 0
EndSplineSet
EndChar
StartChar: uni0E48
Encoding: 232 3656 197
Width: 0
Flags: W
AnchorPoint: "AboveMark" -139.776 967.68 mark 0
Fore
-100 1210 m 5
 -112 1009 l 1
 -166 1009 l 1
 -178 1210 l 1
 -100 1210 l 5
EndSplineSet
Substitution: 0 65534 'loww' uni0E48.low
Substitution: 0 65534 'amni' uni0E4D
EndChar
StartChar: uni0E49
Encoding: 233 3657 198
Width: 0
Flags: W
HStem: 1063 37<-207.856 -194> 1184 34<-207.856 -194>
AnchorPoint: "AboveMark" -55.2959 967.68 mark 0
Fore
134 1213 m 1
 134 1213 l 0
 112 1040 -65 951 -243 978 c 1
 -243 1008 l 1
 -233 1011 -195 1032 -181 1066 c 1
 -181 1066 l 1
 -181 1066 -187 1063 -197 1063 c 0
 -304 1063 -303 1218 -197 1218 c 0
 -121 1218 -117 1143 -117 1143 c 1
 -117 1061 -163 1021 -163 1021 c 1
 -167 1017 l 1
 -74 1025 49 1087 54 1213 c 1
 134 1213 l 1
-197 1100 m 0
 -141 1100 -141 1184 -197 1184 c 0
 -257 1184 -257 1100 -197 1100 c 0
EndSplineSet
Substitution: 0 65534 'loww' uni0E49.low
Substitution: 0 65534 'amni' uni0E4D
EndChar
StartChar: uni0E4A
Encoding: 234 3658 199
Width: 0
Flags: W
VStem: -283 62<1055 1115> -146 31<1049 1062>
AnchorPoint: "AboveMark" -107.52 967.68 mark 0
Fore
121 1229 m 1
 121 1229 l 0
 129 1091 52 1009 -69 992 c 5
 -69 1017 l 1
 -14 1051 -20 1158 -71 1172 c 1
 -127 1134 l 1
 -181 1172 l 1
 -218 1172 -246 1129 -240 1091 c 1
 -240 1091 -230 1123 -181 1123 c 0
 -143 1123 -115 1092 -115 1060 c 0
 -115 1020 -138 989 -181 989 c 0
 -244 989 -283 1043 -283 1115 c 0
 -283 1166 -233 1226 -181 1226 c 1
 -181 1226 -127 1180 -126 1180 c 2
 -72 1224 l 1
 43 1195 23 1094 2 1051 c 1
 58 1089 74 1157 57 1229 c 1
 121 1229 l 1
-146 1055 m 0
 -146 1106 -221 1106 -221 1055 c 0
 -221 1006 -146 1006 -146 1055 c 0
EndSplineSet
Substitution: 0 65534 'loww' uni0E4A.low
Substitution: 0 65534 'amni' uni0E4D
EndChar
StartChar: uni0E4B
Encoding: 235 3659 200
Width: 0
Flags: W
HStem: 1080 58<-281 -174 -112 -9>
VStem: -177 65<1140 1229>
DStem: -175 1140 -112 1140 -281 1138 -9 1138
AnchorPoint: "AboveMark" -145.92 967.68 mark 0
Fore
-9 1081 m 5
 -114 1080 l 1
 -115 992 l 1
 -172 992 l 1
 -174 1080 l 1
 -281 1081 l 1
 -281 1138 l 1
 -175 1140 l 1
 -177 1229 l 1
 -111 1229 l 1
 -112 1140 l 1
 -9 1138 l 1
 -9 1081 l 5
EndSplineSet
MinimumDistance: x8,9 
Substitution: 0 65534 'loww' uni0E4B.low
Substitution: 0 65534 'amni' uni0E4D
EndChar
StartChar: uni0E4C
Encoding: 236 3660 201
Width: 0
Flags: W
HStem: 902 29<-180.187 -167>
AnchorPoint: "AboveMark" -170.496 890.88 mark 0
Fore
46 1143 m 1
 46 1143 l 0
 12 1043 -143 1041 -135 1038 c 0
 -69 1009 -88 902 -169 902 c 4
 -218 902 -247 932 -247 975 c 0
 -247 1035 -198 1069 -127 1081 c 0
 -101 1086 -18 1118 -15 1172 c 1
 46 1143 l 1
-170 931 m 0
 -114 931 -114 1014 -170 1014 c 0
 -226 1014 -226 931 -170 931 c 0
EndSplineSet
Substitution: 0 65534 'loww' uni0E4C.low
EndChar
StartChar: uni0E4D
Encoding: 237 3661 202
Width: 0
Flags: W
HStem: 668 43<-151.318 -138> 813 46<-151.514 -138>
AnchorPoint: "AboveMark" -141.312 645.12 mark 0
AnchorPoint: "AboveMark" -141.312 967.68 basemark 0
AnchorPoint: "AboveBase" -105.984 645.12 mark 0
Fore
-141 668 m 0
 -141 668 l 0
 -269 668 -269 859 -141 859 c 0
 -15 859 -15 668 -141 668 c 0
-91 762 m 0
 -91 791 -114 813 -141 813 c 0
 -170 813 -192 791 -192 762 c 0
 -192 734 -170 711 -141 711 c 0
 -114 711 -91 734 -91 762 c 0
EndSplineSet
Substitution: 0 65534 'G006' uni0E4B
Substitution: 0 65534 'G005' uni0E4A
Substitution: 0 65534 'G004' uni0E49
Substitution: 0 65534 'G003' uni0E48
EndChar
StartChar: uni0E4E
Encoding: 238 3662 203
Width: 0
Flags: W
AnchorPoint: "AboveBase" -105.984 645.12 mark 0
Fore
91 865 m 2
 5 923 -41 862 -20 816 c 1
 -20 816 -15 805 -18 800 c 0
 -26 788 -57 759 -72 762 c 0
 -75 762 -80 765 -80 765 c 1
 -144 831 -226 765 -178 696 c 1
 -178 696 -169 685 -175 680 c 0
 -184 674 -212 654 -221 651 c 0
 -227 650 -233 657 -233 657 c 1
 -323 762 -177 903 -66 806 c 1
 -65 808 l 1
 -111 908 25 980 118 900 c 1
 118 900 121 897 120 892 c 0
 117 882 108 862 95 863 c 0
 94 863 91 865 91 865 c 2
EndSplineSet
EndChar
StartChar: uni0E4F
Encoding: 239 3663 204
Width: 737
Flags: W
HStem: -2 54<369 376> 164 43<369 376> 276 20G<611 611> 296 21G<502 502 713 713> 382 47<369 376> 539 55<369 376>
VStem: 23 101<296 319> 233 73<296 303> 432 70<296 303> 611 102<296 319>
Fore
713 296 m 0
 713 296 l 0
 713 101 530 -2 369 -2 c 0
 203 -2 23 101 23 296 c 0
 23 492 203 594 369 594 c 0
 530 594 713 492 713 296 c 0
611 296 m 0
 611 296 l 0
 611 430 502 539 369 539 c 0
 232 539 124 430 124 296 c 0
 124 163 232 52 369 52 c 0
 502 52 611 163 611 296 c 0
502 296 m 0
 502 296 l 0
 502 218 439 164 369 164 c 0
 293 164 233 218 233 296 c 0
 233 376 293 429 369 429 c 0
 439 429 502 376 502 296 c 0
432 296 m 0
 432 341 413 382 369 382 c 0
 324 382 306 341 306 296 c 0
 306 252 324 207 369 207 c 0
 413 207 432 252 432 296 c 0
EndSplineSet
EndChar
StartChar: uni0E50
Encoding: 240 3664 205
Width: 645
Flags: W
HStem: -8 45<323 341> 430 45<323 341>
VStem: 52 80<215 249> 508 80<215 249>
Fore
588 232 m 0
 588 232 l 0
 588 92 468 -8 323 -8 c 0
 172 -8 52 89 52 233 c 0
 52 373 172 475 323 475 c 0
 468 475 588 373 588 232 c 0
508 233 m 0
 508 336 432 430 323 430 c 0
 210 430 132 341 132 232 c 0
 132 126 215 37 323 37 c 0
 430 37 508 132 508 233 c 0
EndSplineSet
EndChar
StartChar: uni0E51
Encoding: 241 3665 206
Width: 645
Flags: W
HStem: 430 45<319 340>
VStem: 51 80<232 244> 217 46<178 185> 346 64<152 183> 515 79<210 244>
Fore
594 232 m 0
 594 232 l 0
 594 104 519 0 399 -29 c 1
 366 -14 l 1
 495 32 515 146 515 233 c 0
 515 353 425 430 319 430 c 0
 214 430 131 352 131 232 c 0
 131 8 336 0 352 115 c 1
 352 115 341 95 301 95 c 0
 249 95 217 137 217 181 c 0
 217 230 252 269 306 269 c 0
 376 269 410 214 410 152 c 0
 410 -74 51 -65 51 232 c 0
 51 386 177 475 319 475 c 0
 459 475 594 384 594 232 c 0
346 183 m 0
 346 238 263 238 263 183 c 0
 263 127 346 127 346 183 c 0
EndSplineSet
EndChar
StartChar: uni0E52
Encoding: 242 3666 207
Width: 645
Flags: W
HStem: 0 45<185 478>
VStem: 48 75<111 577> 527 74<164 257>
Fore
601 232 m 0
 601 232 l 0
 601 180 601 146 593 104 c 0
 582 46 570 0 472 0 c 2
 194 0 l 2
 92 0 48 54 48 126 c 2
 48 551 l 2
 48 644 35 664 35 664 c 1
 25 703 54 696 68 687 c 1
 106 641 l 1
 106 641 123 622 123 551 c 2
 123 124 l 2
 123 74 158 45 198 45 c 2
 465 45 l 2
 505 45 516 71 521 95 c 0
 530 166 527 160 527 233 c 0
 527 318 521 402 476 412 c 0
 444 418 415 350 409 312 c 0
 402 275 362 270 355 313 c 0
 349 352 319 418 287 412 c 0
 252 404 229 327 246 235 c 1
 246 235 258 253 290 253 c 0
 404 250 399 83 290 83 c 0
 224 83 195 131 184 184 c 0
 149 353 200 475 283 472 c 0
 344 470 375 401 379 364 c 1
 384 364 l 1
 390 401 422 470 484 472 c 0
 573 473 601 352 601 232 c 0
330 166 m 0
 330 223 246 223 246 166 c 0
 246 112 330 112 330 166 c 0
EndSplineSet
EndChar
StartChar: uni0E53
Encoding: 243 3667 208
Width: 645
Flags: W
HStem: -8 21G<164.5 219> 412 61<206 214>
VStem: 235 43<71 86> 303 49<197 256>
Fore
427 412 m 0
 427 412 l 0
 378 406 352 316 352 238 c 0
 352 223 352 214 352 197 c 0
 352 160 303 161 303 197 c 0
 303 212 303 223 303 237 c 0
 303 339 260 412 212 412 c 0
 164 412 97 352 137 137 c 1
 137 137 157 163 194 163 c 0
 244 163 278 123 278 77 c 0
 278 31 244 -8 194 -8 c 0
 135 -8 94 32 75 86 c 0
 26 224 29 473 210 473 c 0
 290 473 324 370 324 370 c 1
 326 370 l 1
 350 450 392 473 441 473 c 0
 604 473 631 253 562 11 c 1
 519 0 l 2
 505 -2 484 -8 492 25 c 0
 554 286 508 421 427 412 c 0
235 75 m 0
 235 132 151 132 151 75 c 0
 151 20 235 20 235 75 c 0
EndSplineSet
EndChar
StartChar: uni0E54
Encoding: 244 3668 209
Width: 645
Flags: W
HStem: 421 47<367 376> 424 48<287 304>
VStem: 55 80<243 259> 258 68<235 257> 410 45<250 259>
Fore
410 257 m 0x38
 410 257 l 0
 410 312 326 312 326 257 c 0
 326 200 410 200 410 257 c 0x38
561 46 m 0
 567 46 584 49 590 49 c 0
 611 49 599 29 599 29 c 1
 582 0 l 1
 582 0 493 0 404 3 c 0
 362 5 330 -2 289 -5 c 0
 174 -11 55 78 55 243 c 0
 55 398 170 472 292 472 c 0x78
 330 472 339 468 367 468 c 0
 461 468 533 536 533 690 c 1
 602 670 l 2
 608 668 614 664 613 650 c 0
 604 519 521 421 373 421 c 0xb8
 355 421 323 424 304 424 c 0x78
 184 424 137 329 135 243 c 0
 135 134 181 35 312 45 c 0
 326 46 335 48 350 48 c 0
 372 48 396 45 396 45 c 1
 332 69 258 140 258 235 c 0
 258 309 316 349 373 344 c 0
 424 339 455 304 455 252 c 0
 455 186 378 146 326 184 c 1
 326 146 447 37 561 46 c 0
EndSplineSet
EndChar
StartChar: uni0E55
Encoding: 245 3669 210
Width: 645
Flags: W
HStem: 422 189<304 344>
VStem: 55 80<243 259> 238 46<503 509> 258 68<235 257> 402 48<503 509> 410 45<250 259>
Fore
410 257 m 0xd4
 410 257 l 0
 410 312 326 312 326 257 c 0
 326 200 410 200 410 257 c 0xd4
402 507 m 0xe8
 402 507 l 0
 402 587 284 587 284 507 c 0
 284 488 290 478 296 470 c 1
 319 467 367 467 390 472 c 1
 398 481 402 492 402 507 c 0xe8
531 690 m 1
 602 670 l 2
 608 668 614 664 613 650 c 0
 604 515 513 422 381 421 c 0
 361 421 323 422 304 422 c 0
 184 422 137 329 135 243 c 0
 135 134 181 35 312 45 c 0
 326 46 335 48 350 48 c 0
 372 48 398 43 398 43 c 1
 335 68 258 140 258 235 c 0
 258 309 316 349 373 344 c 0
 424 339 455 304 455 252 c 0
 455 186 378 146 326 184 c 1xd4
 326 146 447 37 561 46 c 0
 567 46 584 49 590 49 c 0
 611 49 599 29 599 29 c 1
 582 0 l 1
 582 0 493 0 404 3 c 0
 362 5 330 -2 289 -5 c 0
 174 -11 55 78 55 243 c 0
 55 390 158 456 249 468 c 1
 243 479 238 492 238 505 c 0
 238 570 284 611 344 611 c 0
 407 611 450 568 450 505 c 0
 450 496 449 490 444 485 c 1
 478 508 535 553 531 690 c 1
EndSplineSet
EndChar
StartChar: uni0E56
Encoding: 246 3670 211
Width: 645
Flags: W
HStem: -8 45<310 324> 430 45<306 324>
VStem: 235 43<183 201> 502 80<230 249>
Fore
306 475 m 0
 306 475 l 0
 462 475 582 381 582 230 c 0
 582 94 492 -8 310 -8 c 0
 22 -8 29 280 192 280 c 0
 244 280 278 238 278 190 c 0
 278 146 249 104 194 104 c 0
 166 104 154 120 154 120 c 1
 163 72 238 37 310 37 c 0
 421 37 502 118 502 230 c 0
 502 349 413 430 306 430 c 0
 263 430 203 419 160 393 c 0
 149 386 114 393 117 435 c 1
 117 544 95 610 54 674 c 0
 51 680 48 691 61 691 c 2
 138 691 l 1
 155 664 190 564 183 453 c 1
 212 468 263 475 306 475 c 0
235 192 m 0
 235 247 151 247 151 192 c 0
 151 135 235 135 235 192 c 0
EndSplineSet
EndChar
StartChar: uni0E57
Encoding: 247 3671 212
Width: 645
Flags: W
HStem: -8 21G<142 200.5> 418 54<172 178 375 375>
VStem: 214 44<71 80> 249 47<275 293.283>
Fore
587 671 m 0xe0
 587 671 l 0
 670 430 619 43 459 -2 c 1
 459 -2 395 -18 402 22 c 1
 402 22 419 97 429 146 c 0
 464 355 413 418 375 418 c 0
 333 418 309 366 301 326 c 0
 298 312 296 287 296 275 c 0
 292 240 253 238 249 275 c 0xd0
 249 290 246 313 243 327 c 0
 235 370 209 418 172 418 c 0
 138 418 74 367 115 138 c 1
 115 138 137 163 175 163 c 0
 224 163 258 124 258 78 c 0
 258 32 226 -8 175 -8 c 0
 109 -8 71 38 55 94 c 0
 2 281 32 465 174 472 c 0
 215 473 260 427 270 362 c 1
 275 362 l 1
 283 427 333 473 375 472 c 0
 505 465 545 284 461 52 c 1
 461 52 496 68 513 109 c 0
 573 249 590 459 515 641 c 1
 551 687 l 2
 562 702 574 710 587 671 c 0xe0
214 75 m 0xe0
 214 132 131 132 131 75 c 0
 131 20 214 20 214 75 c 0xe0
EndSplineSet
EndChar
StartChar: uni0E58
Encoding: 248 3672 213
Width: 645
Flags: W
HStem: -3 21G<428 491.5> 289 47<499 506> 421 47<364 381> 424 49<275 303>
VStem: 41 80<215 251> 409 49<238 251>
Fore
598 240 m 0xdc
 598 240 l 0
 610 71 528 -3 455 -3 c 0
 401 -3 303 6 284 152 c 1
 260 134 241 48 235 -6 c 1
 170 -8 40 69 41 243 c 0
 43 398 154 473 275 473 c 0xdc
 304 473 341 468 364 468 c 0
 450 468 521 542 518 690 c 1
 588 668 l 2
 596 667 602 662 601 648 c 0
 590 519 499 421 381 421 c 0xec
 352 421 327 424 303 424 c 0
 177 424 121 338 121 241 c 0
 121 160 143 95 197 61 c 1
 197 61 214 192 286 220 c 1
 329 214 l 1
 329 2 524 0 527 166 c 1
 452 143 409 200 409 246 c 0
 409 303 449 336 499 336 c 0
 571 336 594 284 598 240 c 0xdc
541 247 m 0
 541 272 522 289 499 289 c 0
 475 289 458 272 458 247 c 0
 458 223 475 206 499 206 c 0
 522 206 541 223 541 247 c 0
EndSplineSet
EndChar
StartChar: uni0E59
Encoding: 249 3673 214
Width: 645
Flags: W
HStem: -9 41<240 244> 115 45<233 243> 346 60<505 512> 346 121<386 510>
VStem: 281 43<74 76>
Fore
281 74 m 0xc8
 281 74 l 0
 281 97 261 115 240 115 c 0
 217 115 198 97 198 74 c 0
 198 51 217 32 240 32 c 0
 261 32 281 51 281 74 c 0xc8
362 362 m 1
 367 356 386 327 392 318 c 0
 468 190 533 40 533 40 c 2
 558 -8 485 -29 461 20 c 2
 461 20 387 178 332 275 c 0
 264 390 203 439 143 398 c 0
 88 361 111 204 177 124 c 1
 177 124 195 160 241 160 c 0
 290 160 324 123 324 74 c 0
 324 31 287 -9 240 -9 c 0
 200 -9 161 11 127 51 c 0
 31 167 5 369 111 442 c 0
 137 461 232 496 318 407 c 1
 318 439 352 467 386 467 c 0xd8
 461 468 461 406 505 406 c 0
 554 406 578 501 547 687 c 1
 628 664 l 1
 636 664 637 659 637 650 c 0
 648 449 602 346 510 346 c 0xe8
 441 346 433 412 395 413 c 0
 367 415 358 389 362 362 c 1
EndSplineSet
EndChar
StartChar: uni0E5A
Encoding: 250 3674 215
Width: 731
Flags: W
HStem: 0 21G<347 425 539 617> 556 38<109 127>
VStem: 347 78<0 591> 539 78<0 591>
Fore
425 0 m 1
 347 0 l 1
 347 465 l 1
 263 382 111 410 71 438 c 0
 -3 490 32 594 117 594 c 0
 161 594 192 571 203 533 c 0
 215 492 190 462 190 462 c 1
 335 452 347 571 347 591 c 1
 425 591 l 1
 425 0 l 1
120 465 m 0
 120 465 l 0
 180 465 180 556 120 556 c 0
 58 556 58 465 120 465 c 0
539 591 m 1
 617 591 l 1
 617 0 l 1
 539 0 l 1
 539 591 l 1
EndSplineSet
EndChar
StartChar: uni0E5B
Encoding: 251 3675 216
Width: 1474
Flags: W
HStem: 210 42<358 378> 280 26<315 333> 401 26<316 320>
VStem: 57 92<313 364> 235 52<336 360> 343 52<349 362> 458 73<375 416>
Fore
1448 335 m 1
 1346 332 l 0
 1330 332 1322 330 1319 315 c 0
 1309 260 1241 261 1235 323 c 0
 1232 358 1198 347 1204 326 c 0
 1221 263 1187 204 1120 192 c 0
 1114 190 1092 190 1095 203 c 0
 1114 281 1109 376 1055 435 c 1
 1052 435 l 1
 1084 378 1083 218 989 170 c 1
 989 170 969 157 948 157 c 0
 932 157 938 175 938 175 c 1
 954 278 931 427 874 473 c 1
 871 473 l 1
 911 390 914 187 774 123 c 1
 774 123 757 117 751 115 c 0
 740 112 728 121 730 131 c 0
 739 187 731 418 636 530 c 1
 633 530 l 1
 667 465 679 366 667 293 c 0
 654 218 582 66 390 49 c 0
 218 34 57 155 57 338 c 0
 57 547 200 637 338 619 c 0
 462 602 531 524 531 392 c 0
 531 309 468 210 369 210 c 0
 293 210 235 263 235 347 c 0
 235 395 270 427 316 427 c 0
 361 427 395 396 395 349 c 0
 395 298 353 280 333 280 c 2
 316 281 l 1
 324 264 336 252 370 252 c 0
 413 252 458 303 458 390 c 0
 458 468 432 559 336 573 c 0
 237 587 149 487 149 336 c 0
 149 192 264 69 390 91 c 0
 593 124 625 409 578 561 c 0
 570 587 599 593 614 587 c 0
 645 574 656 564 664 558 c 0
 788 464 806 312 771 167 c 1
 776 167 l 1
 828 215 852 381 828 504 c 1
 828 504 823 531 852 522 c 0
 869 518 885 508 885 508 c 2
 1014 449 994 284 972 198 c 1
 975 198 l 1
 1021 249 1026 393 1017 464 c 1
 1017 464 1011 485 1038 478 c 0
 1054 473 1063 465 1063 465 c 2
 1161 416 1166 316 1130 224 c 1
 1134 224 l 2
 1157 237 1172 283 1174 329 c 0
 1175 392 1260 392 1264 330 c 0
 1267 300 1290 300 1295 329 c 0
 1301 364 1318 362 1347 361 c 2
 1448 358 l 1
 1448 335 l 1
343 349 m 0
 343 369 339 401 316 401 c 0
 295 401 287 372 287 349 c 0
 287 326 296 306 315 306 c 0
 333 306 343 324 343 349 c 0
EndSplineSet
EndChar
StartChar: uni0E38.low
Encoding: 252 63256 217
Width: 0
Flags: W
HStem: -372 25<-184 -155>
VStem: -155 72<-491.969 -372.031>
Fore
-83 -492 m 1
 -152 -492 l 1
 -155 -372 l 1
 -158 -372 -167 -378 -183 -378 c 0
 -272 -375 -272 -250 -183 -246 c 4
 -127 -243 -92 -264 -83 -323 c 1
 -83 -492 l 1
-183 -347 m 0
 -135 -347 -135 -275 -183 -275 c 0
 -230 -275 -230 -347 -183 -347 c 0
EndSplineSet
EndChar
StartChar: uni0E39.low
Encoding: 253 63257 218
Width: 0
Flags: W
HStem: -493 29<-183 -166> -367 26<-288 -281> -273 27<-288 -281>
VStem: -252 40<-433 -323> -152 69<-432 -250>
Fore
-83 -409 m 1
 -83 -409 l 0
 -88 -455 -112 -493 -166 -493 c 0
 -220 -493 -252 -464 -252 -421 c 1
 -255 -361 l 1
 -260 -362 -266 -367 -283 -367 c 0
 -369 -366 -369 -246 -283 -246 c 0
 -230 -246 -210 -278 -212 -323 c 1
 -212 -432 l 1
 -215 -449 -200 -464 -181 -464 c 0
 -163 -464 -154 -449 -152 -432 c 1
 -152 -250 l 1
 -83 -250 l 5
 -83 -409 l 1
-252 -307 m 0
 -252 -287 -267 -273 -286 -273 c 0
 -304 -273 -321 -287 -321 -307 c 0
 -321 -324 -304 -341 -286 -341 c 0
 -267 -341 -252 -324 -252 -307 c 0
EndSplineSet
EndChar
StartChar: uni0E3A.low
Encoding: 254 63258 219
Width: 0
Flags: W
Fore
-124 -318 m 0
 -180 -318 -180 -233 -124 -233 c 0
 -69 -233 -69 -318 -124 -318 c 0
EndSplineSet
EndChar
StartChar: multiply
Encoding: 256 215 221
Width: 619
Flags: W
DStem: 92 456 138 502 261 286 309 333 261 286 309 238 91 117 138 69 309 238 356 286 479 68 525 115 478 502 524 456 309 333 356 286
Fore
525 115 m 1
 479 68 l 1
 309 238 l 1
 138 69 l 1
 91 117 l 1
 261 286 l 1
 92 456 l 1
 138 502 l 1
 309 333 l 1
 478 502 l 1
 524 456 l 1
 356 286 l 1
 525 115 l 1
EndSplineSet
EndChar
StartChar: divide
Encoding: 257 247 222
Width: 546
Flags: W
HStem: 14 104<262.912 276> 224 57<32 515> 387 106<263.195 276>
VStem: 221 105<66 68 439 447>
Fore
326 439 m 0
 326 439 l 0
 326 409 303 387 273 387 c 0
 244 387 221 413 221 439 c 0
 221 468 243 493 273 493 c 0
 303 493 326 472 326 439 c 0
515 224 m 1
 32 224 l 1
 32 281 l 1
 515 281 l 1
 515 224 l 1
326 66 m 0
 326 34 303 14 273 14 c 0
 244 14 221 37 221 66 c 0
 221 92 243 118 273 118 c 0
 303 118 326 95 326 66 c 0
EndSplineSet
EndChar
StartChar: registered
Encoding: 258 174 223
Width: 735
Flags: W
HStem: -11 42<370 383> 154 13<221 362 524 541> 315 17<323 351> 492 13<223 238 223 375.741> 611 42<370 383>
VStem: 45 46<323 342> 263 60<183.467 315 197 470> 439 60<413 424> 647 46<323 342>
Fore
693 323 m 0
 693 323 l 0
 693 138 548 -11 370 -11 c 0
 189 -11 45 138 45 323 c 0
 45 504 189 653 370 653 c 0
 548 653 693 504 693 323 c 0
647 323 m 0
 647 323 l 0
 647 476 521 611 370 611 c 0
 217 611 91 476 91 323 c 0
 91 164 217 31 370 31 c 0
 521 31 647 164 647 323 c 0
541 154 m 1
 479 154 l 0
 452 154 438 194 421 230 c 0
 382 306 395 316 323 315 c 1
 323 198 l 2
 323 175 324 169 349 169 c 2
 362 167 l 1
 362 154 l 1
 221 154 l 1
 221 167 l 1
 230 167 l 2
 255 169 263 169 263 197 c 2
 263 462 l 2
 263 488 260 492 232 492 c 2
 223 492 l 1
 223 505 l 1
 381 505 l 2
 459 505 499 481 499 422 c 0
 499 369 459 336 410 329 c 1
 410 323 l 1
 449 315 465 273 481 241 c 0
 499 206 507 169 541 167 c 1
 541 154 l 1
439 415 m 0
 439 467 410 492 359 492 c 2
 339 490 l 2
 321 490 323 467 323 452 c 2
 323 335 l 1
 343 332 l 1
 396 332 439 349 439 415 c 0
EndSplineSet
EndChar
StartChar: fi
Encoding: 259 64257 224
Width: 534
Flags: HW
HStem: 0 15<22 40.6667 228 242 291 301.333 501.5 511> 417 33<21 89 171 310> 658 25<278 306>
VStem: 89 84<79 417> 360 84<97 385>
Fore
21 417 m 1
 21 450 l 1
 89 450 l 1
 95 530 107 567 136 608 c 0
 173 658 231 683 306 683 c 0
 384 683 434 655 434 614 c 0
 434 592 419 574 398 574 c 0
 381 574 368 584 349 611 c 0
 325 645 306 658 278 658 c 0
 233 658 193 628 180 584 c 0
 174 568 171 538 171 494 c 2
 171 450 l 1
 328 450 l 2
 369 450 398 453 442 460 c 1
 445 457 l 1
 444 404 444 381 444 359 c 2
 444 97 l 2
 444 34 454 21 511 15 c 1
 511 0 l 1
 291 0 l 1
 291 15 l 1
 353 21 360 29 360 97 c 2
 360 360 l 2
 360 415 354 417 259 417 c 2
 173 417 l 1
 173 88 l 6
 173 34 186 19 242 15 c 5
 242 0 l 5
 22 0 l 5
 22 15 l 5
 78 18 89 29 89 94 c 6
 89 417 l 1
 21 417 l 1
EndSplineSet
Ligature: 0 2 'liga' f i
LCarets: 0 65535 '    ' 1 0 
EndChar
StartChar: fl
Encoding: 260 64258 225
Width: 530
Flags: HW
HStem: 0 15<21 30.6667 235.333 245 294 307 496.5 510> 417 33<21 89 173 362> 656 27<239 256>
VStem: 89 84<77 417> 362 83<77 417 450 681>
Fore
21 417 m 1
 21 450 l 1
 91 450 l 1
 95 538 105 577 135 620 c 0
 163 659 209 683 256 683 c 0
 280 683 309 677 337 666 c 0
 353 661 362 658 368 658 c 0
 376 658 390 664 409 672 c 0
 422 678 432 683 441 683 c 1
 445 681 l 1
 445 81 l 2
 445 29 456 19 510 15 c 1
 510 0 l 1
 294 0 l 1
 294 15 l 1
 346 19 362 35 362 83 c 2
 362 417 l 1
 173 417 l 1
 173 79 l 2
 173 34 187 21 245 15 c 1
 245 0 l 1
 21 0 l 1
 21 15 l 1
 50 18 59 19 69 26 c 0
 83 35 89 60 89 105 c 2
 89 417 l 1
 21 417 l 1
362 450 m 1
 362 592 l 1
 356 586 353 584 346 584 c 0
 322 584 309 593 290 621 c 0
 272 647 261 656 239 656 c 0
 195 656 173 606 173 502 c 2
 173 450 l 1
 362 450 l 1
EndSplineSet
Ligature: 0 2 'liga' f l
LCarets: 0 65535 '    ' 1 0 
EndChar
StartChar: ff
Encoding: 261 64256 226
Width: 588
Flags: HW
HStem: 0 15<22 40.6667 228 242 293 311.667 499 513> 417 33<21 88 173 359 442 565> 633 29<270 305>
VStem: 88 85<79 417 450 475.138> 359 85<79 417 450 489.321>
Fore
21 417 m 1
 21 450 l 1
 88 450 l 1
 88 530 117 583 148 612 c 0
 180 645 214 662 305 662 c 0
 346 662 387 650 409 631 c 1
 438 665 483 683 535 683 c 0
 595 683 640 658 640 621 c 0
 640 598 621 580 598 580 c 0
 580 580 568 590 552 617 c 0
 535 645 520 655 499 655 c 0
 461 655 442 624 442 565 c 2
 442 450 l 1
 565 450 l 1
 565 417 l 1
 444 417 l 1
 444 88 l 2
 444 34 457 19 513 15 c 1
 513 0 l 1
 293 0 l 1
 293 15 l 1
 349 18 359 29 359 94 c 2
 359 417 l 1
 173 417 l 1
 173 88 l 2
 173 34 186 19 242 15 c 1
 242 0 l 1
 22 0 l 1
 22 15 l 1
 78 18 88 29 88 94 c 2
 88 417 l 1
 21 417 l 1
359 450 m 1
 359 501 363 533 372 561 c 1
 360 565 350 576 337 596 c 0
 319 624 296 633 272 633 c 0
 234 633 173 605 173 533 c 1
 173 450 l 1
 359 450 l 1
EndSplineSet
Ligature: 0 2 'liga' f f
LCarets: 0 65535 '    ' 1 0 
EndChar
StartChar: ffi
Encoding: 262 64259 227
Width: 805
Flags: HW
HStem: 0 15<22 40.6667 228 242 293 311.667 499 513 562 572.333 772.5 782> 417 33<21 88 173 360 442 582> 658 25<549 577>
VStem: 88 85<79 417 450 475.138> 360 84<79 417> 631 84<97 385>
Fore
173 450 m 5
 360 450 l 5
 365 504 371 539 384 567 c 5
 372 570 359 582 346 602 c 4
 328 630 299 642 275 642 c 4
 237 642 173 605 173 533 c 5
 173 450 l 5
173 88 m 6
 173 34 186 19 242 15 c 5
 242 0 l 5
 22 0 l 5
 22 15 l 5
 78 18 88 29 88 94 c 6
 88 417 l 5
 21 417 l 5
 21 450 l 5
 88 450 l 5
 88 530 117 583 148 612 c 4
 180 645 223 668 311 668 c 4
 359 668 398 662 428 631 c 5
 464 666 516 683 577 683 c 4
 655 683 705 655 705 614 c 4
 705 592 690 574 669 574 c 4
 652 574 639 584 620 611 c 4
 596 645 577 658 549 658 c 4
 504 658 464 628 451 584 c 4
 445 568 442 538 442 494 c 6
 442 450 l 5
 599 450 l 6
 640 450 669 453 713 460 c 5
 716 457 l 5
 715 404 715 381 715 359 c 6
 715 97 l 6
 715 34 725 21 782 15 c 5
 782 0 l 5
 562 0 l 5
 562 15 l 5
 624 21 631 29 631 97 c 6
 631 360 l 6
 631 415 625 417 530 417 c 6
 444 417 l 5
 444 88 l 6
 444 34 457 19 513 15 c 5
 513 0 l 5
 293 0 l 5
 293 15 l 5
 349 18 360 29 360 94 c 6
 360 417 l 5
 173 417 l 5
 173 88 l 6
EndSplineSet
Ligature: 0 2 'liga' ff i
Ligature: 0 2 'liga' f f i
LCarets: 0 65535 '    ' 2 0 0 
EndChar
StartChar: ffl
Encoding: 263 64260 228
Width: 799
Flags: HW
HStem: 0 15<22 40.6667 228 242 290 299.667 504.5 514 564 576.75 765.5 779> 417 33<21 88 173 359 442 631> 633 29<270 305> 656 27<507 526>
VStem: 88 85<77 417 450 475.138> 359 83<77 417> 631 84<77 417 450 681>
Fore
360 450 m 1xee
 363 499 368 532 376 561 c 1
 365 565 350 576 337 596 c 0
 319 624 296 633 272 633 c 0
 234 633 173 605 173 533 c 1
 173 450 l 1
 360 450 l 1xee
21 417 m 1
 21 450 l 1
 88 450 l 1
 88 530 117 583 148 612 c 0
 180 645 214 662 305 662 c 0
 346 662 397 655 416 633 c 1xee
 444 666 482 683 526 683 c 0
 549 683 579 677 606 666 c 0
 623 661 631 658 637 658 c 0
 646 658 659 664 678 672 c 0
 691 678 702 683 710 683 c 1xde
 715 681 l 1
 715 81 l 2
 715 29 725 19 779 15 c 1
 779 0 l 1
 564 0 l 1
 564 15 l 1
 615 19 631 35 631 83 c 2
 631 417 l 1
 442 417 l 1
 442 79 l 2
 442 34 457 21 514 15 c 1
 514 0 l 1
 290 0 l 1
 290 15 l 1
 319 18 328 19 338 26 c 0
 353 35 359 60 359 105 c 2
 359 417 l 1
 173 417 l 1
 173 88 l 2
 173 34 186 19 242 15 c 1
 242 0 l 1
 22 0 l 1
 22 15 l 1
 78 18 88 29 88 94 c 2
 88 417 l 1
 21 417 l 1
631 450 m 1
 631 592 l 1
 625 586 623 584 615 584 c 0
 592 584 579 593 560 621 c 0
 542 647 530 656 508 656 c 0xde
 464 656 442 606 442 502 c 2
 442 450 l 1
 631 450 l 1
EndSplineSet
Ligature: 0 2 'liga' ff l
Ligature: 0 2 'liga' f f l
LCarets: 0 65535 '    ' 2 0 0 
EndChar
